<svg width="28" height="28" viewBox="0 0 28 28" fill="none" xmlns="http://www.w3.org/2000/svg">
<path fill-rule="evenodd" clip-rule="evenodd" d="M2.33203 2.33301H10.9721L12.6658 9.10755L7.70964 14.0636C9.12434 16.307 10.9765 18.2474 13.1462 19.7648L17.5527 15.3583L25.6654 16.9807V25.6663H24.4987C20.1529 25.6663 16.0958 24.4145 12.6725 22.2513C9.59693 20.3077 7.03294 17.6286 5.22724 14.4602C3.38442 11.2266 2.33203 7.48428 2.33203 3.49967V2.33301ZM15.1921 21.0187C17.6437 22.3238 20.4017 23.1294 23.332 23.2993V18.8936L18.3197 17.8911L15.1921 21.0187ZM6.54161 11.9319L10.0817 8.3918L9.15029 4.66634H4.69908C4.84902 7.25348 5.49447 9.70598 6.54161 11.9319Z" fill="#000"/>
</svg>
