<svg xmlns="http://www.w3.org/2000/svg" viewBox="0 0 60 60" role="img" aria-hidden="true">
  <clipPath id="cn-circle">
    <circle cx="30" cy="30" r="30" />
  </clipPath>
  <g clip-path="url(#cn-circle)">
    <rect width="60" height="60" fill="#DE2910" />
    <polygon fill="#FFDE00" points="15,10 17.2,16.5 24,16.5 18.4,20.5 20.6,27 15,23 9.4,27 11.6,20.5 6,16.5 12.8,16.5" />
    <polygon fill="#FFDE00" points="28,6 28.8,8.5 31.5,8.5 29.3,10 30.1,12.5 28,11 25.9,12.5 26.7,10 24.5,8.5 27.2,8.5" />
    <polygon fill="#FFDE00" points="32,14 32.8,16.5 35.5,16.5 33.3,18 34.1,20.5 32,19 29.9,20.5 30.7,18 28.5,16.5 31.2,16.5" />
    <polygon fill="#FFDE00" points="32,22 32.8,24.5 35.5,24.5 33.3,26 34.1,28.5 32,27 29.9,28.5 30.7,26 28.5,24.5 31.2,24.5" />
    <polygon fill="#FFDE00" points="28,30 28.8,32.5 31.5,32.5 29.3,34 30.1,36.5 28,35 25.9,36.5 26.7,34 24.5,32.5 27.2,32.5" />
  </g>
</svg>
