<svg xmlns="http://www.w3.org/2000/svg" viewBox="0 0 60 60" role="img" aria-hidden="true">
  <clipPath id="circle">
    <circle cx="30" cy="30" r="30" />
  </clipPath>
  <g clip-path="url(#circle)">
    <rect width="60" height="60" fill="#012169" />
    <path d="M0 0 L60 36 L48 36 L0 8 Z" fill="#fff" />
    <path d="M0 8 L48 36 L36 36 L0 14 Z" fill="#C8102E" />
    <path d="M24 0 L60 0 L60 24 L36 0 Z" fill="#fff" />
    <path d="M36 0 L60 0 L60 14 L48 0 Z" fill="#C8102E" />
    <path d="M0 24 L60 60 L60 48 L12 24 Z" fill="#fff" />
    <path d="M12 24 L60 48 L60 36 L24 24 Z" fill="#C8102E" />
    <path d="M0 36 L24 60 L0 60 Z" fill="#fff" />
    <path d="M0 48 L12 60 L0 60 Z" fill="#C8102E" />
    <rect x="25" width="10" height="60" fill="#fff" />
    <rect y="25" width="60" height="10" fill="#fff" />
    <rect x="27" width="6" height="60" fill="#C8102E" />
    <rect y="27" width="60" height="6" fill="#C8102E" />
  </g>
</svg>
