<?xml version="1.0" encoding="UTF-8"?>
<svg version="1.1" xmlns="http://www.w3.org/2000/svg" width="512" height="512">
<path d="M0 0 C1.8163092 -0.0076664 1.8163092 -0.0076664 3.66931152 -0.01548767 C6.96457847 -0.02694393 10.25968809 -0.02946778 13.55496955 -0.02692437 C16.31357921 -0.02584901 19.07216606 -0.03075188 21.83077079 -0.03552979 C28.3385328 -0.04658922 34.84623706 -0.04708115 41.35400391 -0.04101562 C48.05642529 -0.03496475 54.75863734 -0.04732308 61.46102303 -0.06858569 C67.23111545 -0.08621412 73.00114126 -0.0922015 78.77125961 -0.08894795 C82.21092902 -0.08713849 85.65044873 -0.08973832 89.09009361 -0.10366249 C92.92212509 -0.11859838 96.75389008 -0.10925988 100.5859375 -0.09765625 C101.71906876 -0.10529999 102.85220001 -0.11294373 104.01966858 -0.12081909 C110.41522132 -0.07797292 115.34120467 0.23364821 120.2434082 4.80981445 C125.01973896 11.05578544 125.30886762 15.46476089 124.59887695 23.2746582 C122.93196168 28.65641324 119.44959902 31.59128004 114.59887695 34.2746582 C111.66968387 35.2510559 109.79301061 35.40155475 106.74301147 35.40596008 C105.74219543 35.40996826 104.74137939 35.41397644 103.7102356 35.41810608 C102.6130722 35.41757736 101.51590881 35.41704865 100.38549805 35.41650391 C99.22908813 35.41997833 98.07267822 35.42345276 96.88122559 35.42703247 C94.3652431 35.43439353 91.8492541 35.43973704 89.3332634 35.44332314 C85.3483232 35.45048256 81.36346785 35.46579378 77.37857056 35.48466492 C76.01286131 35.49100241 74.647152 35.49732803 73.28144264 35.50364208 C72.59744306 35.50680789 71.91344347 35.5099737 71.20871663 35.51323545 C61.93334982 35.55525522 52.65802397 35.58826079 43.38256836 35.60058594 C37.12414128 35.60898746 30.86593409 35.63155727 24.60761702 35.6699416 C21.29905504 35.68963696 17.99089238 35.69990545 14.68226242 35.69710732 C10.98404826 35.6947498 7.28671766 35.7169583 3.58862305 35.74462891 C1.96109604 35.73472679 1.96109604 35.73472679 0.3006897 35.72462463 C-7.75942636 35.82336421 -13.41745798 37.79593327 -20.21362305 42.0246582 C-24.84135075 46.7846067 -27.52056802 53.14701024 -27.53534412 59.77288246 C-27.53980197 60.69988854 -27.54425981 61.62689462 -27.54885274 62.58199179 C-27.54866838 63.60210644 -27.54848402 64.62222108 -27.54829407 65.67324829 C-27.55197076 66.7556864 -27.55564744 67.83812451 -27.55943555 68.95336378 C-27.57049364 72.59904087 -27.57431984 76.24468948 -27.578125 79.89038086 C-27.58438806 82.49687796 -27.59103472 85.10337417 -27.59803772 87.70986938 C-27.61780075 95.54558201 -27.62786866 103.38129593 -27.63676551 111.21702725 C-27.64114914 114.90777137 -27.6465158 118.59851406 -27.65175438 122.28925705 C-27.66876738 134.55984258 -27.68326089 146.83042721 -27.69050312 159.10102272 C-27.69241299 162.28536607 -27.69433333 165.46970941 -27.69628906 168.65405273 C-27.69701467 169.84122208 -27.69701467 169.84122208 -27.69775494 171.05237465 C-27.70605274 183.86927052 -27.73138509 196.68607299 -27.76386974 209.50292809 C-27.79695538 222.66432283 -27.81495329 235.82567014 -27.81814736 248.98710668 C-27.82031119 256.37568603 -27.82904107 263.76412921 -27.85460854 271.152668 C-27.87861025 278.10477899 -27.88213173 285.05664137 -27.87184715 292.00878525 C-27.87135111 294.55930648 -27.87769164 297.10983967 -27.8914032 299.6603241 C-27.90908865 303.1452321 -27.90203128 306.62925766 -27.88887024 310.11416626 C-27.89983949 311.12089657 -27.91080873 312.12762689 -27.92211038 313.16486418 C-27.85123795 320.95054379 -25.73387721 326.52558902 -21.65112305 333.0871582 C-16.89117455 337.71488591 -10.52877101 340.39410317 -3.90289879 340.40887928 C-2.97589271 340.41333712 -2.04888663 340.41779497 -1.09378946 340.4223879 C0.43638251 340.42211135 0.43638251 340.42211135 1.99746704 340.42182922 C3.07990515 340.42550591 4.16234326 340.4291826 5.27758253 340.4329707 C8.92325962 340.44402879 12.56890823 340.447855 16.21459961 340.45166016 C18.82109671 340.45792322 21.42759292 340.46456988 24.03408813 340.47157288 C31.86980076 340.49133591 39.70551468 340.50140382 47.541246 340.51030067 C51.23199012 340.5146843 54.92273281 340.52005096 58.6134758 340.52528954 C70.88406133 340.54230254 83.15464596 340.55679604 95.42524147 340.56403828 C98.60958482 340.56594815 101.79392816 340.56786848 104.97827148 340.56982422 C106.16544083 340.57054983 106.16544083 340.57054983 107.3765934 340.5712901 C120.19348927 340.5795879 133.01029174 340.60492025 145.82714684 340.6374049 C158.98854158 340.67049053 172.14988889 340.68848844 185.31132543 340.69168252 C192.69990478 340.69384635 200.08834796 340.70257622 207.47688675 340.72814369 C214.42899774 340.75214541 221.38086012 340.75566689 228.333004 340.74538231 C230.88352523 340.74488626 233.43405842 340.75122679 235.98454285 340.76493835 C239.46945085 340.7826238 242.95347641 340.77556644 246.43838501 340.7624054 C247.94848048 340.77885926 247.94848048 340.77885926 249.48908293 340.79564553 C257.27476254 340.7247731 262.84980777 338.60741236 269.41137695 334.5246582 C274.17685843 329.62302011 276.72037803 323.20770147 276.73017883 316.4120636 C276.73418701 315.4098024 276.73819519 314.4075412 276.74232483 313.37490845 C276.74179611 312.27617401 276.7412674 311.17743958 276.74072266 310.04541016 C276.74419708 308.88739395 276.74767151 307.72937775 276.75125122 306.53627014 C276.75861206 304.01701146 276.76395569 301.49774627 276.76754189 298.97847939 C276.77470006 294.98961325 276.79000957 291.00083193 276.80888367 287.01200867 C276.81522109 285.64519602 276.82154671 284.27838331 276.82786083 282.91157055 C276.83102664 282.2270404 276.83419245 281.54251025 276.8374542 280.83723676 C276.87948501 271.55247711 276.91248674 262.26775859 276.92480469 252.98291016 C276.93320115 246.7182667 276.95575155 240.45384319 276.99416035 234.18930978 C277.01387107 230.87686705 277.02412176 227.5648244 277.02132607 224.25231361 C277.01897152 220.55150004 277.04115414 216.85157267 277.06884766 213.15087891 C277.06224625 212.06226563 277.05564484 210.97365234 277.04884338 209.85205078 C277.12681418 203.49588817 277.87934788 198.55345551 281.59887695 193.2746582 C286.93437922 188.19942434 291.53861947 187.92478539 298.6496582 187.9934082 C303.93098502 188.49705791 306.48605977 191.04153646 309.91137695 194.8371582 C312.37172482 198.39099401 312.72603142 201.0665888 312.74604797 205.27996826 C312.75678093 206.83129204 312.75678093 206.83129204 312.76773071 208.41395569 C312.77041962 209.5484465 312.77310852 210.68293732 312.77587891 211.85180664 C312.7824501 213.04734665 312.7890213 214.24288666 312.79579163 215.47465515 C312.81555216 219.44444133 312.82720285 223.41421424 312.8371582 227.3840332 C312.84120792 228.75534332 312.8453249 230.12665324 312.84950829 231.49796295 C312.86856942 237.95059613 312.88279077 244.4032179 312.89112025 250.85587382 C312.90085507 258.27307589 312.92707137 265.68997653 312.96762115 273.10707259 C312.99796059 278.85679153 313.01260641 284.60642507 313.01590127 290.35622239 C313.01823427 293.78125532 313.02696047 297.20596669 313.05236244 300.63091278 C313.20145828 323.93886305 311.81087929 342.27754763 294.97387695 360.0246582 C282.35665515 371.9778157 267.24982731 376.59332239 250.21542358 376.54208374 C249.0994239 376.54661485 247.98342422 376.55114597 246.83360636 376.55581439 C243.10997557 376.5684314 239.38649154 376.56683972 235.6628418 376.56518555 C232.98637351 376.57117254 230.30991654 376.5779224 227.63345337 376.58554077 C221.12649558 376.60211008 214.61957404 376.6076485 208.11259691 376.60876553 C202.8187893 376.60971809 197.52499358 376.61383875 192.23118973 376.62016678 C177.19785919 376.63776933 162.16455713 376.64700738 147.13121621 376.64550583 C145.91710525 376.64538596 145.91710525 376.64538596 144.6784668 376.64526367 C143.86806252 376.64518191 143.05765824 376.64510015 142.22269626 376.64501591 C129.09983729 376.64420365 115.97709327 376.66332886 102.85426752 376.69154041 C89.35590387 376.72032852 75.85759617 376.7340774 62.35920107 376.73235285 C54.79055907 376.73169092 47.22203753 376.73709641 39.65342331 376.75870895 C33.20731415 376.77699914 26.76138004 376.78120439 20.31525604 376.76769011 C17.03226291 376.76119915 13.74967133 376.76311263 10.46669769 376.77839661 C-12.1305664 376.87673784 -29.9746165 374.94531826 -47.15112305 358.6496582 C-59.10428054 346.0324364 -63.71978723 330.92560856 -63.66854858 313.89120483 C-63.6730797 312.77520515 -63.67761081 311.65920547 -63.68227923 310.50938761 C-63.69489624 306.78575682 -63.69330457 303.06227279 -63.69165039 299.33862305 C-63.69763738 296.66215476 -63.70438724 293.98569779 -63.71200562 291.30923462 C-63.72857492 284.80227683 -63.73411334 278.29535529 -63.73523037 271.78837816 C-63.73618293 266.49457055 -63.74030359 261.20077483 -63.74663162 255.90697098 C-63.76423417 240.87364044 -63.77347222 225.84033838 -63.77197067 210.80699746 C-63.77189076 209.99759016 -63.77181085 209.18818285 -63.77172852 208.35424805 C-63.77164675 207.54384377 -63.77156499 206.73343949 -63.77148075 205.89847751 C-63.77066849 192.77561854 -63.7897937 179.65287452 -63.81800525 166.53004877 C-63.84679336 153.03168512 -63.86054224 139.53337742 -63.8588177 126.03498232 C-63.85815576 118.46634032 -63.86356125 110.89781878 -63.8851738 103.32920456 C-63.90346399 96.8830954 -63.90766924 90.43716129 -63.89415495 83.99103729 C-63.88766399 80.70804416 -63.88957747 77.42545258 -63.90486145 74.14247894 C-64.00320268 51.54521485 -62.0717831 33.70116475 -45.77612305 16.5246582 C-32.77824456 4.21087859 -17.47206092 -0.0384058 0 0 Z " fill="#000000" transform="translate(131.401123046875,67.725341796875)"/>
<path d="M0 0 C4.73263177 2.65660743 8.09797018 5.86497726 9.7265625 11.1171875 C10.83887079 18.20815284 9.32319443 23.04281998 5.7265625 29.1171875 C3.95732515 31.38716087 1.98623289 33.38346433 -0.06939697 35.39416504 C-0.93206952 36.26196413 -0.93206952 36.26196413 -1.81216979 37.14729452 C-3.72512637 39.06679451 -5.65193919 40.97172439 -7.57910156 42.87695312 C-8.95984391 44.25656624 -10.33970419 45.63706262 -11.71875 47.01837158 C-15.45329324 50.7540599 -19.20001815 54.47730831 -22.94908619 58.19841194 C-26.86936286 62.09364088 -30.7782741 66.00024152 -34.68841553 69.90563965 C-42.08930806 77.29411236 -49.50033555 84.67233149 -56.91507697 92.04690313 C-65.35821985 100.44529753 -73.78997339 108.85508702 -82.22079897 117.26584339 C-99.55905317 134.56231578 -116.91153031 151.84446001 -134.2734375 169.1171875 C-133.7001622 169.12083313 -133.1268869 169.12447876 -132.53623962 169.12823486 C-126.54955035 169.17016536 -120.5636202 169.23958439 -114.57739258 169.32470703 C-112.34569912 169.35286822 -110.11390682 169.3741068 -107.88208008 169.38818359 C-104.66696751 169.40967978 -101.4530373 169.45636613 -98.23828125 169.5078125 C-97.24634262 169.50904114 -96.25440399 169.51026978 -95.23240662 169.51153564 C-89.0605624 169.64094256 -85.3029768 170.46220385 -80.2734375 174.1171875 C-76.53275093 178.94070439 -74.90140454 182.76388806 -74.9921875 188.92578125 C-75.64518545 194.01372365 -78.07323508 197.91698508 -81.6484375 201.4921875 C-87.35363491 205.02397637 -92.57536871 205.41183249 -99.08935547 205.3918457 C-100.38812622 205.3995121 -100.38812622 205.3995121 -101.71313477 205.40733337 C-104.56403595 205.42118787 -107.41469423 205.42027562 -110.265625 205.41796875 C-112.25570769 205.42185815 -114.24578956 205.42619332 -116.23587036 205.43095398 C-120.40353081 205.43840743 -124.57110653 205.43813138 -128.73876953 205.43286133 C-134.06719181 205.42707001 -139.39526612 205.4439939 -144.72363091 205.467206 C-148.83299776 205.48197199 -152.94228139 205.4828111 -157.05167007 205.47969627 C-159.01557224 205.48020811 -160.97947924 205.48541997 -162.94335556 205.49550819 C-165.69537399 205.50790991 -168.44672195 205.50105845 -171.19873047 205.48950195 C-172.00210846 205.49714569 -172.80548645 205.50478943 -173.63320923 205.51266479 C-180.28356995 205.45125393 -185.72160288 204.10194776 -191.0859375 199.9296875 C-195.88013557 193.76571855 -196.71886842 187.61804907 -196.66162109 180.07421875 C-196.66687805 179.20807953 -196.67213501 178.34194031 -196.67755127 177.44955444 C-196.69066819 174.60941095 -196.68204278 171.76983589 -196.671875 168.9296875 C-196.67389812 166.94246311 -196.67681155 164.95523944 -196.68057251 162.96801758 C-196.68498462 158.81226502 -196.67860068 154.65670649 -196.66455078 150.50097656 C-196.64745966 145.18828382 -196.65730681 139.87604583 -196.67526817 134.56336975 C-196.68613609 130.46257127 -196.68264587 126.36187967 -196.6748848 122.26107788 C-196.67289111 120.30276434 -196.6753127 118.34444092 -196.68232346 116.38613892 C-196.68998755 113.64388519 -196.67826464 110.90235633 -196.66162109 108.16015625 C-196.66769379 107.35992035 -196.67376648 106.55968445 -196.68002319 105.73519897 C-196.61581782 99.99195204 -195.87898999 94.08083916 -191.92778587 89.58659363 C-187.83995805 85.99310187 -184.26584232 84.30166943 -178.8984375 83.8046875 C-172.08652633 84.39192122 -167.67952603 86.95576951 -163.2734375 92.1171875 C-161.46587913 95.13108548 -161.0110027 97.38814484 -160.95458984 100.88574219 C-160.93472015 101.82641541 -160.91485046 102.76708862 -160.89437866 103.73626709 C-160.87705185 105.24740082 -160.87705185 105.24740082 -160.859375 106.7890625 C-160.84000885 107.82661682 -160.8206427 108.86417114 -160.8006897 109.9331665 C-160.74094908 113.24442342 -160.6945302 116.55571521 -160.6484375 119.8671875 C-160.61025268 122.11329634 -160.57120065 124.35939062 -160.53125 126.60546875 C-160.43525208 132.10924565 -160.35018834 137.61311038 -160.2734375 143.1171875 C-159.55928932 142.39935215 -158.84514114 141.6815168 -158.10935211 140.94192886 C-140.72689149 123.47064441 -123.33288539 106.01092015 -105.92673492 88.56323624 C-97.50949643 80.1253783 -89.09604016 71.68381294 -80.69140625 63.23339844 C-73.36536744 55.86747331 -66.03230913 48.50862184 -58.69075918 41.1581552 C-54.80421916 37.26640356 -50.9212693 33.37121674 -47.04670715 29.46753693 C-43.39795643 25.79158914 -39.73987583 22.12518972 -36.07450104 18.46582031 C-34.73269159 17.12291257 -33.3942932 15.77658629 -32.05963898 14.42656708 C-30.23239581 12.57932975 -28.39310826 10.74495443 -26.55041504 8.91314697 C-26.02898501 8.38006558 -25.50755498 7.84698418 -24.97032404 7.2977488 C-18.14419016 0.57956617 -9.49311142 -3.68632849 0 0 Z " fill="#000000" transform="translate(417.2734375,85.8828125)"/>
</svg>
