<?xml version="1.0" encoding="UTF-8"?>
<svg version="1.1" xmlns="http://www.w3.org/2000/svg" width="512" height="512">
<path d="M0 0 C6.37932258 3.43048317 10.45307319 8.41397842 14.72265625 14.11328125 C15.28654053 14.86206543 15.8504248 15.61084961 16.43139648 16.38232422 C38.20116517 45.62292172 53.35114363 78.62470067 60.72265625 114.36328125 C60.87774658 115.10932617 61.03283691 115.85537109 61.19262695 116.62402344 C64.0964714 131.54361222 64.91333163 146.32446868 64.84765625 161.48828125 C64.8455011 162.38813751 64.84334595 163.28799377 64.84112549 164.21511841 C64.78778795 178.12588777 64.26124102 191.68387116 61.53515625 205.36328125 C61.23714111 206.89299561 61.23714111 206.89299561 60.93310547 208.45361328 C52.12757493 252.45488235 32.97494973 291.87117259 2.671875 325.00390625 C0.82343646 327.04496087 -0.9481926 329.12702407 -2.71484375 331.23828125 C-39.77143444 373.33658496 -99.54167491 398.65664834 -154.71875 403.13623047 C-217.3543822 406.93257679 -279.68548259 391.22008845 -328.46484375 350.36328125 C-328.9964209 349.93974365 -329.52799805 349.51620605 -330.07568359 349.07983398 C-332.96625482 346.75650089 -335.30979133 344.61609164 -337.21484375 341.42578125 C-337.6015625 340.79800781 -337.98828125 340.17023438 -338.38671875 339.5234375 C-342.31594857 331.65074151 -342.67447424 323.14352897 -340.8828125 314.58203125 C-337.03161282 303.46806687 -326.40435655 295.15173475 -318.29858398 287.03588867 C-317.31498935 286.04765012 -316.33158654 285.05922062 -315.34835815 284.07061768 C-312.70835484 281.41765393 -310.06516462 278.76788965 -307.4209125 276.11916137 C-305.76419125 274.45948727 -304.10804938 272.79923707 -302.45207405 271.13881874 C-297.25596488 265.92908807 -292.05789729 260.72132352 -286.85691494 255.51645774 C-280.87852226 249.53357422 -274.90674995 243.54418402 -268.94057506 237.54911727 C-264.30698317 232.89387471 -259.66760921 228.24444619 -255.02384716 223.59934884 C-252.25905614 220.83351376 -249.49670924 218.06534222 -246.74038506 215.29106712 C-244.1507265 212.68486536 -241.55392175 210.08599783 -238.95161057 207.49243164 C-237.55265004 206.09460108 -236.16108843 204.68937766 -234.76982117 203.28388977 C-226.71712057 195.28408566 -219.33549666 189.48580543 -207.58984375 189.05078125 C-202.41718138 189.16745784 -198.2645416 190.55962121 -193.46484375 192.36328125 C-181.24273832 196.56274851 -172.3186304 198.05048787 -160.296875 192.33203125 C-152.16318511 187.67521847 -146.05768728 180.41035355 -143.46484375 171.36328125 C-141.35371002 160.82132125 -143.65833702 152.74205519 -147.40234375 142.8984375 C-150.48376477 134.46897327 -150.55019843 126.67635974 -147.02476501 118.31349182 C-139.42459406 103.93962233 -123.33515961 92.0124842 -111.8671875 80.4921875 C-110.77558279 79.39520883 -109.68397984 78.2982284 -108.59237862 77.20124626 C-104.05188015 72.63920892 -99.50998174 68.07857299 -94.9643774 63.52162266 C-88.49405869 57.03503051 -82.03243398 50.54004212 -75.58241647 44.03326088 C-71.01763127 39.42969564 -66.44322575 34.83583025 -61.86165053 30.24897522 C-59.13667182 27.52036147 -56.41595063 24.78781128 -53.70551872 22.04474068 C-51.15956499 19.46855405 -48.60180425 16.90468767 -46.03483772 14.34944344 C-44.65913725 12.974066 -43.29578747 11.58636871 -41.9329834 10.19821167 C-29.85245275 -1.76258131 -16.36532805 -6.14648333 0 0 Z M-25.62451172 26.29589844 C-26.74049774 27.41219658 -27.85113518 28.53386134 -28.95703125 29.66015625 C-29.54783478 30.25378967 -30.13863831 30.8474231 -30.74734497 31.45904541 C-32.61629757 33.33911112 -34.47813916 35.22604085 -36.33984375 37.11328125 C-37.61281618 38.39629493 -38.8862492 39.6788518 -40.16015625 40.9609375 C-43.26707042 44.08979425 -46.3676305 47.22482259 -49.46484375 50.36328125 C-47.44692024 52.49668833 -45.75524128 53.81360589 -43.21484375 55.42578125 C-21.28016959 71.02785073 -11.10280186 111.29939434 -6.82470703 136.10766602 C-3.64679398 156.02675605 -4.19921982 177.65996126 -8.46484375 197.36328125 C-8.63113281 198.1413916 -8.79742187 198.91950195 -8.96875 199.72119141 C-13.60042222 220.62804517 -21.27293684 246.51074134 -40.21484375 258.73828125 C-50.47275843 264.32631193 -60.90141267 266.01655168 -72.46484375 266.36328125 C-72.490625 267.22308594 -72.51640625 268.08289063 -72.54296875 268.96875 C-73.26566394 284.03037484 -77.13649229 298.25743475 -88.52734375 308.7890625 C-116.44467962 331.4718979 -160.16772147 335.65069356 -194.45117188 333.14501953 C-223.35739744 330.1545391 -264.32490408 318.968003 -283.6484375 295.73828125 C-285.05942634 293.65275502 -286.27572544 291.57706211 -287.46484375 289.36328125 C-293.55371311 294.37561783 -299.13911655 299.85137474 -304.7097168 305.42285156 C-306.28612405 306.99704925 -307.87039805 308.56304196 -309.45507812 310.12890625 C-310.46533192 311.1362294 -311.47511471 312.14402519 -312.484375 313.15234375 C-313.39292236 314.05678223 -314.30146973 314.9612207 -315.23754883 315.89306641 C-318.13419005 319.1056298 -319.4948685 320.95211792 -319.40234375 325.30078125 C-315.1672905 339.13528852 -289.61464751 350.47443138 -277.70410156 356.83837891 C-256.02678487 368.09376302 -233.52120638 375.28630118 -209.46484375 379.36328125 C-208.69575684 379.49460449 -207.92666992 379.62592773 -207.13427734 379.76123047 C-156.72292422 387.89503784 -96.90676419 375.37695528 -55.14990234 345.58203125 C-54.59383301 345.17984375 -54.03776367 344.77765625 -53.46484375 344.36328125 C-52.81725098 343.89921875 -52.1696582 343.43515625 -51.50244141 342.95703125 C-43.05348936 336.86569572 -35.0826309 330.47666483 -27.46484375 323.36328125 C-25.73650533 321.84150673 -24.00733149 320.32068052 -22.27734375 318.80078125 C-17.96473113 314.90271434 -14.1448151 310.85695144 -10.46484375 306.36328125 C-10.03977539 305.85587402 -9.61470703 305.3484668 -9.17675781 304.82568359 C17.57039031 272.85577388 33.89206746 235.39412377 40.53515625 194.36328125 C40.71522217 193.2647583 40.71522217 193.2647583 40.89892578 192.14404297 C49.50054202 137.08600759 33.90647794 79.2360319 1.53515625 34.36328125 C1.06094238 33.70344238 0.58672852 33.04360352 0.09814453 32.36376953 C-4.99093784 24.4416741 -4.99093784 24.4416741 -12.46484375 19.36328125 C-18.32260856 19.36328125 -21.53871003 22.37421854 -25.62451172 26.29589844 Z M-79.0012207 79.49560547 C-79.50621597 79.99373749 -80.01121124 80.49186951 -80.5315094 81.00509644 C-82.17973151 82.63518553 -83.81680409 84.27593965 -85.453125 85.91796875 C-86.60381864 87.06409573 -87.75488177 88.20985185 -88.90629578 89.35525513 C-91.30920061 91.74925661 -93.70638756 94.14880922 -96.09985352 96.55224609 C-99.16239726 99.62630507 -102.2405574 102.6841744 -105.32339191 105.73786736 C-107.70080119 108.09690928 -110.06880884 110.46521537 -112.43419456 112.83630753 C-113.5653929 113.96765885 -114.6996854 115.09592547 -115.83715248 116.22097397 C-117.42637814 117.79527312 -119.00225771 119.38185744 -120.57543945 120.97216797 C-121.47365921 121.87055389 -122.37187897 122.76893982 -123.2973175 123.69454956 C-125.6331462 126.57050092 -126.65501208 128.76227321 -127.46484375 132.36328125 C-126.7047917 135.54980163 -126.7047917 135.54980163 -125.21484375 138.67578125 C-119.39565852 152.75598966 -118.14904961 167.81696084 -123.46484375 182.36328125 C-124.77925764 185.0440915 -126.1452655 187.641301 -127.671875 190.20703125 C-128.71352638 192.31593453 -128.71352638 192.31593453 -127.7673645 194.22692871 C-126.23699962 196.73698385 -124.48659767 198.61060262 -122.41748047 200.70117188 C-121.58256073 201.54885132 -120.74764099 202.39653076 -119.88742065 203.26989746 C-118.98226715 204.17727661 -118.07711365 205.08465576 -117.14453125 206.01953125 C-116.2023382 206.96815749 -115.26029342 207.91693102 -114.31838989 208.86584473 C-112.34309243 210.85310529 -110.36371643 212.83620022 -108.38183594 214.81689453 C-105.85667587 217.34185196 -103.34552486 219.88025223 -100.83778191 222.42249298 C-98.89542264 224.38721855 -96.94390906 226.34265591 -94.98981094 228.29570007 C-93.61238884 229.67659708 -92.24405439 231.06653995 -90.87594604 232.45666504 C-83.71498291 239.56602173 -77.46490946 243.82481466 -67.21484375 244.61328125 C-58.79423774 244.05190752 -51.94784829 240.84628579 -45.96484375 234.86328125 C-27.79315457 211.40844921 -24.0120004 173.84871587 -27.23413086 145.31640625 C-30.53558323 119.6480106 -39.36653022 92.34738609 -56.46484375 72.36328125 C-64.88476501 66.46933637 -73.01831004 73.54852462 -79.0012207 79.49560547 Z M-152.52734375 213.23828125 C-168.20094641 220.4933113 -183.32472835 219.77530568 -199.46484375 214.36328125 C-200.99094094 213.72998663 -202.51300084 213.08668992 -204.02734375 212.42578125 C-207.39583908 210.99511215 -207.39583908 210.99511215 -210.33502197 212.47547913 C-213.71416723 214.5136647 -216.1911123 216.71533217 -218.97949219 219.50561523 C-219.494095 220.01656738 -220.00869781 220.52751953 -220.53889465 221.05395508 C-222.22479915 222.73180442 -223.89967378 224.42019435 -225.57421875 226.109375 C-226.74861385 227.28428919 -227.9235285 228.45868425 -229.09893799 229.63258362 C-231.5546022 232.08833732 -234.00503644 234.54915605 -236.45166016 237.01391602 C-239.58600311 240.17098268 -242.73133884 243.3168166 -245.88042831 246.45916653 C-248.30518045 248.88057627 -250.72491557 251.30694842 -253.14307404 253.73494148 C-254.30115831 254.89687053 -255.46058879 256.05745945 -256.6213913 257.2166729 C-258.2418461 258.83675646 -259.85564356 260.46319041 -261.46777344 262.09155273 C-262.38677429 263.01516098 -263.30577515 263.93876923 -264.25262451 264.8903656 C-267.25656051 268.24829695 -268.34312719 270.26783223 -268.83984375 274.73828125 C-268.38337355 279.1508265 -267.20194917 280.89302259 -264.46484375 284.36328125 C-262.17071056 286.02892341 -260.04140195 287.42818532 -257.58984375 288.80078125 C-256.59138428 289.37481689 -256.59138428 289.37481689 -255.57275391 289.96044922 C-253.5464396 291.1130625 -251.50778918 292.24046795 -249.46484375 293.36328125 C-248.35625 293.98589844 -247.24765625 294.60851562 -246.10546875 295.25 C-211.52124472 313.65906662 -170.27150635 316.95639917 -132.96484375 305.75390625 C-111.53904178 299.1081528 -111.53904178 299.1081528 -96.58984375 283.17578125 C-93.65478471 275.83813365 -93.73499258 268.57574628 -96.21629333 261.0977478 C-97.61204174 258.04090101 -99.23880019 256.07700754 -101.52368164 253.61962891 C-102.73364304 252.31496674 -102.73364304 252.31496674 -103.9680481 250.98394775 C-107.79502031 246.96711206 -111.66570334 243.00005683 -115.5859375 239.07421875 C-116.41190933 238.24491852 -117.23788116 237.41561829 -118.08888245 236.56118774 C-119.81438246 234.83067147 -121.54119612 233.10146409 -123.26928711 231.37353516 C-125.92524104 228.71536485 -128.5730581 226.04925593 -131.22070312 223.3828125 C-132.90445962 221.696127 -134.58868707 220.00991146 -136.2734375 218.32421875 C-137.06608505 217.52438568 -137.8587326 216.72455261 -138.67539978 215.90048218 C-139.40698807 215.17197052 -140.13857635 214.44345886 -140.89233398 213.69287109 C-141.53581284 213.04796722 -142.17929169 212.40306335 -142.8422699 211.73861694 C-146.18504875 208.90519086 -149.03492964 211.5308788 -152.52734375 213.23828125 Z " fill="#000000" transform="translate(394.46484375,55.63671875)"/>
<path d="M0 0 C3.02089981 1.7475743 5.41608883 3.83217766 7 7 C7.28186639 11.35144614 7.31369605 15.70657959 7.35009766 20.06591797 C7.36661943 21.51497501 7.39386032 22.96395181 7.43212891 24.41259766 C7.48720676 26.5098667 7.50881703 28.60522788 7.5234375 30.703125 C7.54325684 31.95770508 7.56307617 33.21228516 7.58349609 34.50488281 C6.81231886 39.12420216 5.27280898 40.70931356 2 44 C-1.19378082 45.59689041 -4.52521315 45.37348957 -8 45 C-10.81229015 43.77726515 -12.41372385 42.87999241 -14.11401367 40.32788086 C-15.97097218 35.44882344 -15.33156849 29.89992464 -15.31567383 24.72827148 C-15.31251523 22.57288984 -15.33598427 20.41888387 -15.36132812 18.26367188 C-15.36360156 16.88541839 -15.36430441 15.50716123 -15.36328125 14.12890625 C-15.36626221 12.88181885 -15.36924316 11.63473145 -15.37231445 10.34985352 C-14.97227922 6.75058572 -14.13763802 4.88546512 -12 2 C-8.55632333 -0.67841519 -4.17635655 -0.80961998 0 0 Z " fill="#000000" transform="translate(222,299)"/>
<path d="M0 0 C0.67293091 -0.00191345 1.34586182 -0.0038269 2.03918457 -0.00579834 C3.45793025 -0.00715564 4.87668854 -0.00349103 6.29541016 0.00488281 C8.46154799 0.0155894 10.62685658 0.00497273 12.79296875 -0.0078125 C14.17448099 -0.00649082 15.55599271 -0.00392826 16.9375 0 C18.18982422 0.00225586 19.44214844 0.00451172 20.73242188 0.00683594 C23.79221803 0.25150883 25.44920595 0.58150872 27.96875 2.265625 C30.7955121 5.69812184 31.55499785 8.80634269 31.39453125 13.265625 C30.6170937 16.91744176 28.64263228 18.71610934 25.96875 21.265625 C20.89193277 22.95789741 15.57182977 22.56952421 10.25463867 22.61572266 C8.86091389 22.6322625 7.46727325 22.65952763 6.07397461 22.69775391 C-6.99709114 23.05399814 -6.99709114 23.05399814 -10.91796875 19.8671875 C-13.90227713 16.19334391 -14.31926206 14.07120563 -14.25 9.30078125 C-13.93045564 6.32787743 -12.91714752 4.55564341 -11.03125 2.265625 C-7.46401785 -0.11878807 -4.21267611 0.00758845 0 0 Z " fill="#000000" transform="translate(313.03125,206.734375)"/>
</svg>
