<svg xmlns="http://www.w3.org/2000/svg" height="24px" viewBox="0 -960 960 960" width="24px" fill="#e3e3e3"><path d="M400-760H160v560h240v-560ZM160-120q-33 0-56.5-23.5T80-200v-560q0-33 23.5-56.5T160-840h560q33 0 56.5 23.5T800-760v40q0 17-11.5 28.5T760-680q-17 0-28.5-11.5T720-720v-40H480v560h240v-40q0-17 11.5-28.5T760-280q17 0 28.5 11.5T800-240v40q0 33-23.5 56.5T720-120H160Zm600-120q-17 0-28.5-11.5T720-480q0-17 11.5-28.5T760-520h120q17 0 28.5 11.5T920-480q0 17-11.5 28.5T880-440H760ZM480-480Zm-80 0h80-80Zm0 0Z"/></svg>
