<?xml version="1.0" encoding="UTF-8" standalone="no"?> <svg xmlns="http://www.w3.org/2000/svg" version="1.0" width="1345.000000pt" height="1387.000000pt" viewBox="0 0 1345.000000 1387.000000" preserveAspectRatio="xMidYMid meet"><g transform="translate(0.000000,1387.000000) scale(0.100000,-0.100000)" fill="#000000" stroke="none"><path d="M6490 13864 c-97 -13 -214 -38 -293 -65 -81 -27 -768 -335 -970 -435 -200 -99 -365 -250 -445 -410 -119 -235 -33 -588 198 -815 144 -142 263 -205 1085 -579 1486 -676 7341 -3320 7368 -3327 17 -5 17 43 15 1073 l-3 1079 -27 98 c-83 303 -280 555 -564 723 -42 25 -296 144 -563 264 -504 226 -2673 1203 -4206 1895 -484 218 -918 410 -965 425 -144 49 -279 71 -445 75 -82 2 -166 1 -185 -1z"></path><path d="M2676 12114 c-55 -7 -139 -24 -187 -38 -49 -14 -303 -122 -566 -240 -263 -118 -642 -287 -843 -376 -479 -213 -538 -248 -701 -417 -171 -177 -273 -367 -347 -648 l-26 -100 -3 -970 c-2 -533 1 -2027 6 -3320 l8 -2350 22 -100 c71 -317 245 -600 495 -801 65 -52 143 -96 396 -223 430 -214 821 -395 943 -436 276 -91 504 -66 692 76 113 85 204 233 257 414 l23 80 5 3155 5 3155 22 78 c44 154 103 215 215 224 40 4 85 0 123 -10 53 -14 1329 -598 2440 -1117 215 -100 429 -197 476 -216 208 -81 383 -115 584 -115 143 0 245 16 345 54 150 57 1374 599 1533 678 186 94 304 200 365 326 32 68 37 89 40 165 7 160 -48 279 -193 417 -41 39 -112 96 -158 126 -58 39 -576 287 -1688 811 -2956 1392 -3389 1594 -3503 1633 -264 91 -527 120 -780 85z"></path><path d="M11005 8389 c-263 -41 -464 -216 -553 -484 -58 -173 -55 -109 -61 -1390 l-6 -1180 -29 -84 c-53 -152 -165 -292 -309 -388 -41 -27 -687 -332 -1587 -749 -835 -387 -1521 -704 -1524 -704 -3 0 -6 627 -6 1394 0 1515 2 1469 -56 1641 -53 160 -125 276 -247 402 -145 149 -179 168 -926 513 -720 332 -806 369 -896 391 -99 23 -253 27 -330 8 -274 -67 -441 -284 -512 -664 -13 -69 -16 -427 -24 -2550 -6 -1358 -7 -2515 -5 -2570 25 -479 264 -903 636 -1128 41 -25 347 -170 680 -322 333 -152 668 -306 745 -342 230 -107 272 -123 388 -151 99 -23 133 -26 292 -26 204 0 311 15 492 70 159 48 218 73 640 270 621 290 2221 1032 3972 1843 567 263 1024 480 1063 506 236 157 420 406 518 704 72 218 72 218 80 1061 5 415 8 1093 9 1506 1 817 0 843 -55 996 -122 339 -370 607 -734 792 -259 132 -1295 607 -1353 621 -83 19 -228 26 -302 14z"></path></g></svg> 