<svg version="1.2" xmlns="http://www.w3.org/2000/svg" viewBox="0 0 350 303" width="357" height="303">
	<style>
		.s0 { fill: #ffffff } 
	</style>
	<path id="X" class="s0" d="m223.22 126.13l82.07 102.91q7.31 9.02 11.39 12.24 4.08 3.22 11.6 5.59 11.82 3.86 16.54 8.81 4.95 4.94 4.95 13.1 0 7.74-5.38 14.61-5.37 6.66-13.75 9.88-12.89 4.94-32.22 7.09-19.34 1.94-53.71 1.94-36.74 0-55-4.09-10.75-2.57-16.98-8.37-6.23-5.8-6.23-13.11 0-9.24 8.6-15.04 8.59-5.58 8.59-9.45 0-10.74-24.92-43.61-3.22-4.09-5.59-4.09-2.14 0-4.94 3.44-10.31 12.46-18.26 24.92-7.73 12.46-7.73 16.12 0 3.43 8.8 10.31 8.6 6.44 8.6 16.33 0 14.82-16.76 19.98-21.91 6.87-52.21 6.87-34.37 0-52.85-5.8-7.52-2.36-12.67-8.81-5.16-6.44-5.16-13.53 0-9.46 6.23-14.83 6.45-5.37 18.26-5.8 14.18-0.43 24.06-8.38 9.89-8.16 34.38-39.1l33.3-41.68q2.79-3.44 2.79-5.37 0-1.29-2.79-4.73l-55-70.25q-12.89-16.76-16.97-20.41-4.08-3.65-13.11-6.44-12.89-4.09-16.76-7.52-7.3-6.66-7.3-15.9 0-19.34 30.51-26.21 32.22-7.31 72.83-7.31 42.75 0 58.01 5.59 6.66 2.36 10.74 8.16 4.08 5.8 4.08 12.68 0 10.74-7.95 16.33-4.94 3.43-6.01 4.51-0.86 1.07-0.86 3.43 0 4.95 7.95 15.26 7.95 10.31 11.81 10.31 3.44 0 12.46-10.96 9.03-10.95 9.03-15.25 0-2.58-1.29-3.87-1.08-1.29-8.17-6.66-6.44-4.72-6.44-14.18 0-13.53 16.76-19.55 16.75-6.01 54.57-6.01 27.71 0 42.75 4.51 18.91 5.58 18.91 22.34 0 11.17-9.67 16.76-3.87 2.15-20.2 3.22-10.74 0.86-22.12 9.46-11.18 8.59-26.22 27.71l-25.35 31.8q-2.79 3.65-2.79 5.37 0 1.29 2.79 4.73z"/>
</svg>