<svg version="1.2" xmlns="http://www.w3.org/2000/svg" viewBox="0 0 157 57" width="157" height="57">
	<style>
		.s0 { fill: #000000 } 
	</style>
	<path id="uix." class="s0" d="m22.88 17.62l-0.03 21.96q-0.01 7.06 4.65 7.06 1.18 0 2.31-0.64 1.14-0.69 1.59-1.66 0.89-1.95 0.9-8.68 0.01-6.64-0.43-9.07-0.17-1.02-0.57-1.46-0.4-0.49-1.54-1.1-2.31-1.22-2.3-3.08 0-2.52 3.97-3.48 7.54-1.86 14.88-1.85 4.09 0.01 4.09 4.34 0 0.45-0.05 1.83-0.08 1.94-0.13 4.74l-0.02 17.87q0 1.38 2.35 2.52 1.98 0.97 1.98 2.84-0.01 3.65-8.64 5.62-5.07 1.17-9.81 1.16-1.94 0-2.67-0.45-0.69-0.44-0.81-1.74-0.2-2.51-1.54-2.52-0.48 0-0.89 0.25-0.41 0.2-2.47 1.61-4.1 2.79-8.8 2.79-7.78-0.01-10.98-4.52-2.71-3.77-2.7-12.68 0.01-3.33 0.05-5.68 0-1.38 0-1.86 0.01-3.49-0.64-5.11-0.6-1.66-2.26-2.6-1.58-0.81-2.03-1.3-0.4-0.48-0.4-1.33 0-3.08 4.66-4.09 7.95-1.73 15.89-1.72 2.39 0 2.39 2.03zm56.58 0.56l-0.04 23.55q0 2.79 0.49 4.09 0.52 1.3 2.06 2.39 1.25 0.9 1.66 1.55 0.44 0.61 0.44 1.58 0 5.23-13.26 5.21-7.13-0.01-11.3-1.15-1.42-0.41-2.31-1.42-0.85-1.02-0.85-2.31 0-1.1 0.45-1.71 0.45-0.6 2.27-1.94 1.26-0.93 1.79-3.04 0.53-2.1 0.53-6.28 0.01-1.33-0.19-4.98-0.16-3.69-0.24-4.3-0.24-1.66-2.27-2.55-2.51-1.1-2.5-3.25 0-2.55 3.28-3.81 4.55-1.73 9.73-2.94 5.19-1.21 8.03-1.21 2.23 0.01 2.23 2.52zm-8-17.76q3.52 0 5.59 1.34 2.06 1.3 2.06 3.53-0.01 3.12-3.13 4.94-4.95 2.87-11.96 2.86-2.96 0-4.7-1.14-2.35-1.46-2.34-4.05 0-3.49 4.99-5.47 5.07-2.02 9.49-2.01zm27.71 32.66l-3.44-4.3q-2.22-2.8-3.48-3.77-1.25-0.98-3.16-1.39-3.2-0.69-3.19-3.08 0-2.47 4.1-3.64 4.13-1.21 12.72-1.2 6.24 0.01 9.28 0.7 3.36 0.82 3.36 3.25 0 0.93-1.34 3.03-0.24 0.41-0.24 0.86-0.01 0.85 1.25 2.47 1.29 1.62 1.94 1.62 0.73 0 2.15-1.78 1.42-1.82 1.42-2.71 0.01-0.65-0.88-1.95-0.77-1.13-0.77-1.78 0-0.89 0.65-1.74 0.69-0.85 1.7-1.26 1.83-0.72 6.16-0.72 3.77 0.01 5.23 0.74 2.03 1.05 2.02 3 0 1.05-0.57 1.58-0.56 0.53-2.88 1.62-1.25 0.6-1.9 1.37-0.65 0.73-4.51 5.91l-2.8 4.21q-0.49 0.69-0.49 0.94 0 0.16 0.45 0.89l2.42 3.69q3.88 5.88 5.75 7.67 0.89 0.85 2.87 1.74 1.86 0.82 1.86 2.76 0 2.76-3.41 3.81-3.4 1.01-12.44 0.99-6.93-0.01-9.69-0.66-3.64-0.89-3.64-3.77 0-1.7 2.11-2.67 1.18-0.53 1.18-1.79 0-1.33-1.66-3.65-1.65-2.35-2.59-2.31-0.97 0.04-2.88 2.91-1.91 2.88-1.91 4.34 0 0.69 0.97 1.86 0.85 0.98 0.85 2.19-0.01 3.53-8.31 3.52-4.54-0.01-6.53-0.9-1.98-0.9-1.98-2.92 0-1.3 0.61-1.87 0.65-0.6 2.35-0.92 1.79-0.33 2.72-1.46 0.93-1.13 5.77-8.75l2.92-4.82q0.41-0.64 0.41-0.93 0-0.24-0.53-0.93zm48.18 4.73q3.85 0 6.69 2.68 2.87 2.72 2.87 7.01-0.01 4.02-2.89 6.77-2.84 2.67-6.69 2.66-3.85 0-6.69-2.68-2.87-2.76-2.86-6.89 0-4.22 2.88-6.89 2.84-2.63 6.69-2.66z"/>
</svg>