<svg 
 xmlns="http://www.w3.org/2000/svg"
 xmlns:xlink="http://www.w3.org/1999/xlink"
 width="830px" height="793px">
<path fill-rule="evenodd"  
 d="M704.596,793.000 C603.699,789.515 553.329,740.260 522.730,691.844 C494.186,646.681 491.838,573.547 491.838,573.547 L491.838,2.407 C491.838,2.407 475.603,0.1000 586.241,0.1000 C696.879,0.1000 689.098,114.947 689.098,114.947 C689.098,114.947 687.832,339.563 687.689,535.565 C687.632,613.536 694.373,661.715 721.504,705.782 C765.316,776.940 829.997,793.000 829.997,793.000 L704.596,793.000 ZM587.009,792.000 L461.606,792.000 C360.706,789.030 311.760,746.517 281.765,704.812 C249.528,659.988 248.842,604.964 248.842,604.964 L248.842,118.192 C248.842,118.192 232.606,116.993 343.247,116.993 C453.887,116.993 446.106,214.108 446.106,214.108 C446.106,214.108 445.080,397.136 444.937,564.185 C444.880,630.639 458.334,669.708 482.917,707.624 C523.618,770.401 587.009,792.000 587.009,792.000 ZM339.183,792.594 L213.967,792.594 C113.219,789.108 62.923,739.847 32.369,691.426 C3.867,646.257 1.523,573.115 1.523,573.115 L1.523,1.907 C1.523,1.907 -14.688,0.500 95.786,0.500 C206.261,0.500 198.491,114.460 198.491,114.460 C198.491,114.460 197.227,339.103 197.084,535.128 C197.027,613.109 203.759,661.293 230.850,705.365 C274.597,776.532 339.183,792.594 339.183,792.594 Z"/>
</svg>