<?xml version="1.0" encoding="UTF-8"?>
<svg id="Layer_1" xmlns="http://www.w3.org/2000/svg" version="1.1" viewBox="0 0 226.7 52.5">
  <!-- Generator: Adobe Illustrator 30.3.0, SVG Export Plug-In . SVG Version: 2.1.3 Build 182)  -->
  <defs>
    <style>
      .st0 {
        fill: gray;
      }
    </style>
  </defs>
  <path class="st0" d="M21.6,33.5c-3.3.9-10.4,3.6-12.9,5-.3,1.2-2.4,10.3-2.4,10.3-1.2.2-4.8,1-6.3,1.3L11.5,1.4h7.9c.1,0,12,43.3,12,43.3-1,.1-4.6.6-6.5.9,0,0-3.5-12.1-3.3-12.1M20,27.7l-4.7-17.2-4.9,20.7c2-1,6.7-2.7,9.6-3.5M219.7,48.6l-2.4-10.4c-2.8-1.4-9-3.7-12.6-4.8l-3.2,12.1c-1.4-.2-5.6-.8-6.2-.9L207.2,1.4h7.9s11.5,48.4,11.6,48.6c-2.1-.4-5.5-1.1-7-1.4M215.6,31l-4.8-20.5-4.6,17.2c3,.8,7,2.2,9.4,3.3M129.1,39.9c-1.3,0-5.3-.1-6.7-.1l-3.1-10.5h-12l-3.1,10.5c-1.5,0-5.9.1-6.4.1L109.5,1.5h8l11.6,38.4ZM117.6,23.6l-4.4-14.8-4.3,14.8h8.7ZM90.4,1.4v26.3c0,3.8-2,7.7-7.6,7.7-4.9,0-7.6-3.9-7.6-7.7V1.4h-6.8v26.7c0,7.5,6,13.2,14.3,13.2s14.3-5.7,14.3-13.2V1.4s-6.6,0-6.6,0ZM83.7,52.5c-12.9,0-18.8-5.9-25-13.7-2.7,3-6.6,5.2-11.8,5.2-11,0-17.3-9.8-17.3-22S35.7,0,46.9,0s17.2,9.9,17.2,22c0,6.7-1.7,10.5-2.3,11.7,4.8,5.4,10.1,12.9,20.8,12.9,4.6,0,7.5-.9,8.8-1.4l1.7,5.4c-1.4.7-4.5,1.9-9.4,1.9M54.3,34.1c-1.4-1.4-5.2-4.9-11.1-4.9-1.7,0-3.5.3-5.6,1,1.3,4.1,4.4,7.9,9.4,7.9,3.9,0,6-2.4,7.3-4M47,5.9c-7.2,0-10.6,7.5-10.6,16.1,0,.8,0,1.8.1,2.3.7-.2,3.3-1,6.4-1,7.6,0,12,3.5,13.8,5.2.4-1.6.8-3.1.8-6.5,0-8.6-3.7-16.1-10.5-16.1M161.8,1.4v39.9c-1.7-.1-5.1-.4-6.3-.4V1.4h6.3ZM186.8,1.4v28.3l-13.1-28.3h-6.4v40.4c1.9.2,4.7.4,6.3.5V14.1l13.8,29.7c1.1.1,3.6.4,5.6.7V1.5h-6.2v-.1ZM151.1,1.4h-19.9v38.5c1.3,0,5,.2,6.5.2v-15.9h12.8v-5.9h-12.8V7.2h13.3V1.4h.1Z"/>
</svg>