<?xml version="1.0" encoding="UTF-8"?>
<svg id="Layer_1" xmlns="http://www.w3.org/2000/svg" xmlns:x="ns_extend;" version="1.1" viewBox="0 0 168 56">
  <!-- Generator: Adobe Illustrator 30.3.0, SVG Export Plug-In . SVG Version: 2.1.3 Build 182)  -->
  <defs>
    <style>
      .st0 {
        fill: gray;
      }
    </style>
  </defs>
  <path class="st0" d="M167.8,14c-.5,1.7-.9,3.4-1.4,5.2-.1.5-.3.6-.8.6h-9.1c-1.3,0-2.4.5-3,1.7-.4.7-.4,1.4.2,2,.6.6,1.2,1.1,1.9,1.5,1.3.8,2.6,1.4,3.9,2.2,1.2.7,2.3,1.5,3.3,2.5,1.8,1.7,2.3,4,2,6.4-.2,1.7-.8,3.3-1.6,4.8-2,3.6-5.1,5.5-9.1,5.7-4.1.2-8.2.1-12.3.1-.1,0-.2,0-.5-.1.2-.7.4-1.4.5-2,.4-1.4.7-2.7,1.1-4.1.1-.5.3-.6.8-.6h9c.9,0,1.8-.1,2.7-.3,1.2-.3,1.8-1.2,2-2.4.2-1-.3-1.7-1-2.2-.9-.7-1.9-1.3-2.9-1.9-1.4-.9-2.9-1.7-4.2-2.6-1.7-1.2-3.1-2.8-3.4-5-.1-1.1-.1-2.2.1-3.2,1.3-6.3,6.7-9,11.2-9.1,3.4-.1,6.9,0,10.3,0,.1,0,.2,0,.4.1,0,.1-.1.4-.1.7h0ZM144.7,19.2c-.1.4-.3.5-.7.5-1.9,0-3.9,0-5.8.2-6.1.9-10.9,6.2-11.3,12.2-.3,4.5,2.5,7.6,7,7.6h6c-.2.9-.4,1.6-.6,2.3-.3,1.3-.7,2.5-1,3.8-.1.4-.3.6-.7.6-2.3,0-4.7.1-7-.1-6.3-.3-10.6-4.3-11.2-10.3-.4-4.2.8-8.1,2.8-11.7,3.5-6.3,8.9-10,16.1-11,2.5-.3,5-.2,7.6-.3.1,0,.2,0,.3.1l-.5,1.9c-.3,1.4-.7,2.8-1,4.2h0ZM113.7,45.9c-.1.5-.3.7-.9.7h-6.6l.7-2.6,7.7-29.4q.4-1.6,1.8-1.6h5.8c-.5,2-1,3.8-1.5,5.7-2.3,9.1-4.6,18.1-7,27.2h0ZM107.9,19.1c-.1.5-.3.6-.8.6h-9c-1.3,0-2.3.5-2.9,1.6-.5.8-.4,1.5.2,2.1s1.3,1.1,2.1,1.6c1.4.9,3,1.7,4.4,2.5.6.3,1.1.7,1.6,1.2,2.4,1.9,3.5,4.5,2.9,7.6-.3,2-1.1,3.9-2.2,5.6-1.8,2.6-4.4,4.1-7.6,4.5-1.4.2-2.8.2-4.2.2h-9.5c.1-.5.2-1,.3-1.4.4-1.5.8-3,1.2-4.5.1-.6.4-.8,1.1-.8h8.9c.7,0,1.5-.1,2.2-.2.9-.2,1.6-.6,2-1.5.6-1.3.5-2.3-.6-3.2-1-.8-2.1-1.4-3.1-2.1-1.4-.9-2.9-1.7-4.3-2.7-1.9-1.4-3.1-3.2-3.3-5.6-.1-2,.4-3.9,1.4-5.6,2-3.6,5.2-5.4,9.2-5.9.6-.1,1.3-.1,1.9-.1h9.6c-.4,1.6-.8,3.2-1.2,4.7,0,.5-.2.9-.3,1.4h0ZM80.5,41.3c-.4,1.6-.9,3.2-1.3,4.8-.1.4-.3.5-.6.5-4.7,0-9.5,0-14.2-.1-1.6,0-3.2-.5-4.6-1.3-3.1-1.7-4.7-5.2-3.9-9,.6-3.1,2.3-5.4,4.8-7.3,3.2-2.5,6.9-3.9,11-3.8h5c.5,0,.8-.2.8-.7.1-.8.4-1.6.5-2.4.1-1.2-.6-2-1.8-2.2-.5-.1-1-.1-1.5-.1h-9.6c.6-2.2,1.2-4.3,1.7-6.4,0-.2.4-.3.6-.3h7.7c.9,0,1.9-.1,2.9,0,3.1.3,5.6,1.6,7,4.5.9,1.9.8,3.9.3,5.9-1.6,6-3.2,11.9-4.8,17.9h0ZM75.3,31.8c-2,0-4-.1-6,0-2.4.1-4.7,1.9-5.3,4.1-.5,2,.6,3.7,2.6,3.8,2.1.1,4.3,0,6.4.1.4,0,.5-.2.6-.5.6-2.3,1.2-4.7,1.9-7,0-.1,0-.3.1-.5-.2,0-.3,0-.3,0h0ZM42.2,36c-4.5,5.5-9.6,10.4-15.6,14.4-3.6,2.3-7.3,4.3-11.5,5.2-3,.6-6,.7-8.9-.3C2.4,53.9.1,50.7,0,46.7c-.1-4,1.2-7.5,3.2-10.9,2.5-4.1,5.7-7.5,9.4-10.4,4.4-3.5,9.1-6.3,14.5-8,1.7-.5,3.5-.9,5.4-1,1.2-.1,2.5.1,3.7.5,2.7.8,4,3.4,3.3,6.1,0,.1-.1.3-.1.5l.1.1c.5-.6,1-1.2,1.4-1.9,2-2.8,3.8-5.7,4.7-9.1.3-1.2.6-2.5.4-3.7-.4-2.4-1.9-3.8-4.1-4.5-2.3-1-4.6-.8-6.9-.4-4.4.8-8.4,2.5-12.3,4.7-1.6.9-3.2,1.9-4.8,2.9l-.4-.6c.6-.5,1.1-.9,1.7-1.4C24.6,5.5,30.4,2.4,37,.8,40.3,0,43.6-.4,46.9.4c4.4,1,7.3,4.5,7.6,9,.2,3.6-.7,6.9-2.1,10.1-2.5,6.1-6.1,11.5-10.2,16.5h0ZM33.7,19.8c-1.4-.2-2.7.1-4.1.5-5.5,1.7-9.9,5.1-13.5,9.4-1.2,1.4-2.2,3-2.7,4.8-.8,3,1,5.3,4,5.3,1.6,0,3-.4,4.4-1.1,5.1-2.4,9.3-6,13-10.2,1-1.1,1.6-2.5,2-4,.8-2.6-.4-4.4-3.1-4.7h0Z"/>
</svg>