<?xml version="1.0" encoding="UTF-8"?>
<svg xmlns="http://www.w3.org/2000/svg" version="1.1" viewBox="0 0 48.84 10">
  <!-- Generator: Adobe Illustrator 30.3.0, SVG Export Plug-In . SVG Version: 2.1.3 Build 182)  -->
  <defs>
    <style>
      .st0 {
        fill: gray;
      }
    </style>
  </defs>
  <g id="Layer_1" focusable="false">
    <path class="st0" d="M23.84,0h-8.61c-2,0-2.88,1.24-3.09,2.42V0h-4.78c-.26-.02-.52.03-.76.14-.23.12-.42.3-.56.52l-1.31,1.9h19.09s0-2.56,0-2.56ZM0,10h3.43L7.73,3.12l-3.07-.3L0,10ZM27.16,0h-2.82v2.56h2.82V0h0ZM45.09,4l-8.83-.52c0,1.34.89,2.24,2.4,2.36l6.29.48c.48.04.79.16.79.56s-.34.52-1.05.52h-8.57v2.6h8.75c2.76,0,3.97-.96,3.97-3.14,0-1.96-1.09-2.7-3.75-2.86Z"/>
    <path class="st0" d="M36.14,3.48l-2.78-.16v2.94c0,.92-.46,1.2-2.08,1.2h-2.22c-1.33,0-1.9-.38-1.9-1.2v-3.22l-2.82-.2v3.66h-.06c-.16-1.06-.57-2.3-3.25-2.48l-8.83-.58c0,1.34.97,2.14,2.48,2.3l6.15.62c.49.04.85.18.85.58,0,.44-.36.48-.93.48h-8.65v-4l-2.82-.18v6.76h11.49c2.56,0,3.39-1.32,3.51-2.42h.06c.32,1.74,1.86,2.42,4.46,2.42h2.86c3.05,0,4.48-.92,4.48-3.08v-3.44ZM48.64,2.57V0h-9.48c-1.97,0-2.86,1.21-3.02,2.38,0,.01,0,.03,0,.04V0h-2.78v2.56h15.29s0,0,0,0Z"/>
  </g>
</svg>