<?xml version="1.0" encoding="UTF-8"?>
<svg id="_图层_1" data-name="图层_1" xmlns="http://www.w3.org/2000/svg" version="1.1" viewBox="0 0 450.17 130.35">
  <!-- Generator: Adobe Illustrator 30.3.0, SVG Export Plug-In . SVG Version: 2.1.3 Build 182)  -->
  <defs>
    <style>
      .st0 {
        fill: gray;
      }
    </style>
  </defs>
  <polygon class="st0" points="142.84 120.63 142.84 79.11 131.2 79.11 131.2 130.35 173.82 130.35 170.18 120.63 142.84 120.63"/>
  <path class="st0" d="M223.14,89.31h-40.93l3.34,8.83h37.18c.63,0,1.13.51,1.13,1.13v5.21h-33.19c-6.26,0-11.34,5.08-11.34,11.34v3.19c0,6.26,5.08,11.34,11.34,11.34h43.8v-29.74c0-6.26-5.06-11.3-11.33-11.3ZM223.84,121.43h-32.76c-.63,0-1.13-.51-1.13-1.13v-5.82c0-.63.51-1.13,1.13-1.13h32.76v8.08Z"/>
  <path class="st0" d="M283.09,89.31h-26.71v-10.24h-11.64v51.28h38.35c6.26,0,11.34-5.08,11.34-11.34v-18.36c0-6.26-5.08-11.34-11.34-11.34ZM283.01,120.3c0,.63-.51,1.13-1.13,1.13h-25.5v-23.12h25.5c.63,0,1.13.51,1.13,1.13v20.86Z"/>
  <path class="st0" d="M319.54,23.53h-57.65v41.04h11.31v-30.9c0-.63.51-1.13,1.13-1.13h15.3c.63,0,1.13.51,1.13,1.13v30.9h11.37v-30.9c0-.63.51-1.13,1.13-1.13h15.08c.63,0,1.13.51,1.13,1.13v30.9h11.39v-29.7c.02-6.26-5.06-11.34-11.32-11.34Z"/>
  <path class="st0" d="M439.53,23.53v30.99c0,.63-.51,1.13-1.13,1.13h-27.22c-.63,0-1.13-.51-1.13-1.13v-30.99h-10.71v29.7c0,6.26,5.08,11.34,11.34,11.34h28.15c6.26,0,11.34-5.08,11.34-11.34v-29.7s-10.64,0-10.64,0Z"/>
  <path class="st0" d="M207.82,64.57h43.8v-29.74c.01-6.26-5.07-11.3-11.33-11.3h-40.93l3.34,8.83h37.18c.63,0,1.13.51,1.13,1.13v5.21h-33.19c-6.26,0-11.34,5.08-11.34,11.34v3.19c0,6.26,5.08,11.34,11.34,11.34ZM207.11,48.69c0-.63.51-1.13,1.13-1.13h32.76v8.08h-32.76c-.63,0-1.13-.51-1.13-1.13v-5.82h0Z"/>
  <path class="st0" d="M378.48,23.53h-26.71v-10.24h-11.64v51.28h38.35c6.26,0,11.34-5.08,11.34-11.34v-18.36c0-6.26-5.08-11.34-11.34-11.34ZM378.4,54.52c0,.63-.51,1.13-1.13,1.13h-25.5v-23.11h25.5c.63,0,1.13.51,1.13,1.13v20.85Z"/>
  <g>
    <polygon class="st0" points="53.69 130.35 100.17 130.35 100.17 66.96 53.69 48.66 53.69 130.35"/>
    <polygon class="st0" points="53.69 0 53.69 40.85 100.17 59.16 100.17 0 53.69 0"/>
    <polygon class="st0" points="0 0 0 81.69 46.47 63.39 46.47 0 0 0"/>
    <polygon class="st0" points="0 130.35 46.47 130.35 46.47 71.19 0 89.5 0 130.35"/>
  </g>
  <polygon class="st0" points="131.2 4.56 131.2 15.63 142.84 11.16 142.84 .09 131.2 4.56"/>
  <path class="st0" d="M165.61,11.16h-22.77v9.13l-11.64,4.47v39.81h41.28c.08,0,.16.01.24.01s.16-.01.24-.01c8.28-.13,14.95-6.87,14.95-15.18,0-4.69-2.12-8.87-5.46-11.66.07-.08.13-.17.19-.26,2.02-2.67,3.24-5.98,3.24-9.58,0-6.79-4.27-12.57-10.27-14.84h0c-2.75-1.18-5.89-1.85-9.16-1.89-.12,0-.54,0-.84,0ZM142.84,20.29h24.73c.73,0,1.43.16,2.07.44,2.34.92,4.01,3.2,4.01,5.88,0,0-.05.89-.14,1.32-.34,2.04-1.7,3.66-3.53,4.42-.81.37-1.7.59-2.65.59h-24.49v-12.65h0ZM169.19,55.66h-26.34v-13.64h26.34c1.55,0,2.98.53,4.12,1.4,1.63,1.25,2.69,3.21,2.69,5.42,0,3.77-3.05,6.82-6.81,6.82Z"/>
</svg>