<?xml version="1.0" encoding="UTF-8"?>
<svg id="Layer_1" xmlns="http://www.w3.org/2000/svg" version="1.1" viewBox="0 0 580 174.93">
  <!-- Generator: Adobe Illustrator 30.3.0, SVG Export Plug-In . SVG Version: 2.1.3 Build 182)  -->
  <defs>
    <style>
      .st0 {
        fill: gray;
      }
    </style>
  </defs>
  <path class="st0" d="M74.16,92.12h-35.77L1.79,55.76c-2.38-2.37-2.39-6.21-.02-8.59L48.7,0h36.85l-11.14,10.83-40.9,40.65,40.38,40.65M59.46,51.57h35.77l36.6,36.36c2.38,2.37,2.39,6.21.02,8.59l-46.93,47.17h-36.85l11.14-10.83,40.9-40.65-40.38-40.65M341.27,79.75v-20.09h-17.21v-28.34h-23.69v28.34h-14.7v20.09h14.7v32.88c0,18.28,3.6,31.72,26.05,31.3l14.09-.28v-18.84h-6.99c-9.98,0-9.42-5.82-9.42-16.62l-.04-28.46h17.22ZM580,79.75v-20.09h-17.21v-28.34h-23.69v28.34h-14.7v20.09h14.7v32.88c0,18.28,3.6,31.72,26.05,31.3l14.09-.28v-18.84h-6.99c-9.98,0-9.42-5.82-9.42-16.62l-.04-28.46h17.22ZM408.86,69.19c-2.82-3.39-6.13-6.02-9.86-7.83-4.45-2.15-9.66-3.24-15.48-3.24-7.13,0-13.52,1.76-18.98,5.22-5.46,3.46-9.79,8.35-12.86,14.52-3.06,6.16-4.62,13.39-4.62,21.5s1.64,14.92,4.87,21.12c3.24,6.22,7.72,11.18,13.34,14.74,5.62,3.57,12.04,5.38,19.06,5.38,5.3,0,10.15-1.15,14.4-3.42,3.36-1.79,6.18-4.17,8.4-7.07v9.15c0,5.67-1.49,10.02-4.42,12.92-2.94,2.9-7.41,4.36-13.29,4.36-5.06,0-9.05-1.15-11.84-3.42-2.28-1.85-4.27-4.29-4.74-9.45h-22.99c.21,7.21,2.33,12.08,5.32,16.34,3.36,4.77,8.07,8.51,14.04,11.08,5.91,2.55,12.76,3.84,20.37,3.84,12.77,0,22.93-3.21,30.21-9.53,7.32-6.36,11.03-15.26,11.03-26.46V59.66h-21.94v9.53ZM404.66,110.52c-1.51,3.12-3.65,5.57-6.35,7.26-2.7,1.69-5.96,2.56-9.7,2.56-5.4,0-9.6-1.84-12.84-5.62-3.23-3.76-4.87-8.93-4.87-15.36s1.64-11.6,4.87-15.37c3.2-3.73,7.52-5.62,12.84-5.62s10.01,1.92,13.32,5.71c3.33,3.82,5.03,9.02,5.03,15.43,0,4.16-.77,7.86-2.29,11.01h0ZM278.25,31.32h-24.85v20.25h24.85v-20.25ZM513.31,72.3c-3.77-4.49-8.51-8.02-14.06-10.47-5.55-2.45-11.79-3.7-18.55-3.7-8.28,0-15.74,1.88-22.2,5.58-6.47,3.72-11.61,8.88-15.27,15.35-3.66,6.47-5.52,13.97-5.52,22.3s1.8,16.33,5.35,22.9c3.56,6.59,8.67,11.76,15.2,15.37,6.52,3.6,14.17,5.42,22.75,5.42,10.53,0,19.47-2.65,26.58-7.87,6.84-5.03,11.55-12.12,14.11-21h-24.01c-1.26,3.02-3.04,5.59-5.59,7.41-3.01,2.14-6.9,3.22-11.57,3.22-4.04,0-7.51-.98-10.3-2.92-2.8-1.94-4.94-4.8-6.35-8.52-.84-2.21-1.44-4.75-1.79-7.58h60.03l.12-.75c1.07-6.77.8-13.19-.81-19.08-1.62-5.9-4.35-11.17-8.12-15.66h0ZM462.48,92.23c.37-1.71.86-3.49,1.49-5.11,1.46-3.77,3.58-6.67,6.28-8.61,2.7-1.94,6.05-2.92,9.98-2.92,4.92,0,8.95,1.59,11.99,4.73,2.88,2.98,4.52,7.06,4.87,11.9h-34.61ZM277.76,59.66h-23.85v84h23.85V59.66ZM227.32,84.88c4.36-2.48,7.86-5.56,10.4-9.2,2.9-4.14,4.37-8.87,4.37-14.05,0-9.7-3.63-17.27-10.77-22.5-7.06-5.17-16.77-7.79-28.88-7.79h-43.78v112.34h45.53c12.75,0,22.96-2.96,30.34-8.82,7.44-5.9,11.22-14.16,11.22-24.56,0-6.33-1.78-11.78-5.27-16.19-3.14-3.94-7.56-7.04-13.15-9.22h0ZM182.36,51.58h18.18c5.7,0,10.01,1.11,12.81,3.28,2.76,2.15,4.11,4.97,4.11,8.62s-1.34,6.62-4.11,8.77c-2.8,2.17-7.1,3.28-12.8,3.28h-18.18v-23.95ZM216.59,119.61c-3.15,2.53-7.96,3.8-14.3,3.8h-19.93v-27.49h19.93c6.33,0,11.15,1.24,14.32,3.66,3.14,2.42,4.66,5.61,4.66,9.78,0,4.38-1.53,7.73-4.68,10.25h0Z"/>
</svg>