<?xml version="1.0" encoding="utf-8"?>
<!-- Generator: Adobe Illustrator 30.3.0, SVG Export Plug-In . SVG Version: 9.03 Build 0)  -->
<svg version="1.0"
	 id="svg2" xmlns:sodipodi="http://sodipodi.sourceforge.net/DTD/sodipodi-0.dtd" xmlns:dc="http://purl.org/dc/elements/1.1/" xmlns:svg="http://www.w3.org/2000/svg" xmlns:inkscape="http://www.inkscape.org/namespaces/inkscape" xmlns:cc="http://creativecommons.org/ns#" xmlns:rdf="http://www.w3.org/1999/02/22-rdf-syntax-ns#"
	 xmlns="http://www.w3.org/2000/svg" xmlns:xlink="http://www.w3.org/1999/xlink" x="0px" y="0px" viewBox="0 0 399.46 169.22"
	 style="enable-background:new 0 0 399.46 169.22;" xml:space="preserve">
<style type="text/css">
	.st0{fill:#808080;}
</style>
<sodipodi:namedview  bordercolor="#666666" borderopacity="1" gridtolerance="10" guidetolerance="10" id="namedview11" inkscape:current-layer="svg2" inkscape:cx="442.91339" inkscape:cy="187.62988" inkscape:pageopacity="0" inkscape:pageshadow="2" inkscape:window-height="722" inkscape:window-maximized="1" inkscape:window-width="1280" inkscape:window-x="-8" inkscape:window-y="20" inkscape:zoom="0.52902657" objecttolerance="10" pagecolor="#ffffff" showgrid="false">
	</sodipodi:namedview>
<defs>
	
		<inkscape:perspective  id="perspective15" inkscape:persp3d-origin="478.34644 : 148.70079 : 1" inkscape:vp_x="0 : 223.05118 : 1" inkscape:vp_y="0 : 1000 : 0" inkscape:vp_z="956.69287 : 223.05118 : 1" sodipodi:type="inkscape:persp3d">
		</inkscape:perspective>
</defs>
<g id="layer1" transform="matrix(0.45094353,0,0,0.45094353,357.14835,54.396579)">
	<g id="g2414" transform="translate(35.43305,35.421298)">
		<path id="path7" class="st0" d="M-755.77,173.48c-12.05,0-25.61,0-25.61,0V94.62c0,0,13.15,0,25.61,0
			c17.55,0,25.68,13.08,25.68,36.5C-730.1,163.27-739.85,173.48-755.77,173.48 M-781.38-19.8c0,0,12.94,0,24.98,0
			c12.9,0,23.34,9.49,23.34,35.64c0,26.42-12.06,35.56-23.34,35.56c-12.46,0-24.98,0-24.98,0V-19.8z M-713.04,70.03v-0.22
			c10.15-7.13,26.38-19.38,26.38-58.78c0-50.9-26.56-73.95-62.43-73.95c-12.15,0-78.35,0-78.35,0v279.49c0,0,43.67,0,77.94,0
			c44.17,0,65.68-32.74,65.68-81.53C-683.81,89.52-701.67,76.95-713.04,70.03L-713.04,70.03z"/>
		<path id="path9" class="st0" d="M-599.12-19.8c0,0,12.93,0,24.98,0c12.9,0,23.3,9.49,23.3,35.64c0,26.42-12.03,35.56-23.3,35.56
			c-12.46,0-24.98,0-24.98,0V-19.8 M-505.25,123.03c0-34.83-10.81-44.61-25.53-53.01v-0.22c10.15-7.13,26.24-19.38,26.24-58.78
			c0-50.9-26.42-73.95-62.29-73.95c-12.16,0-78.35,0-78.35,0v279.49h46.02l0.03-121.95c0,0,12.53,0,24.98,0
			c13.1,0,22.46,10.88,22.46,35.59v86.37h46.41L-505.25,123.03L-505.25,123.03z"/>
		<path id="path11" class="st0" d="M-415.47-88.18c0-21.02,19.29-23.73,29.96-23.73c10.66,0,29.88,2.66,29.88,23.73l-0.02,139.58
			h-59.85L-415.47-88.18 M-385.52-156.05c-19.47,0-75.94,4.41-75.94,60.93v311.73h46.04V94.64h59.78l-0.02,121.92h46.08V-95.12
			C-309.56-151.74-366.11-156.05-385.52-156.05L-385.52-156.05z"/>
		<path id="path13" class="st0" d="M-171.65-62.98v220.02c0,11.2-9.26,18.68-23.01,18.68c-13.82,0-22.9-7.49-22.9-18.68
			l-0.04-220.02l-46.03,0.06l-0.01,227.31c0,43.28,44.49,54.82,69.03,54.82c24.31,0,69-11.6,69-54.87V-62.98L-171.65-62.98"/>
		<path id="path15" class="st0" d="M12.36,216.53L12.35-3.39c0-11.2-9.25-18.68-23-18.68c-13.82,0-22.92,7.5-22.92,18.68
			l-0.01,219.92l-46.04,0.04V-10.74c0-43.28,44.5-54.82,69.04-54.82c24.31,0,68.98,11.6,68.98,54.87v227.22L12.36,216.53"/>
	</g>
</g>
</svg>
