<?xml version="1.0" encoding="UTF-8"?>
<svg id="Layer_1" xmlns="http://www.w3.org/2000/svg" version="1.1" viewBox="0 0 66 15.07">
  <!-- Generator: Adobe Illustrator 30.3.0, SVG Export Plug-In . SVG Version: 2.1.3 Build 182)  -->
  <defs>
    <style>
      .st0, .st1 {
        fill: gray;
      }

      .st1 {
        fill-rule: evenodd;
      }
    </style>
  </defs>
  <path class="st0" d="M17.54,14.7c0,.2.16.37.37.37h2.17c.2,0,.37-.16.37-.37v-6.85c0-.76.62-1.38,1.38-1.38h6.17c.2,0,.37-.16.37-.37v-1.67c0-.2-.16-.37-.37-.37h-7.14c-1.82,0-3.3,1.48-3.3,3.3v7.33Z"/>
  <path class="st0" d="M32.89,14.7V4.43c0-.2-.16-.37-.37-.37h-2.18c-.2,0-.37.16-.37.37v10.27c0,.2.16.37.37.37h2.18c.2,0,.37-.16.37-.37Z"/>
  <path class="st0" d="M32.89,2.41V.37c0-.2-.16-.37-.37-.37h-2.18c-.2,0-.37.16-.37.37v2.04c0,.2.16.37.37.37h2.18c.2,0,.37-.16.37-.37Z"/>
  <path class="st1" d="M2.58,0c.2,0,.37.16.37.37v3.69h8.99c1.82,0,3.3,1.48,3.3,3.3v4.4c0,1.82-1.48,3.3-3.3,3.3H3.3c-1.82,0-3.3-1.48-3.3-3.3V.37c0-.2.16-.37.37-.37h2.21ZM4.32,12.65c-.76,0-1.38-.62-1.38-1.38v-4.79h8.01c.76,0,1.38.62,1.38,1.38v3.41c0,.76-.62,1.38-1.38,1.38h-6.64Z"/>
  <path class="st0" d="M35.34,7.36l-.02,7.34c0,.2.16.37.37.37h2.19c.2,0,.37-.16.37-.37v-6.7c0-.76.62-1.38,1.38-1.38h6.82c.76,0,1.38.62,1.38,1.38v6.7c0,.2.16.37.37.37h2.18c.2,0,.37-.16.37-.37v-7.33c0-1.82-1.48-3.3-3.3-3.3h-8.79c-1.82,0-3.3,1.47-3.3,3.29Z"/>
  <path class="st0" d="M65.63,4.07c.2,0,.37.16.37.37v1.69c0,.2-.16.37-.37.37h-8.63c-.76,0-1.38.62-1.38,1.38v3.4c0,.76.62,1.38,1.38,1.38h8.63c.2,0,.37.16.37.37v1.69c0,.2-.16.37-.37.37h-9.64c-1.82,0-3.3-1.48-3.3-3.3v-4.39c0-1.82,1.48-3.3,3.3-3.3h9.64Z"/>
</svg>