<?xml version="1.0" encoding="UTF-8"?>
<svg id="Layer_1" xmlns="http://www.w3.org/2000/svg" version="1.1" viewBox="0 0 900 420">
  <!-- Generator: Adobe Illustrator 30.3.0, SVG Export Plug-In . SVG Version: 2.1.3 Build 182)  -->
  <defs>
    <style>
      .st0 {
        fill: gray;
      }
    </style>
  </defs>
  <path class="st0" d="M120,210c0-49.71,40.29-90,90-90h70v-50h-70c-77.2,0-140,62.8-140,140s62.8,140,140,140h128.3c6.45,0,11.7-5.25,11.7-11.7V81.7c.01-8.48,3.33-16.44,9.32-22.42,5.98-5.96,13.93-9.25,22.38-9.25h.06c11.27.02,21.78,6.1,27.41,15.87l159.02,278.23c1.54,2.68,4.06,4.61,7.08,5.42,3.02.81,6.17.4,8.88-1.16,3.61-2.08,5.85-5.95,5.86-10.12V81.7c.01-8.48,3.33-16.44,9.32-22.42,5.98-5.96,13.93-9.25,22.38-9.25h.06c11.27.02,21.78,6.1,27.41,15.87l159.02,278.23c1.54,2.68,4.06,4.61,7.08,5.42,3.02.81,6.17.4,8.88-1.16,3.61-2.08,5.85-5.95,5.86-10.12V0h-50v194.1l-87.4-152.9C678.06,15.81,651.06.13,621.8.1c-45.12-.05-81.74,36.48-81.8,81.6v112.4l-87.4-152.9C438.06,15.81,411.06.13,381.8.1c-45.12-.05-81.74,36.48-81.8,81.6v206.6c0,6.46-5.24,11.7-11.7,11.7h-78.3c-49.71,0-90-40.29-90-90Z"/>
  <path class="st0" d="M850,0v338.3c-.02,11.29-6.1,21.8-15.87,27.43-7.34,4.23-15.88,5.35-24.06,3.15-8.18-2.2-15.01-7.45-19.24-14.78l-159.02-278.23c-2.06-3.57-5.94-5.82-10.1-5.82h-.02c-3.12,0-6.05,1.21-8.26,3.41-2.21,2.21-3.44,5.14-3.44,8.27v256.58c-.02,11.29-6.1,21.8-15.87,27.43-7.34,4.23-15.88,5.35-24.06,3.15-8.18-2.2-15.01-7.45-19.24-14.78L391.82,75.86c-2.06-3.57-5.94-5.82-10.1-5.82h-.02c-3.12,0-6.05,1.21-8.26,3.41-2.21,2.21-3.44,5.14-3.44,8.27v256.58c0,17.48-14.22,31.7-31.7,31.7h-128.3c-88.22,0-160-71.78-160-160S121.78,50,210,50h70V0h-70C94.02,0,0,94.02,0,210s94.02,210,210,210h128.3c45.12,0,81.7-36.58,81.7-81.7v-112.4l87.4,152.9c14.54,25.39,41.54,41.07,70.8,41.1,45.12.05,81.74-36.48,81.8-81.6v-112.4l87.4,152.9c14.54,25.39,41.54,41.07,70.8,41.1,45.12.05,81.74-36.48,81.8-81.6V0h-50Z"/>
</svg>