<?xml version="1.0" encoding="UTF-8"?>
<svg id="Layer_1" xmlns="http://www.w3.org/2000/svg" version="1.1" viewBox="0 0 615.08 192.94">
  <!-- Generator: Adobe Illustrator 30.3.0, SVG Export Plug-In . SVG Version: 2.1.3 Build 182)  -->
  <defs>
    <style>
      .st0 {
        fill: gray;
      }
    </style>
  </defs>
  <path class="st0" d="M430.88,14.81s-11.53,4.59-24.94,19.37-21.22,31.4-15.44,35.82c2.22,1.68,7.34,2,16.63-6.4,8.57-7.44,15.3-16.78,19.66-27.26,6-14.63,4.09-21.35,4.09-21.51M504.27,41.4c-14.9-7.64-25.79-17-37.12-22.79-10.81-5.55-17.8-7.87-26.54-6.7-1.22.22-2.42.52-3.6.9,0,0,4.5,15.37-13.41,41.19-18.14,26.18-34.6,26-39.28,18.81-4.9-7.59,1.43-23.06,12-36.83,11.07-14.4,30.51-26.34,30.51-26.34,0,0-6.2-3.79-21.42,4.84-14.85,8.38-40.41,28.38-64.13,62.11s-28.42,52.29-31.82,66.9-.31,30.26,15.89,30.26,35.06-24.71,40.38-33.3c9.89-16,16.34-40.54,2.88-37.17-6.63,1.66-12,9-15.39,16.07-2.14,4.54-3.78,9.3-4.88,14.2-4.7,1.94-9.12,4.51-13.13,7.64-4.46,3.3-8.63,6.98-12.46,11,0,0,.06-11.68,9.37-30.58s26.4-27.53,36.08-28.34c8.72-.7,20.07,6.7,10.45,34s-38,60.49-67.81,60.9c-27.51.38-45.51-34.73-7.22-96C346,24.48,395.71,3.71,411.85,1.4s21.39,4.81,21.39,4.81c9.72-3.99,20.21-5.72,30.69-5.06,19.71,1.33,34.95,15.28,55.07,25.08-5.23,5-10.22,10.25-14.72,15.17M592.82,18.61c-13.66,8.76-32.56,16.7-50.72,15-4.6,4.75-9.52,10.25-14.45,16.25,31.49,6.23,59.08-13.28,73.75-29.89,5.35-5.97,9.94-12.58,13.68-19.67-6.68,6.96-14.15,13.1-22.27,18.31M550.88,107.33c.24-.42.43-.85.58-1.31-.19-1.49-1.4-2.64-2.89-2.76-3-.14-7.09.43-17.82,12.31-8.9,9.81-16.56,20.68-22.81,32.36-6.14,11.22-8.63,19.58-5.1,21.74,1.15.59,2.48.73,3.72.38,2.39-.57,5.1-2.81,9.22-7.58,1.93-2.24,4.07-5.41,6.63-8.92,7.1-9.66,24.94-40.07,28.47-46.22M439.42,120.25c1.79-4.68,4.07-13.87-.67-17.48-5.09-3.83-18.07,5.16-18.14,14.38-.09,9.44,9.14,13.71,11.35,14.31,1.26.34,1.7.29,2.31-.72,1.96-3.37,3.68-6.88,5.15-10.49M429.6,137.42c-3.22-1.49-6.22-3.4-8.92-5.69-2.71-2.27-4.98-5.03-6.68-8.13-.18-.3-.36-.07-.56.2s-1,1-7.92,11.14c-6.92,10.14-17.55,31.15-7.93,34.73,6.16,2.29,16.41-8.5,22-15.65,3.81-4.99,7.26-10.24,10.33-15.72.29-.61,0-.75-.31-.88M538.73,161.69c-2.61,4.18-5.59,12.2,3,7.21,10.51-6.07,25.48-28.78,25.48-28.78h6.79c-6.18,9.5-13.06,18.52-20.58,27-10.65,11.8-23.64,22.52-32.79,21.46-10.69-1.25-7.34-15.28-7.34-15.28,0,0-15.29,16.28-25.87,15.11-14.29-1.58-9.93-19.24-9.93-19.24,0,0-16.16,19.83-27.17,19.22-17.26-1-12.92-22-8.12-36.79,2.57-7.91,4.95-14.12,4.95-14.12,0,0-1.71.45-5.39,1-1.92.27-5.42.47-5.42.47,0,0-7.19,12.68-12.94,20.3s-30.19,33.89-44.57,28.63c-13.3-4.86-8.9-25.22-1.16-41.4,11.3-23.59,43.08-57.48,61.41-53,19,4.61.43,39.28.43,39.28,0,0,0,.13.2.22.38.14,1.37.25,3.66-.2,2.37-.48,4.7-1.18,6.95-2.07,0,0,19.1-40,40.2-66.17s63.19-71.24,79.71-60.34c4,2.68,2.2,11.91-3.24,23.11-2.45.8-4.94,1.46-7.46,2,3.64-6.61,6.05-12.18,6.77-16.07,2.49-13.52-29.08,15-51.64,45.64-13.59,18.47-25.66,38.01-36.1,58.43,4.08-2.49,7.97-5.26,11.64-8.31,10.06-8.34,19.63-17.27,28.64-26.74,8.68-8.89,16.82-18.28,24.38-28.14,2.4-.12,4.8-.36,7.17-.74-8.24,11.19-17.23,21.8-26.9,31.78-9,9.1-18.74,18.89-27.2,26-7.56,6.43-15.53,12.35-23.86,17.73,0,0-19.73,39.79-9,42.34,6.31,1.52,18.77-17.67,18.77-17.67,0,0,16.26-24.81,26.06-36,13.37-15.2,24.88-24,36.38-24.16,6.7-.12,10.65,7,10.65,7l3.15-4.88h19.4s-36.23,61.48-39.13,66.11M592.81,18.61c-13.66,8.76-32.56,16.7-50.72,15-4.6,4.75-9.52,10.25-14.45,16.25,31.49,6.23,59.08-13.28,73.75-29.89,5.35-5.97,9.95-12.58,13.69-19.67-6.68,6.96-14.15,13.1-22.27,18.31M320.36,48.77h-18.45l-10.43,16.85h18.45l10.43-16.85ZM233,107.12c7.85-10.76,29.51-48.47,29.51-48.47-.19-1.48-1.39-2.64-2.88-2.76-3-.14-8,.87-17.93,13.3s-17.64,22.32-23.26,32.61c-6.16,11.23-8.85,19.15-5.31,21.3,1.15.58,2.47.71,3.71.38,2.3-.58,5.31-2.89,9.44-7.64,1.94-2.22,4.14-5.21,6.72-8.72M134,56.12c-5.1-3.85-18.07,5.16-18.14,14.36-.08,9.45,11.67,12.34,13.19,12.41.45.04.9-.06,1.29-.27.27-.16.49-.4.62-.68,1.38-2.71,2.62-5.5,3.72-8.34,1.79-4.68,4.06-13.87-.68-17.48M126.31,88.65c-3.52-1.1-6.88-2.64-10-4.6-3.03-1.97-5.49-4.7-7.14-7.91-.18-.3-.38-.07-.56.2s-1.22,1.57-8.16,11.75-17.22,31-7.59,34.58c6.14,2.33,16.51-8.55,22.14-15.67,4.21-5.6,8.11-11.42,11.66-17.46.23-.61,0-.75-.34-.86M277,94.92h6.76s-33.87,49-53,46.72c-10.68-1.25-7.51-14.43-7.51-14.43,0,0-15,17.56-28.78,14-12.5-3.21-4.43-24-4.43-24-1.42.57-28.47,31.06-47.48,23.75-19.89-7.68-9.56-33.21-5.78-40.89,3.21-6.47,6.76-12.77,6.76-12.77,0,0-3.05.86-5,1.3s-4.77,1-4.77,1c0,0-9.41,15.29-15.16,22.92s-30.19,33.85-44.59,28.63-10.83-25.37-2.74-41.37c13.12-25.95,44.25-57.84,63-53,18.94,4.83,3.26,35.55,3.26,35.55,0,0,3.77.49,12.8-5.67,13-8.87,30.16-32.73,48.74-29.93,8.76,1.32,16.92,10.27,5.76,27.27-3.56,5.46-9.53,10.34-14.1,5.51-2.85-3-.36-8.47,2.63-12.21,2.36-3.1,6.11-4.81,10-4.58,0,0,3.07-7-4.74-6.9-6.32.12-22.32,14.85-31.35,29.73-8.28,13.66-20.83,36.93-8.23,42,11.55,4.66,33.53-21.43,43.71-35.1s33.38-44.65,52.84-45.89c6.7-.44,10.69,5.67,10.69,5.67l2.25-3.56h19.46s-36.65,61.16-39.51,65.79c-2.25,3.62-5.24,11.76,3,7.2s25.51-26.74,25.51-26.74M266.41,192.92c-14.33-9.92-31.49-14.93-48.9-14.27-9.56.26-18.42,5.06-23.86,12.93-7.42-12.95-22.09-20.9-44.77-20.72-36.65.42-73,17.32-101.8,17.3-27.6,0-47.73-17.35-47.08-48.16C1.21,85.93,46.9,37.24,81,15.33,100.66,2.74,117.1-1,127.85.21c7.84.87,17.27,9.93,11.32,23.28-8.74,19.51-20.81,17.91-20.36,8.58.25-6.07,4.29-9.89,7.33-12,1.93-1.33,5.34-1.71,7.12-1.75,1.73-1.46,3-12.14-11-8.63s-31,17.31-47.14,35.14-41.27,51.53-47.48,86.92c-2.9,16.41-1,46.34,37.91,46,33-.27,81.64-22,126.34-21.55,17.35.17,32.45,4.85,44.22,12.11,11.56,7.12,25.42,17.52,30.34,24.62"/>
</svg>