<?xml version="1.0" encoding="UTF-8"?>
<svg id="Layer_1" xmlns="http://www.w3.org/2000/svg" version="1.1" viewBox="0 0 42 24">
  <!-- Generator: Adobe Illustrator 30.3.0, SVG Export Plug-In . SVG Version: 2.1.3 Build 182)  -->
  <defs>
    <style>
      .st0 {
        fill: gray;
        fill-opacity: .85;
        fill-rule: evenodd;
      }
    </style>
  </defs>
  <path class="st0" d="M32.55,4.88c-.7,2.61-1.4,5.23-2.09,7.85-.34,1.31-.68,2.62-1.07,3.91-.38,1.26-.85,2.6-1.54,3.74-.72,1.19-1.64,2.12-2.93,2.72-.51.24-1.04.4-1.59.52-.78.17-1.57.23-2.36.28-1.97.11-6.15.09-8.12.09l1.21-4.47c.91,0,1.83,0,2.74-.02.88-.02,1.85-.07,2.72-.28.95-.22,1.67-.61,2.3-1.38.57-.7.96-1.58,1.27-2.41.58-1.51,1.17-3.68,1.58-5.24.47-1.77.92-3.54,1.38-5.3h6.51ZM40.68,4.88l-3.51,13.02h-6.51l3.51-13.02h6.51ZM19.22,0h6.51c-.68,2.54-1.36,5.08-2.05,7.62-.48,1.77-.96,3.54-1.48,5.3-.23.77-.45,1.53-.75,2.27-.24.6-.51,1.13-1,1.58-.37.33-.77.54-1.24.69-.6.19-1.22.26-1.84.31-.9.07-1.8.09-2.7.11-2.07.03-5.83.03-7.9.02-.74,0-1.49,0-2.23-.02-.54,0-1.08-.02-1.62-.06-.36-.02-.72-.05-1.07-.12-.24-.04-.47-.1-.7-.2C.4,17.17.02,16.52,0,15.73c-.01-.45.07-.89.16-1.32.13-.62.29-1.23.45-1.85.3-1.17.86-3.33,1.29-4.47.34-.89.79-1.78,1.64-2.34.48-.32.98-.48,1.53-.59.41-.08.82-.13,1.23-.16.69-.05,1.39-.07,2.08-.08.99-.02,1.98-.02,2.96-.02h2.47s2.47,0,2.47,0l-.88,3.25c-1.47,0-2.93,0-4.4,0-.43,0-.85,0-1.28.03-.15,0-.3.02-.45.07-.19.07-.29.19-.37.36-.12.25-.2.52-.27.79-.12.41-.23.82-.34,1.24-.17.64-.34,1.27-.51,1.91-.06.24-.12.47-.17.71-.04.17-.07.33-.08.5-.02.19-.02.41.09.58.11.18.31.22.49.24.2.03.41.04.62.04.34.01.67.01,1.01.01.92,0,1.85,0,2.77,0,.43,0,.85,0,1.28-.02.29-.01.58-.02.87-.09.22-.05.39-.14.54-.32.1-.12.17-.26.23-.4.15-.35.25-.72.36-1.09.42-1.41.79-2.82,1.17-4.24l1.14-4.24,1.14-4.25h6.51-6.51Z"/>
</svg>