<?xml version="1.0" encoding="UTF-8"?>
<svg id="layer" xmlns="http://www.w3.org/2000/svg" version="1.1" viewBox="0 0 600 64.1">
  <!-- Generator: Adobe Illustrator 30.3.0, SVG Export Plug-In . SVG Version: 2.1.3 Build 182)  -->
  <defs>
    <style>
      .st0 {
        fill: gray;
      }
    </style>
  </defs>
  <path class="st0" d="M72.1,10.7H0V0h72.1v10.7ZM72,37.4H0v-10.7h72v10.7ZM72,53.4v10.7H0v-10.7h72ZM149.7,10.8l-25.7.1c-17.2,0-25.3,7-25.3,21.2s8.1,21.3,25.2,21.3h36v10.6l-36,.1c-24,0-36-10.6-36-31.8S99.8.4,123.6.3h36.4v10.7c0-.2-10.3-.2-10.3-.2ZM211.7.2c24.2,0,36.2,10.6,36.2,31.9s-12,31.9-36,31.9-36-10.6-36-31.8c.1-21.3,12-31.9,35.8-32h0ZM237.1,32.1c0-14.2-8-21.2-25.2-21.2s-25.1,7-25.1,21.2,7.9,21.3,25.1,21.3,25.2-7.1,25.2-21.3ZM589.7.2v53.1h-20.6V.1h-10.3v53.2h-20.6V0h-10.3v64h61.8c7.7,0,10.3-4.1,10.3-10.6V.1l-10.3.1h0ZM424,53.4h-54.1c-4.2,0-7.7-3.4-7.7-7.7V.1h-10.2v48.4c0,8.6,6.9,15.5,15.5,15.5h56.5v-10.6h0ZM475.6.2c24.2,0,36.2,10.6,36.2,31.9s-12,31.9-36,31.9-36-10.6-36-31.8c.1-21.3,12-31.9,35.8-32h0ZM501.1,32.1c0-14.2-8-21.2-25.2-21.2s-25.1,7-25.1,21.2,7.9,21.3,25.1,21.3,25.2-7.1,25.2-21.3ZM266.3,0h70.8v10.1h-70.8V0ZM337.1,37.6h-60.7v26.4h-10.1V26.9h70.8v10.7h0Z"/>
</svg>