<?xml version="1.0" encoding="UTF-8"?>
<svg id="_レイヤー_1" data-name="レイヤー_1" xmlns="http://www.w3.org/2000/svg" xmlns:x="ns_extend;" version="1.1" viewBox="0 0 278.7 46.7">
  <!-- Generator: Adobe Illustrator 30.3.0, SVG Export Plug-In . SVG Version: 2.1.3 Build 182)  -->
  <defs>
    <style>
      .st0 {
        fill: gray;
      }
    </style>
  </defs>
  <path class="st0" d="M212.5.2v36.3c0,2.4,1.1,3.6,3.5,3.6h12v4.1c0,.5-.3.8-.8.8h-19.4c-6,0-7-3.3-7-6.3V2.7c0-1.7.6-2.5,2.7-2.5h9"/>
  <path class="st0" d="M190.2.2v42.5c0,1.9-.8,2.4-2.4,2.4h-9.2V2.5c0-1.4.5-2.4,2.5-2.4h9.1"/>
  <path class="st0" d="M0,6.3C0,2.8,0,.1,5.7.1h24.6v4.3c0,.3-.2.6-.6.6h-14.8c-1.9.1-2.9,1-2.9,3.1v11.4h17.4v4.5c0,.5-.3.6-.6.6H12v18c0,1.7-.9,2.4-2.8,2.4H0V6.3"/>
  <path class="st0" d="M48.2.2v34.3c0,3,.5,5.1,2.5,6.2,2.7,1.6,7.4,1.6,10.3,0,1.9-1.1,2.7-2.8,2.7-6.2V2.4c0-1.4.5-2.2,2.5-2.2h9v33.2c0,7.7-4.9,10.9-9.2,12-5.7,1.6-14.4,1.6-19.8,0-6.5-1.9-9.5-5.7-9.5-12V2.4c.1-1.5.6-2.4,2.3-2.4h9.2"/>
  <path class="st0" d="M265.8.2c-2.2,0-3.6,1.1-4.1,3.2l-7.3,31h-.2L246.5.3h-10.3c-2.1,0-2.7.9-2.7,2.7v42.3h4.4c.6,0,.9-.3.9-1.1V8.5h.6l9.3,36.5h6.2c2.4,0,3.2-.9,3.8-3.2l8.4-33.3h.6v36.5h8.2c2.1,0,2.8-.8,2.8-2.7V.2h-12.9"/>
  <path class="st0" d="M129.7,24.5h-11.5v20.5h9.2c1.6,0,2.4-.5,2.4-2.4-.1.1-.1-8.6-.1-18.1"/>
  <path class="st0" d="M129.1,15.8c.5-.3.6-.6.6-1.3V.2h-9c-2.1,0-2.5.9-2.5,2.4v21.8l10.9-8.6"/>
  <path class="st0" d="M89.6,41.6c5.1-.6,6.6-3.6,6.6-8.1V2.5c0-1.9.9-2.4,2.2-2.4h9.2v29.2c0,7.1-1.6,10.7-5.7,13.9-2.2,1.6-6,3.5-14.5,3.5-4.7,0-7-.3-7.3-.3-.5-.2-.6-.3-.6-.6v-3.8c2.3-.1,6.8,0,10.1-.4"/>
  <path class="st0" d="M147.3.2c-5.7,0-5.7,2.8-5.7,6.2v11.5c0,.3-.2.3-.2.5l-7.9,6.2h8.1v20.4h9.2c1.9,0,2.8-.6,2.8-2.4v-18.1h16.7c.3,0,.6-.2.6-.6v-4.6h-17.4V7.9c0-2.1.9-3,3-3h14.9c.5,0,.6-.3.6-.6V.2h-24.7"/>
</svg>