<?xml version="1.0" encoding="UTF-8"?>
<svg id="Layer_1" xmlns="http://www.w3.org/2000/svg" version="1.1" viewBox="0 0 442.98 119.08">
  <!-- Generator: Adobe Illustrator 30.3.0, SVG Export Plug-In . SVG Version: 2.1.3 Build 182)  -->
  <defs>
    <style>
      .st0 {
        fill: gray;
      }
    </style>
  </defs>
  <path class="st0" d="M283.02,53.45c2.77-5.82-1.66-12.46-8.03-12.74-3.6,0-6.92,1.94-8.31,5.26-4.98,11.35-16.34,36.83-20.22,45.69-.28.28-.28.83-.55,1.11-.28.55-.83.83-1.39,1.11h-.55c-.55,0-1.11-.28-1.39-1.11-.28-.28-.28-.83-.55-1.11-3.88-8.86-15.23-34.62-20.22-45.69-1.38-3.32-4.71-5.26-8.31-5.26-6.37,0-10.8,6.65-8.03,12.74,4.15,8.86,24.37,54,25.75,57.32,1.66,3.6,4.15,6.37,7.75,7.48,1.66.55,3.05.83,4.99.55,1.66,0,3.32-.28,4.98-.55,3.88-1.11,6.37-3.88,7.75-7.48,1.66-3.05,22.15-48.46,26.31-57.32"/>
  <path class="st0" d="M167.82,40.99c-21.88-.28-39.6,16.89-39.88,38.49-.28,21.32,16.89,39.05,38.49,39.32,21.88.28,39.32-16.89,39.6-38.49,0-21.32-17.17-39.05-38.22-39.32M166.99,102.19c-12.18,0-22.15-9.97-22.15-22.43s9.97-22.15,22.43-22.15,22.15,9.97,22.15,22.15c-.28,12.46-10.25,22.43-22.43,22.43"/>
  <path class="st0" d="M359.18,66.19c-.28-.55-.28-1.11-.55-1.38-6.09-14.4-20.22-23.82-36-23.82-21.6,0-39.05,17.45-39.05,39.05s17.45,39.05,39.05,39.05c14.12,0,27.14-7.75,34.06-20.21,2.21-4.16.83-9.14-3.32-11.36-4.15-2.21-9.14-.83-11.35,3.32-3.88,7.2-11.36,11.63-19.66,11.63-7.48,0-13.85-3.6-18-9.14l49.29-16.06h.28c4.71-1.94,6.92-6.92,5.26-11.08M322.62,57.33c6.37,0,11.91,2.49,16.06,6.92l-38.22,12.46c1.66-10.8,11.08-19.38,22.15-19.38"/>
  <path class="st0" d="M19.39,40.15l.55.28c4.71,2.49,10.25.83,13.29-3.32,6.92-9.42,18-15.51,30.46-15.51,8.86,0,17.17,3.05,23.54,8.31,3.88,3.05,9.14,3.05,13.02,0l.55-.55c4.99-4.15,5.26-11.91,0-16.06C90.56,4.99,77.54,0,63.42,0,43.48,0,26.03,9.69,15.23,24.65c-3.32,5.54-1.39,12.74,4.15,15.51"/>
  <path class="st0" d="M112.43,49.02h-58.43c-5.82,0-10.52,4.71-10.52,10.52s4.71,10.52,10.52,10.52h45.97c-3.88,13.57-15.51,24.09-29.63,26.59-.83.28-1.94.28-3.05.28-13.85,1.39-26.58-4.99-34.06-15.23-3.32-4.16-8.86-5.82-13.57-3.32-5.81,3.05-7.48,10.52-3.6,16.06,10.8,14.68,27.97,24.09,47.63,24.09,32.68,0,59.26-26.59,59.26-59.26,0-5.54-4.98-10.25-10.52-10.25"/>
  <path class="st0" d="M26.03,59.54c0-7.2-5.81-13.02-13.02-13.02S0,52.62,0,59.54s5.82,13.02,13.02,13.02,13.02-5.82,13.02-13.02"/>
  <path class="st0" d="M437,87.23c-4.15-2.22-9.14-.83-11.36,3.32-3.88,7.2-11.35,11.63-19.66,11.63-7.48,0-13.85-3.6-18-9.14l49.29-16.06h.28c4.43-1.66,6.37-6.37,4.98-10.8-.28-.55-.28-1.11-.55-1.38-6.09-14.4-20.22-23.82-36-23.82-21.6,0-39.05,17.45-39.05,39.05s17.45,39.05,39.05,39.05c14.12,0,27.14-7.75,34.06-20.21,2.22-4.16.83-9.42-3.05-11.63M405.98,57.33c6.37,0,11.91,2.49,16.06,6.92l-38.22,12.46c1.38-10.8,10.8-19.38,22.15-19.38"/>
</svg>