<?xml version="1.0" encoding="UTF-8"?>
<svg id="Layer_1" xmlns="http://www.w3.org/2000/svg" xmlns:serif="http://www.serif.com/" version="1.1" viewBox="0 0 1895.4 148.5">
  <!-- Generator: Adobe Illustrator 30.3.0, SVG Export Plug-In . SVG Version: 2.1.3 Build 182)  -->
  <defs>
    <style>
      .st0 {
        fill: gray;
      }
    </style>
  </defs>
  <path class="st0" d="M1013.43,146.86h49.28l4.22-13.04h-49.25"/>
  <path class="st0" d="M1399.81,146.86h49.3l4.22-13.04h-49.29"/>
  <path class="st0" d="M314.66,96.92h12.54l9.09,49.94h34.55L344.1,1.25h-23.04l-48.13,83.46h.22-37.94l-4.23,12.22h34.91l-28.82,49.94h18.63l28.87-49.89-.07-.05h30.17l-2.22-12.22h-20.85l.08-.03,25.33-43.8,7.98,43.83h-12.53l2.22,12.22Z"/>
  <path class="st0" d="M845.46,81.17l-16.59,52.16h58.93l-4.06,13.54h-95.51l20.79-65.69h-21.45l4.08-12.2h21.31l-.09-.03L834.29,1.25h95.48l-3.73,12.88h-59.26l-17.44,54.85h38.45l-4.06,12.2h-38.28Z"/>
  <path class="st0" d="M1017.72,133.85L1059.65,1.25h-35.22l-46.05,145.61h35.06"/>
  <path class="st0" d="M1404.11,133.85L1446.07,1.25h-35.22l-46.08,145.61h35.06"/>
  <path class="st0" d="M149.53,1.24l-21.87,69.08h.18-53.68L96.02,1.24h-34.54l-21.86,69.08H4.41l-3.9,12.86h35.06l-20.16,63.68h34.54l20.16-63.68h53.49l-20.12,63.68h34.54L184.05,1.24h-34.52Z"/>
  <path class="st0" d="M1604.23,96.92h15.75l9.11,49.94h34.53L1636.88,1.25h-23.05l-48.1,83.46h.2-37.91l-4.27,12.22h34.9l-28.78,49.94h18.62l28.86-49.89-.08-.05h26.96v-12.22h-19.85l.08-.03,25.33-43.8,7.98,43.83h-13.54v12.22Z"/>
  <path class="st0" d="M0,83.18l4.08-12.86"/>
  <path class="st0" d="M480.36,77.81c-48.36-32.03.89-105.05,69.21-67.18l-7.32,12.2c-42.34-28.08-76.93,11.41-41.94,26.88,10.18,5.29,17.91,7.73,30.95,17.13,13.12,9.4,17.5,22.36,13.84,38.24-10.57,45.9-67.97,56.59-102.58,26.44l9.37-12.17c45.57,38.23,88.73-4.49,59.84-23.61-11.84-7.86-23.21-12.23-31.36-17.92Z"/>
  <path class="st0" d="M646.66,77.81c-48.33-32.03.88-105.05,69.2-67.18l-7.31,12.2c-42.35-28.08-76.93,11.41-41.93,26.88,10.19,5.29,17.9,7.73,30.94,17.13,13.12,9.4,17.49,22.36,13.84,38.24-10.59,45.9-67.98,56.59-102.58,26.44l9.36-12.17c45.59,38.23,88.74-4.49,59.84-23.61-11.84-7.86-23.22-12.23-31.36-17.92Z"/>
  <path class="st0" d="M1208.19,68.16h6.29l-3.9,13.32h-7.23l-17.22,52.48-36.14-.48,17.39-51.96h-22.57l4.41-13.22h8.65l13.95.03,22.44-67.08s4.75.03,47.44,0c58.51-.08,66.16,54.4,8.07,72.16,50.44,11.71,27.44,72.25-39.26,73.46h-65.01l4.5-13.38,48.62.48h12.26c26.37-.42,53.81-52.08,13.06-52.48h-13.34l3.9-13.32h11.46c36.73-.8,44.79-54.88,7.6-54.05h-8.13l-17.23,54.05Z"/>
  <path class="st0" d="M1796.54,146.86h-3.71v-13.54h2.35c64.35,0,90.09-118.53,35.92-118.53h-11.54l-40.63,118.53h13.9v13.54h-52.5L1787.75,1.25h43.35c100.37-1.28,78.99,141.58-34.56,145.61Z"/>
</svg>