<?xml version="1.0" encoding="UTF-8"?>
<svg id="Layer_1" xmlns="http://www.w3.org/2000/svg" xmlns:x="ns_extend;" version="1.1" viewBox="0 0 817.9 178.9">
  <!-- Generator: Adobe Illustrator 30.3.0, SVG Export Plug-In . SVG Version: 2.1.3 Build 182)  -->
  <defs>
    <style>
      .st0 {
        fill: gray;
      }
    </style>
  </defs>
  <polygon class="st0" points="341.7 95.3 300.4 95.3 300.4 58.9 282.1 58.9 282.1 149.1 300.4 149.1 300.4 112.5 341.7 112.5 341.7 149.1 360 149.1 360 58.9 341.7 58.9 341.7 95.3"/>
  <path class="st0" d="M444.8,110.5c0,14.7-7.3,22.5-20.5,22.5s-20.6-8-20.6-23.1v-50.9h-18.3v51.6c0,25.4,14.1,39.9,38.7,39.9s39-14.8,39-40.7v-50.9h-18.3v51.6h0Z"/>
  <polygon class="st0" points="656.2 120.9 635.8 58.9 620.8 58.9 600.4 120.9 580.4 59 561 59 592.4 149.1 607.5 149.1 628 89.9 648.5 149.1 663.8 149.1 695.2 59 676.2 59 656.2 120.9"/>
  <polygon class="st0" points="728 110.3 761.2 110.3 761.2 93.9 728 93.9 728 75.4 776.3 75.4 776.3 59 709.9 59 709.9 149 778 149 778 132.6 728 132.6 728 110.3"/>
  <rect class="st0" x="799.8" y="58.9" width="18" height="90"/>
  <path class="st0" d="M512.1,58.9l-39.7,90.1h18.6l8.2-18.8h41.3l8.1,18.8h19.2l-39.6-90.1h-16.1ZM506,114l13.8-32.3,13.9,32.3h-27.7Z"/>
  <path class="st0" d="M220.3,70.9c1.3-20.4-19.2-39.3-19.2-39.3,0,0-38.1,46.2-65.9,106.9-.1.3-.2.9.1,1.1.2.2.6.3,1.1.1,10.4-5.2,53.7-27.5,72-44.9-.1-.1,11.3-9.2,11.9-23.9M171.7,24.8s-4.8-17.8-24.1-22.5c0,0-5.6-1.4-11.5-2.2,0,0-21.6,27.8-11.1,132.9.1.6.4.7.6.8.4.1.8,0,1-.4,6.9-10,38.5-56.9,45-85.4,0-.1,3.5-13.9.1-23.2M142.1,154.4c-.1.2-.2.8.2,1.1,7,5,28.2,19.8,38.4,22.7,0,0,18.9,6.4,35.2-21.7,0,0-54.8-1.9-73.1-2.5-.2,0-.6.1-.7.4M235.3,92s-62,33.3-94.1,54.9c-.2.2-.5.5-.4,1,.1.3.4.6.8.6,11.5,0,54.9.1,56-.1,0,0,5.6-.2,12.6-2.9,0,0,15.5-4.9,23.5-22.5,0,.1,7.2-14.3,1.6-31M96.2,146.9C64.1,125.3,2.1,92,2.1,92c-5.5,16.7,1.6,31.1,1.6,31.1,8,17.6,23.5,22.5,23.5,22.5,6.9,2.7,12.6,2.9,12.6,2.9,1.1.2,44.6.2,56,.1.4,0,.7-.3.8-.6.1-.6-.2-.9-.4-1.1M94.6,154c-18.2.6-73.1,2.5-73.1,2.5,16.4,28.1,35.2,21.7,35.2,21.7,10.2-2.9,31.4-17.7,38.4-22.7.4-.3.3-.9.2-1.1-.1-.3-.5-.4-.7-.4M89.8,2.2c-19.3,4.8-24.1,22.6-24.1,22.6-3.4,9.3.1,23.1.1,23.1,6.4,28.5,38,75.4,45,85.4.3.4.6.5,1,.4.3-.1.5-.3.6-.8C122.9,27.8,101.3,0,101.3,0c-5.9.8-11.5,2.2-11.5,2.2M36.3,31.5s-20.6,18.9-19.3,39.3c.6,14.7,12,23.9,12,23.9,18.2,17.4,61.5,39.7,72,44.9.4.2.8.1,1.1-.1.3-.3.3-.8.1-1.1C74.5,77.7,36.3,31.5,36.3,31.5"/>
</svg>