<?xml version="1.0" encoding="UTF-8"?>
<svg id="Layer_1" xmlns="http://www.w3.org/2000/svg" xmlns:x="ns_extend;" version="1.1" viewBox="0 0 149.9 153.1">
  <!-- Generator: Adobe Illustrator 30.3.0, SVG Export Plug-In . SVG Version: 2.1.3 Build 182)  -->
  <defs>
    <style>
      .st0 {
        fill: gray;
      }
    </style>
  </defs>
  <polygon class="st0" points="16.9 137.7 5.4 137.7 5.4 127.6 .2 127.6 .2 152.7 5.4 152.7 5.4 142.5 16.9 142.5 16.9 152.7 22 152.7 22 127.6 16.9 127.6 16.9 137.7"/>
  <path class="st0" d="M45.7,142c0,4.1-2,6.3-5.7,6.3s-5.8-2.2-5.8-6.5v-14.2h-5.1v14.4c0,7.1,3.9,11.1,10.8,11.1s10.9-4.1,10.9-11.4v-14.2h-5.1s0,14.5,0,14.5Z"/>
  <polygon class="st0" points="104.7 144.9 99 127.6 94.8 127.6 89.1 144.9 83.6 127.6 78.1 127.6 86.9 152.7 91.1 152.7 96.9 136.2 102.6 152.7 106.8 152.7 115.6 127.6 110.3 127.6 104.7 144.9"/>
  <polygon class="st0" points="124.8 141.9 134.1 141.9 134.1 137.3 124.8 137.3 124.8 132.2 138.3 132.2 138.3 127.6 119.7 127.6 119.7 152.7 138.7 152.7 138.7 148.1 124.8 148.1 124.8 141.9"/>
  <rect class="st0" x="144.8" y="127.6" width="5" height="25.2"/>
  <path class="st0" d="M72.4,147.5l2.3,5.2h5.3l-11-25.2h-4.5l-11.1,25.2h5.2l2.3-5.2h11.5ZM66.6,133.9l3.9,9h-7.7l3.8-9Z"/>
  <path class="st0" d="M139,44.7c.8-12.9-12.1-24.8-12.1-24.8,0,0-24.1,29.1-41.6,67.4-.1.2-.1.5.1.7.1.1.4.2.7.1,6.6-3.3,33.9-17.3,45.4-28.3,0,0,7.2-5.8,7.5-15.1M108.4,15.6s-3-11.2-15.2-14.2C93.2,1.4,89.7.5,85.9,0,85.9,0,72.3,17.6,78.9,83.8c0,.3.2.5.4.5.2.1.5,0,.7-.3,4.4-6.3,24.3-35.9,28.4-53.9-.1.1,2.1-8.6,0-14.5M89.7,97.5c-.1.1-.1.5.1.7,4.4,3.2,17.8,12.5,24.2,14.3,0,0,11.9,4.1,22.2-13.7,0,0-34.6-1.2-46.1-1.6-.1,0-.4.1-.4.3M148.5,58.1s-39.1,21-59.4,34.7c-.1.1-.3.3-.2.7.1.2.2.4.5.4,7.2,0,34.7,0,35.4-.1,0,0,3.5-.1,7.9-1.8,0,0,9.8-3.1,14.8-14.2,0-.1,4.5-9.2,1-19.7M60.7,92.7C40.5,79.1,1.3,58.1,1.3,58.1c-3.5,10.6,1,19.6,1,19.6,5.1,11.1,14.8,14.2,14.8,14.2,4.4,1.7,7.9,1.8,7.9,1.8.7.1,28.1.1,35.4.1.2,0,.4-.2.5-.4.1-.4,0-.6-.2-.7M59.7,97.2c-11.5.4-46.1,1.6-46.1,1.6,10.3,17.8,22.2,13.7,22.2,13.7,6.4-1.8,19.8-11.2,24.2-14.3.3-.2.2-.6.1-.7,0-.2-.3-.3-.4-.3M56.7,1.4c-12.2,3-15.2,14.2-15.2,14.2-2.1,5.9.1,14.6.1,14.6,4.1,18,24,47.6,28.4,53.9.2.2.4.3.7.3.2,0,.3-.2.4-.5C77.7,17.6,64.1.1,64.1.1c-3.9.4-7.4,1.3-7.4,1.3M22.9,19.9s-13,11.9-12.1,24.8c.4,9.3,7.6,15.1,7.6,15.1,11.5,11,38.8,25.1,45.4,28.3.3.1.5.1.7-.1s.2-.5.1-.7C47,49,22.9,19.9,22.9,19.9"/>
</svg>