<?xml version="1.0" encoding="UTF-8"?>
<svg id="Layer_1" xmlns="http://www.w3.org/2000/svg" version="1.1" viewBox="0 0 444 61">
  <!-- Generator: Adobe Illustrator 30.3.0, SVG Export Plug-In . SVG Version: 2.1.3 Build 182)  -->
  <defs>
    <style>
      .st0 {
        fill: gray;
      }
    </style>
  </defs>
  <path class="st0" d="M170.53,8.6v16.68h-18.94V8.6h-10.43v43.77h10.43v-17.6h18.94v17.6h10.43V8.6h-10.43Z"/>
  <path class="st0" d="M219.21,8.6l-10.92,17.33-10.9-17.33h-12.31l18.01,28.61v15.16h10.42v-15.16l18.01-28.61h-12.31Z"/>
  <path class="st0" d="M265.09,8.6v32.07c0,.29-.05.58-.16.85-.11.27-.27.51-.48.72-.21.2-.45.37-.73.47-.27.11-.56.16-.85.15h-16.71V8.6h-10.43v43.81h30.83c1.2.1,2.41-.07,3.54-.48,1.13-.41,2.16-1.07,3.01-1.92.85-.85,1.51-1.87,1.93-3s.58-2.33.49-3.53V8.6h-10.42Z"/>
  <path class="st0" d="M316.01,8.6h-30.84v43.81h10.43V18.09h16.74c.29,0,.58.05.85.16.27.11.51.27.72.47.21.2.37.45.48.71.11.27.17.55.16.84v32.1h10.42V17.57c.06-1.19-.12-2.39-.53-3.51-.41-1.12-1.05-2.15-1.86-3.03-.87-.82-1.91-1.46-3.03-1.88-1.13-.42-2.33-.6-3.53-.54h0Z"/>
  <path class="st0" d="M365.48,8.6h-30.84v43.81h30.84c1.2.09,2.4-.09,3.52-.51,1.12-.42,2.14-1.08,2.98-1.93.84-.85,1.49-1.88,1.9-3,.41-1.13.57-2.33.47-3.52v-25.88c.08-1.2-.09-2.41-.49-3.55-.4-1.14-1.04-2.18-1.86-3.07-.88-.81-1.9-1.43-3.03-1.84-1.12-.4-2.31-.58-3.51-.51h0ZM364.01,20.34v20.34c0,.29-.05.58-.16.84-.11.27-.27.51-.47.72-.2.21-.44.37-.71.48-.27.11-.55.17-.84.17h-16.78v-24.81h16.67c.3-.02.6.03.89.14.28.11.54.27.75.48s.38.47.49.75c.11.28.16.58.15.88Z"/>
  <path class="st0" d="M392.61,8.6c-1.2-.06-2.4.12-3.52.54-1.13.42-2.15,1.06-3.02,1.88-.83.87-1.46,1.9-1.88,3.02-.42,1.12-.6,2.32-.53,3.52v34.81h10.4v-13.53h18.95v13.53h10.42V8.6h-30.81ZM412.97,18.09v11.28h-18.95v-9.03c0-.3.05-.59.16-.87.11-.28.28-.53.49-.74.21-.21.46-.38.74-.49.28-.11.57-.16.87-.16h16.68Z"/>
  <path class="st0" d="M444.02,8.6h-10.43v43.77h10.43V8.6Z"/>
  <path class="st0" d="M59.63,61.02c32.89,0,59.62-13.66,59.62-30.51S92.56,0,59.63,0,0,13.66,0,30.49s26.63,30.52,59.63,30.52ZM70.85,46.04c-.99,2.28-2.69,7.15-6.63,9.17-1.25.58-2.6.89-3.98.91h-.6c-10.07.08-20.09-1.31-29.76-4.13l-.34-.13c-.78-.27-1.19-.63-1.19-1.08.01-.19.06-.37.14-.54.08-.17.2-.31.34-.43l.55-.47c1.94-1.66,7.88-5.98,19.17-10.23,4.57-1.86,9.29-3.35,14.1-4.46,2.9-.67,14.1-2.39,8.19,11.37v.02ZM100.98,15.29c.09-.2.23-.37.4-.49.18-.12.38-.2.6-.21.45,0,.88.14,1.24.41,7,4.3,11.15,9.67,11.15,15.49,0,10.53-13.53,19.56-32.89,23.47-1.24.25-2.07.23-2.35,0-.28-.23-.25-.53,0-.94.15-.26.32-.5.52-.72,10.54-12.41,18.56-30.71,20.85-35.98.17-.42.34-.78.49-1.02ZM48.56,14.89c.99-2.3,2.69-7.21,6.63-9.17,1.25-.58,2.6-.89,3.98-.91h.6c10.07-.07,20.09,1.32,29.76,4.13l.31.13c.8.27,1.21.63,1.21,1.08,0,.18-.06.36-.14.53-.08.16-.2.31-.35.42l-.55.49c-1.86,1.66-7.83,5.96-19.06,10.31-4.57,1.86-9.29,3.36-14.1,4.47-2.96.58-14.19,2.28-8.29-11.48ZM37.76,6.98c1.25-.23,2.07-.23,2.37,0,.1.14.15.3.15.47s-.05.33-.15.47c-.16.25-.34.49-.53.72-10.54,12.48-18.56,30.81-20.8,36.09-.17.36-.34.72-.49.95-.09.2-.22.37-.4.5s-.38.2-.6.22c-.45,0-.88-.14-1.24-.41-7-4.3-11.15-9.68-11.15-15.5-.05-10.51,13.49-19.54,32.85-23.51Z"/>
</svg>