<?xml version="1.0" encoding="UTF-8"?>
<svg id="_图层_1" xmlns="http://www.w3.org/2000/svg" version="1.1" viewBox="0 0 1386.02 286.43">
  <!-- Generator: Adobe Illustrator 30.3.0, SVG Export Plug-In . SVG Version: 2.1.3 Build 182)  -->
  <defs>
    <style>
      .st0 {
        fill: gray;
      }
    </style>
  </defs>
  <path class="st0" d="M1222.53,126.5c-7.96-5.05-26.14-8.67-38.96-8.8-14.33-.14-31.42,5.03-31.42,5.03,0,0,0-9.95.23-19.37.38-15.71,23.22-19.45,34.96-19.41,11.86.04,25.25,3.34,33.23,5.67,3.68,1.07,7.41-1.53,7.69-5.35l1.43-19.25c.2-2.65-1.35-5.12-3.83-6.07-11.64-4.49-26.09-6.73-41.29-6.73-8.25,0-23.4-.81-38.71,5.65-11.31,4.78-29.18,16.84-29.18,38.46s.04,35.33.02,54.3c-.03,23.9-.02,19.23-.02,38.46,0,10.61,4.71,30.57,16.86,39.72,15.61,11.75,29.95,12.7,44.22,12.7,15.61,0,26.31-.3,39.4-7.29,16.68-8.92,23.49-26.2,24.03-44.62.36-12.28-.01-17.67-.68-27.65-.66-9.84.63-23.63-17.97-35.45h0ZM1201,200.78c-4.61,6.04-15.01,7.4-23.04,7.4s-15.95-1.15-21.27-7.4c-5.32-6.25-4.37-13.62-4.37-23.5,0-12.25.06-19.86.06-19.86,0,0,13.65-5.91,26.47-5.53,7.6.22,16.08.33,21.31,6.03,5.24,5.7,5.66,10.64,5.66,21.37,0,9.63-.21,15.46-4.82,21.49h0Z"/>
  <path class="st0" d="M1386,146.66c0-20.12.01-32.08.01-46.68,0-15.52-8.63-31.91-24.64-39.92-9.97-4.98-23.88-7.88-38.43-7.88s-28.91,1.69-40.89,9.88c-14.26,9.76-19.76,26.78-19.76,42.79v80.33c0,27.03,9.61,37.45,19.01,43.8,11.32,7.64,27.1,12.51,42.85,12.51,17.47,0,38.93-4.7,51.74-20.52,8.51-10.51,10.13-28.78,10.13-45.8s-.01-8.89-.01-28.53v.02ZM1346.54,106.74c0,11.1-.02,17.93-.02,39.96,0,13.19-.14,18.82-.14,28.21v9.16c0,11.51-.74,14.14-6.22,19.18-4.8,4.42-13.52,4.47-17.87,4.47-6.67,0-12.62-1.79-16.94-5.68-4.69-4.21-5.16-8.2-5.16-23.78,0-9.57-.12-15.86-.12-32.28,0-11.99.15-21.97.07-32.49-.09-12.17.88-18.86,7.38-23.99,4.51-3.56,8.48-4.92,15.25-4.92,6.33,0,14.17,1.46,18.08,5.01,5.88,5.34,5.7,11.39,5.7,17.14h0Z"/>
  <path class="st0" d="M1094.83,171.52c0-8.86-4.63-24.67-20.34-29.79-3.9-1.27-6.03-1.9-7.85-1.9,4.42-1.7,8.74-3.95,14.45-9.43,5.71-5.48,8.35-14.17,8.35-25.06,0-7.7.02-2.72.02-8.97,0-15.55-6.92-29.04-20.59-36.45-10.8-5.85-25.54-7.72-38.79-7.72-27.26,0-46.3,7.4-54.29,12.28-1.95,1.19-3.08,3.37-2.9,5.65l1.48,19.42c.32,4.14,4.6,6.76,8.42,5.13,9.05-3.84,24.66-9.44,39.55-9.83,7.19-.19,17.52.14,22.78,2.28,5.91,2.4,9.58,7.4,9.64,12.84.07,5.89.11,5.01.11,8.66,0,8.1-2.95,10.08-5.55,12.41-3.67,3.29-10.6,4.25-18.83,5.24-5.24.63-17.93,1.48-28.84,1.83-3.27.11-5.87,2.77-5.89,6.05l-.08,19.53c-.01,3.35,2.68,6.07,6.02,6.1,9.47.07,22.51.21,32.04,1.24,13.14,1.42,24.31,5,24.31,15.81s.02-4.82.02,11.23-14.04,18.4-34.96,18.4c-13.7,0-29.34-5.94-38.51-10.03-3.84-1.72-8.22.91-8.53,5.11l-1.53,20.74c-.17,2.24.92,4.38,2.81,5.59,6.76,4.3,24.32,13.65,49.17,13.65,17.83,0,40.04-3.96,51.76-12.54,4.2-3.08,16.53-14.67,16.53-32.39v-25.07h.02Z"/>
  <path class="st0" d="M935.53,99.95c-12-6.14-25.72-9.21-41.17-9.21-21.46,0-42.23,2.78-54.52,8.74-2.22,1.08-3.54,3.41-3.41,5.88l1.12,20.44c.23,4.17,4.38,6.92,8.27,5.45,10.09-3.81,27.72-8.97,44.48-9.17,11.35-.13,17.08,1.03,21.13,3.23,4.05,2.21,5.62,4.65,5.62,10.44,0,4.76-.06,12.64-.06,12.64,0,0-19.62-1.43-29.1-.85-12.99.79-25.15,2.33-38.71,9.28-11.11,5.7-20.1,13.76-20.1,31.15v18.28c0,12.1,7.39,21.78,17.61,26.9,11.13,5.58,23.65,8.37,46.79,8.37,31.63,0,51.35-13.28,57.75-18.38,1.47-1.17,2.29-2.93,2.29-4.81v-83.6c0-17.04-5.99-28.63-17.99-34.77h0ZM911.32,203.48c-6.76,4.67-16.95,5.48-24.98,5.6-8.06.12-17.62-1.73-21.27-5.59-3.1-3.29-1.99-4.25-1.99-9.08,0-7.09,3.07-12.36,10.23-15.19,7.16-2.83,17.56-2.91,23.98-3.1,11.75-.34,20.04,1.22,20.04,1.22v6.37c0,12.37.75,15.09-6.01,19.76h0Z"/>
  <path class="st0" d="M677.32,150.07c-17.68-2.1-34.05-4.93-38.54-7.57-4.59-2.7-4.01-12.06-1.22-15.37,3.96-4.72,21.83-3.71,32.23-2.62,13.06,1.36,23.47,4.04,29.93,6.06,3.81,1.19,7.76-1.39,8.19-5.33l2.16-19.8c.32-2.89-1.41-5.63-4.18-6.61-14.38-5.08-25.08-8.15-48.39-8.15-10.19,0-21.97,1.13-32.5,4.92-16.92,6.07-21.8,17.9-22.85,28.39-.53,5.27-.94,7.79-.91,14.65.04,11.28,2.35,20.33,8.71,26.32,6.36,6.08,20.3,10.76,41.48,13.57,18.83,2.5,23.32,4.72,26.55,7.08,4.49,3.28,4.1,14.57,1.06,17.19-4.9,4.23-16.53,5.22-30.58,4.32-13.99-.9-28.9-5.18-37.71-8.09-3.95-1.31-8.08,1.44-8.35,5.56l-1.33,20.46c-.16,2.46,1.14,4.79,3.33,5.96,11.18,5.98,35.56,10.52,54.69,10.52,21.12,0,37.65-4.33,46.63-12.06,10.27-8.84,11.63-19.86,11.63-34.13,0-10.84.16-24.27-6.87-31.5-7.11-7.14-14.4-11.52-33.16-13.75v-.02Z"/>
  <path class="st0" d="M805.14,202.19c-2.78.46-6.39.86-10.89.9-6.23.06-11.13-.25-12.63-1.7-1.51-1.45-2.25-4.02-2.25-9.94l-.16-59.18h23.15c3.54,0,6.44-2.89,6.46-6.43l.1-21.18c.02-3.5-2.82-6.35-6.32-6.35h-23.1v-30.49c0-3.51-2.85-6.36-6.36-6.36h-28.34c-3.51,0-6.36,2.85-6.36,9.93v130.94c0,5.44-1.15,18,8.23,26.16s25.07,9.21,38.18,9.29c10.35.06,18.59-1.18,23.58-2.2,3.05-.62,5.19-3.37,5.05-6.48l-.97-21c-.17-3.79-3.63-6.56-7.37-5.93v.02Z"/>
  <path class="st0" d="M565.08,105.97c-3.43-2.84-13.65-11.37-32.48-13.61-12.64-1.51-24.64-3.25-45.3,1.79-20.7,5.05-30.93,12.64-34.88,16.27-1.29,1.19-2.02,2.86-2.02,4.61v116.2c0,3.47,2.81,6.57,6.28,6.57h27.48c3.47,0,6.28-3.1,6.28-6.57v-71.44c0-8.88.15-11.74.15-21.65s11.85-12.96,24.51-12.96c10.3,0,21.83,3.14,21.83,12.96,0,5.46-.15,9.57-.15,13.26v79.83c0,3.47,2.81,6.57,6.28,6.57h28.27c3.47,0,6.28-3.1,6.28-6.57v-83.64c0-18.03-3.12-33.84-12.54-41.62h0Z"/>
  <rect class="st0" x="381.9" y="48.61" width="41.58" height="189.19" rx="6.36" ry="6.36"/>
  <g>
    <path class="st0" d="M192.89,90.41c-14-14-32.61-21.71-52.41-21.71s-38.41,7.71-52.4,21.71c-28.9,28.9-28.9,75.91,0,104.81,14,14,32.61,21.71,52.4,21.71s38.41-7.71,52.41-21.71c28.9-28.9,28.9-75.91,0-104.81ZM180.98,133.54c-8.37,8.36-21.93,8.36-30.3,0s-8.37-21.92,0-30.28,21.93-8.36,30.3,0,8.37,21.92,0,30.28Z"/>
    <path class="st0" d="M265.24,78.93c-.25-.48-1.48-3.13-1.63-3.49-5.25-11.75-3.32-25.93,5.79-35.89.21-.16.96-.95,1.39-1.4.24-.25.45-.53.63-.82,1.85-3.03,1.46-7.04-1.16-9.66-.05-.05-.17-.14-.31-.25-.67-.5-1.39-.94-2.14-1.31l-.82-.4C219.28.8,164.58-6.01,113.05,5.27l-.19.26c-26.29,5.23-51.37,18.03-71.74,38.41C-3.64,88.7-11.86,156.17,16.48,209.27c.27.51,1.28,2.32,1.46,2.78,4.57,11.59,2.36,25.23-6.63,34.83-.25.27-.85.96-.85.96-3.08,3.08-3.08,8.06,0,11.14.72.67,1.51,1.25,2.35,1.75l.11.07c48.09,25.06,103.28,31.74,155.15,20.03v.02c26.23-5.25,51.25-18.04,71.58-38.38,44.26-44.26,52.79-110.72,25.58-163.54h0ZM211.42,213.72c-18.95,18.94-44.14,29.37-70.94,29.37s-51.99-10.43-70.94-29.37c-39.12-39.1-39.12-102.72,0-141.82,18.95-18.94,44.14-29.37,70.94-29.37s51.99,10.43,70.94,29.37c39.12,39.1,39.12,102.72,0,141.82Z"/>
  </g>
</svg>