<?xml version="1.0" encoding="UTF-8"?>
<svg id="Layer_1" xmlns="http://www.w3.org/2000/svg" version="1.1" viewBox="0 0 119.64 27">
  <!-- Generator: Adobe Illustrator 30.3.0, SVG Export Plug-In . SVG Version: 2.1.3 Build 182)  -->
  <defs>
    <style>
      .st0 {
        fill: gray;
      }
    </style>
  </defs>
  <path class="st0" d="M115.34,3.8v8.44c0,1.52-1.69,2.53-3.71,2.53s-3.63-1.1-3.71-2.53V3.8h-4.47v8.52s0-4.39,0,0,3.54,6.58,7.09,6.58c1.86,0,3.54-.34,4.73-1.01v1.94c0,1.35-1.01,2.87-2.45,2.87h-7.59v4.3h7.76c3.63,0,6.67-3.21,6.67-6.75V3.8h-4.3ZM11.64,11.64c0,1.43-.25,2.62-.76,3.37-.59.84-1.43,1.27-2.7,1.27-1.69,0-3.54-.93-3.63-3.46v-.17H0v.25c0,2.11.68,3.97,2.03,5.32,1.52,1.52,3.71,2.36,6.16,2.36s4.39-.76,5.82-2.28c1.43-1.52,2.19-3.63,2.19-6.07V0h-4.64v11.64h.08ZM31.3,12.07c0,2.45-2.11,4.47-4.56,4.47-1.27,0-2.36-.51-3.21-1.35s-1.27-1.94-1.27-3.12.42-2.28,1.27-3.12,2.02-1.35,3.21-1.35c2.53,0,4.56,2.02,4.56,4.47ZM31.05,5.32c-.93-.84-2.45-1.69-4.64-1.69s-4.3.84-5.91,2.45-2.45,3.71-2.45,5.99.84,4.3,2.45,5.91,3.63,2.53,5.91,2.53c1.77,0,3.38-.59,4.64-1.69v1.43h4.47V3.8h-4.47v1.52ZM80.41,3.29c4.22,0,7.85,2.95,8.69,7.09.25,1.18.25,2.19,0,3.21v.17h-12.99c.51,1.86,2.11,2.95,4.3,2.95,1.52,0,3.04-.59,4.05-1.52l4.05,1.1v.08c-.68,1.35-1.86,2.45-3.38,3.29-1.43.76-3.12,1.18-4.72,1.18-2.36,0-4.64-.93-6.33-2.62-1.69-1.6-2.53-3.8-2.53-6.07s.93-4.56,2.62-6.16c1.69-1.77,3.88-2.7,6.24-2.7ZM60.67,0v11.48l6.16-7.59h5.23l-6.67,8.27,7.09,8.27h-5.23l-6.58-7.76v7.68h-4.47V0h4.47ZM80.41,7.34c-2.28,0-3.71,1.43-4.22,2.95h8.44c-.51-1.52-1.94-2.95-4.22-2.95ZM97.71,3.8c-3.63,0-6.67,2.95-6.67,6.5v9.96h4.47v-9.53c0-1.35,1.01-2.53,2.45-2.53h3.8V3.8h-4.05M50.2,13.92l-.08.08c-.67,1.6-2.19,2.62-3.97,2.62-2.53,0-4.56-2.11-4.56-4.64s2.03-4.64,4.56-4.64c1.69,0,3.21,1.01,3.97,2.62l.08.08,4.22-1.1-.08-.17c-1.35-3.38-4.56-5.48-8.1-5.48-2.36,0-4.56.93-6.24,2.53-1.69,1.6-2.62,3.88-2.62,6.16s.93,4.47,2.53,6.07c1.69,1.69,3.88,2.62,6.33,2.62,3.63,0,6.75-2.11,8.1-5.48l.08-.17s-4.22-1.1-4.22-1.1Z"/>
</svg>