<?xml version="1.0" encoding="UTF-8"?>
<svg id="Layer_1" xmlns="http://www.w3.org/2000/svg" version="1.1" viewBox="0 0 159.73 55.17">
  <!-- Generator: Adobe Illustrator 30.3.0, SVG Export Plug-In . SVG Version: 2.1.3 Build 182)  -->
  <defs>
    <style>
      .st0 {
        fill: gray;
      }
    </style>
  </defs>
  <path class="st0" d="M31.96,39.24l.4.31.14.11c.6.37,1,.98,1.11,1.67.14.87.06,1.76-.21,2.6-.39,1.3-.83,2.61-1.25,3.88l-.16.48c-.28.85-.58,1.7-.88,2.56l-.26.74c-.28-.82-.57-1.63-.85-2.44l-.41-1.16c-.69-2-1.38-4-2.06-5.93-.35-.8-.1-1.74.6-2.27l.65-.55h-6.34l.24.28.28.34c.23.26.45.52.65.8.57.89,1.02,1.85,1.33,2.86.02.06.02.12,0,.18-.88,2.37-1.76,4.74-2.65,7.11-.1.27-.21.54-.32.83h0l-.52-1.57c-.47-1.45-.94-2.9-1.4-4.35s-.89-2.89-1.22-4.08c-.2-.67.04-1.39.59-1.82l.74-.61h-6.13l.19.27c.09.14.2.27.3.41.25.31.46.64.63,1,.55,1.2,1,2.3,1.35,3.33,1.13,3.31,3.44,10.33,3.47,10.4v.1h.1c.33.06.66.08,1,.08.33,0,.67-.02,1-.08h.09v-.09s2.3-6.33,3.37-9.26v-.09c1.13,3.16,3.33,9.35,3.33,9.35v.09h.09c.33.06.66.09,1,.08.33,0,.67-.03,1-.08h.09v-.1s1.31-3.79,1.94-5.53c.9-2.45,1.72-4.62,2.5-6.64.38-1.07,1.02-2.03,1.86-2.79.04-.03.08-.07.11-.12l.21-.28-5.7-.02Z"/>
  <path class="st0" d="M6.35,39.66c.75.38,1.28,1.1,1.41,1.93v.11c.09.48.15.96.17,1.44,0,2.13.05,4.4.06,6.38h0v.72c0,2.56-.91,3.86-2.69,3.86-1.35.04-2.47-1.02-2.51-2.36,0-.08,0-.16,0-.24,0-.28.03-.55.09-.82v-.12l-2.88.88v.06c.17,2.16,2.33,3.67,5.27,3.67,1.44.06,2.85-.38,4-1.24,1.12-.93,1.75-2.32,1.71-3.78h0v-4.98c0-1.16.08-2.34.16-3.36,0-.85.43-1.65,1.13-2.13l.2-.14.4-.32h-7.32l.8.44Z"/>
  <path class="st0" d="M51.65,54.79h-.8l-4.33-10.55c-.51-1.18-.96-2.39-1.33-3.62h0c.07.71.1,2.61.1,4v10.17h-.94v-15.55h1.06l5,12.1c.43,1.06.68,1.7.87,2.29h0c.18-.62.39-1.19.8-2.29l4.61-12.1h1.14v15.58h-.89v-9.94c0-1.35,0-3.78.09-4.44h0c-.16.61-.67,2.08-1.24,3.59l-4.14,10.76Z"/>
  <path class="st0" d="M63.03,54.79h-.91l5.86-15.55h1.1l5.84,15.58h-.89l-1.83-4.9h-7.38l-1.79,4.87ZM69.49,42.72c-.29-.8-.75-2.11-1-2.82-.27.78-.75,2-1,2.8l-2.38,6.37h6.76l-2.38-6.35Z"/>
  <path class="st0" d="M90.82,54.79h-1.16l-5-7.12h-4.51v7.12h-.89v-15.55h5.24c1.14-.07,2.27.09,3.35.46,1.53.61,2.52,2.11,2.47,3.76.06,1.25-.49,2.45-1.49,3.21-.92.65-2.01.99-3.13,1l5.12,7.12ZM84.43,46.84c1.32.14,2.64-.17,3.76-.87.78-.6,1.22-1.55,1.17-2.54.02-1.08-.53-2.09-1.45-2.66-1.06-.59-2.27-.84-3.48-.71h-4.33v6.78h4.33Z"/>
  <path class="st0" d="M107.18,54.79h-1.17l-5-7.12h-4.51v7.12h-.9v-15.55h5.25c1.14-.07,2.27.09,3.35.46,1.53.61,2.52,2.11,2.47,3.76.06,1.25-.49,2.45-1.49,3.21-.92.65-2.02,1-3.14,1l5.14,7.12ZM100.79,46.84c1.32.14,2.64-.17,3.76-.87.78-.6,1.21-1.55,1.16-2.54.02-1.08-.53-2.09-1.44-2.66-1.06-.59-2.27-.84-3.48-.71h-4.33v6.78h4.33Z"/>
  <path class="st0" d="M112.81,54.79h-.89v-15.55h.89v15.55Z"/>
  <path class="st0" d="M124.43,38.94c4.1,0,6.6,3.18,6.6,8.06s-2.48,8.07-6.6,8.07-6.6-3.19-6.6-8.07,2.52-8.06,6.6-8.06ZM124.43,54.27c3.41,0,5.71-2.89,5.71-7.27s-2.23-7.26-5.71-7.26-5.68,2.89-5.68,7.26,2.27,7.24,5.68,7.24v.03Z"/>
  <path class="st0" d="M133.14,39.24h11.75v.85h-5.43v14.73h-.92v-14.76h-5.4v-.82Z"/>
  <path class="st0" d="M147.98,39.24h11.75v.85h-5.38v14.73h-1v-14.76h-5.41l.04-.82Z"/>
  <path class="st0" d="M98.26.31c-.91.69-1.96,1.16-3.07,1.39-1.54.44-3.15.62-4.75.54-7.92-.74-9.46-1.37-11.43,2-.26.67-.63,1.29-1.09,1.84-.17-.54-.42-1.04-.76-1.49.05-.05.16-.11.13-.13-.24-.18-.25-.37-.42-.46h0c.18.07.47.16.42,0-.19-.18-.37-.38-.52-.59.11.02.23.04.34.07-.12-.18-.21-.37-.27-.57.09.02.18.04.27.07,0,0-.24-.47-.28-.57s-.3-1.07-.33-1.29c-.04-.42-.23-.8-.55-1.08-.15-.14-.34.15-.38.15-.35.32-.41.27-.53.26s-.1.17-.19.28l-.07.06c-.09,0-.07.05-.13-.08-.06.11-.16.19-.27.25,0,0-.08,0-.08-.14-.34.3-.26.28-.39.29-1.27-.35-2.6-.35-3.87,0-.33.12-.6.35-.77.65-.67.03-1.3.34-1.73.86-.23.39-.28.86-.12,1.29.03.06.07.11.12.16,0,0,.09,0,.08-.05-.05-.12-.01-.26.09-.34.18-.12.4-.16.61-.1.31.05.62.05.93,0,.38-.05.76.1,1,.41.36.47.84.84,1.39,1.08.12,0,.26.19.23.58-.06,0-.12,0-.17.17-.33.56-.75,1.06-1.26,1.47,0,0-1,.4-.65.42.13-.01.24.07.28.19,0,0-.17,0-.57.24-.57.37-.71.7-.62.67.36-.09.84-.07.65.06s-.74.42-.9.89c.18,0,.37.19.4.2-.26.27-.47.59-.6.94-.1.2.42.52.42.53-.14.39-.38.73-.69,1,0,.14.62-.09.62-.09-.14.22-.24.47-.31.72v.29c.09,0,.18-.01.26-.06-.07.12-.09.26-.07.39.05.01.11.01.16,0-.04.18-.04.36,0,.54,0,0,.2-.17.24-.16.08.19-.1.77-.08.77.33,0,0,.73.12,1,.14-.01.26-.08.35-.19.08-.09-.18.77-.17.92s.15-.08.21-.06c0,.45-.02.9-.08,1.34,0,.09-.15.41-.12.45s.31,0,.25.1.09.65.09.65c.02.08.02.16,0,.24-.06.18-.13.54,0,.45s.13,0,.24-.1c.06.34.02.68-.09,1q.36,0,.35.11c-.03.2-.08.39-.15.58.07-.05.17-.03.22.04.02.03.03.07.03.11-.06.21-.06.44,0,.65.09,0,.17-.05.21-.13-.02.21-.02.41,0,.62-.05.13,0,.34-.17.34.07.11.23,0,.34,0,0,.09,0,.18,0,.27-.5.18-.71.58-1.08.46-.21-.06-.43-.06-.64,0-.12.04-.23.09-.34.15-.11.03-.22.08-.31.14-.2.19-.33.44-.38.71,0,.15,0,.2.07.2s.17-.39.48-.46.15,0,.21.06c.2.12.43.16.66.11.3-.08.62-.12.93-.13,0,.11-.33.29-.33.29-.36.02-.67.28-.76.63-.14.2-.22.44-.24.69,0,.11,0,.24.08.23s.13-.32.28-.4.58,0,1-.27.29-.4.76-.77c.22-.17.56-.69.91-.52s.69.3.64.62c-.07.12,0,.22-.06.36s-.11.4-.07.43.45-.29.54-.42.19-.49.11-.59c.06-.87-.32-1.14-.32-1.14,0,0,.21-.18.1-.16-.09,0-.18-.02-.26-.06.15-.23.21-.67.28-.65s.41.47.32.14c-.08-.21-.12-.43-.13-.66h0c0-.07.08-.06.13,0s.28.61.26,0c-.02-.42-.1-.84-.24-1.24.08.07.18.12.29.14,0-.32-.06-.63-.2-.92,0,0,.44.64.15-.42,0-.15.07-.33,0-.51,0,0-.14.13,0-.58.14.11.28.21.43.3.19.06.4.06.59,0,.2.08.41.14.62.15.11.07.19,0,.29,0s.22.09.34,0-1.05,1.2.68,3.36c.62.75,2,1.08,2.08,1.23-.71-.12-1.43-.14-2.15-.07-1.51-.12-1.73,0-2.07.67-.13.06-.22.19-.22.34-.07.13-.11.6,0,.49s.17-.14.25-.24c.07.12.17.11.24.2s0,.37.1.37.09-.1.13-.18h0c.12.03.23.1.31.2,0,.07,0,.19.1.22s.09-.07.11-.1c.84.07,1.68.04,2.51-.08.59-.04,1.19-.04,1.78,0,.53,0,1.05-.11,1.54-.31.89.12,1.8.12,2.69,0,.57-.02,1.13-.17,1.64-.43.14-.1.59-.31.67-.46.69-.42,1.23-1.03,1.56-1.77.39-.8.61-1.68.65-2.57,0-.57-.11-1.14-.31-1.67-.59-1.78-.44-2.31-.27-2.71.14-.23.34-.42.57-.56.16.18.3.07.5.16.15.1.3.22.43.35.25.19.56.29.88.28.14.03.27.03.41,0,.03-.06.06-.12.09-.19.12.11.3.24.44.21,0-.1-.03-.21-.08-.3.14,0,.31.18.42.24.05.04.13.04.18,0,0-.05,0-.13.06-.17h0c.08.03.18.03.26,0,0,0,.08,0,.08-.08.15.02.3-.03.41-.12-.22-.3-.47-.3-.71-.45.1-.07.18-.17.29-.26-.05,0-.1,0-.15,0l-.21-.07c-.12,0-.22-.13-.34-.18-.06-.02-.11-.05-.16-.09h0c-.17-.26-.23-.33-.4-.37s-.45-.18-.56-.2c-.37-.1-.77-.13-1.15-.08-.41.16-.8.37-1.16.62-.39.25-.37.3-.4.32-.65.39-1.1,1.81-.73,3.58.2.84.13.55.23,1,.26,1.59-.49,3.18-1.88,4h0c.23-.35.4-.74.52-1.14.32-.87.38-1.82.16-2.73-.11-.57-.33-1.11-.65-1.59.11.06.11.05.28.05-.41-.25-.95-1.32-1.12-1.49.06,0,.15,0,.17-.09-.3-.26-1-1-1-1,.11.04.23.04.34,0,.07,0-.82-.42-1.11-.87-.15-.25,0-.37.08-.35.38.2.82.24,1.22.09-.13-.3-.64-.65-.59-.63.17.07.35.11.54.12.39.09.53.11.77,0-.09-.18-.68-.47-.8-.66.33.17.7.22,1.06.16,0,0-.06-.23-.09-.33.28.11.82.3,1.09.07-.52-.48-.98-1.02-1.37-1.6-.16-.31.8.89,1.65,1,.17-.13,0-.47-.09-.66s.78.31.78.31c-.02-.31-.12-.6-.29-.86.41.16.84.22,1.28.19.16-.1-.22-.63-.22-.63.3.15.62.27.95.36.19,0,.16-.12.16-.12-.04-.26-.11-.51-.2-.75-.17-.38-1.63-2.43,0-.78.18.17.84.87,1.06.85s-.22-.79-.22-.79c.3.2.64.32,1,.37.2,0-.06-.63-.2-.78-.27-.34-.61-.61-1-.81.53.12,1.04.29,1.53.51.35.16-.29-.66-.29-.66.6-.01,1.19-.14,1.74-.37.08-.13-.42-.43-.42-.43h.22s1.06.06,1.09-.19c0,0-2.58-1.15-2.47-1.11,1.91.18,2.71.48,3.64.44.68,0,.85-.27.85-.27-.15-.33-1.63-.68-1.63-.68h.76c.81.08,1.61-.21,2.17-.81,0-.18-.67-.37-.67-.37,0,0,.92-.07,1.12-.53,1-.53.9-.81.9-.81h-.53c-.54.14-1.09.25-1.64.32-.92.13-1.16-.07-1.16-.07,2.91-.37,3.39-1,3.49-1.38.79-.63.47-1.18.47-1.18M68.57,12.22h0"/>
</svg>