<?xml version="1.0" encoding="UTF-8"?>
<svg id="Layer_1" xmlns="http://www.w3.org/2000/svg" version="1.1" viewBox="0 0 163.4 40.85">
  <!-- Generator: Adobe Illustrator 30.3.0, SVG Export Plug-In . SVG Version: 2.1.3 Build 182)  -->
  <defs>
    <style>
      .st0 {
        fill: gray;
        fill-rule: evenodd;
      }
    </style>
  </defs>
  <path id="msi-corporate_x5F_identity-logo-black-cmyk" class="st0" d="M148.59,40.85l11.18-30.84s-8.36,0-16.72,1.68l-10.57,29.16h16.11ZM146.68,1.68l-2.15,5.92c8.41-1.68,16.72-1.68,16.72-1.68L163.4,0S155.04,0,146.68,1.68M88.37,33.53c5.03.92,10.21,1.4,15.51,1.4h0c5.43,0,9.38-1.21,9.8-4.9.21-1.76-1.45-3.02-4.49-4.7-3.48-1.92-6.41-2.88-9.43-4.9-3.02-2.02-4.33-5.21-3.31-8.58,1.19-3.94,3.95-6.22,8.17-8.38C109.56.95,113.48,0,123.01,0,129.01,0,134.88.58,140.56,1.68l-2.05,5.64c-5.03-.92-10.21-1.39-15.51-1.39s-9.38,1.21-9.81,4.9c-.2,1.76,1.45,3.03,4.5,4.7,3.48,1.92,6.41,2.88,9.43,4.9,3.03,2.02,4.33,5.21,3.31,8.58-1.19,3.93-3.96,6.22-8.17,8.37-4.94,2.52-8.86,3.47-18.38,3.47h0c-6,0-11.87-.58-17.55-1.68l2.04-5.64ZM64.09,40.85l9.33-25.73c3.11-8.58-8.31-5.44-10.86-3.47-2,1.55-5.66,5.08-7,8.78l-7.41,20.43h-16.11l9.33-25.73c3.11-8.58-8.3-5.44-10.86-3.47-2,1.55-5.66,5.08-7,8.78l-7.4,20.42H0L14.81,0C19.94,0,22.72,1.18,25.05,3.47c.85.84,1.38,1.92,1.67,3.08,3.02-1.83,5.69-3.2,7.49-3.9C37.56,1.34,41.72,0,46.86,0,51.98,0,54.76,1.18,57.09,3.47c.86.84,1.39,1.92,1.68,3.08,3.02-1.83,5.69-3.2,7.49-3.9C69.6,1.34,73.77,0,78.9,0,84.03,0,86.8,1.18,89.13,3.47c2.33,2.28,2.27,6.46,1.43,8.78l-10.37,28.6h-16.11Z"/>
</svg>