<?xml version="1.0" encoding="UTF-8"?>
<svg id="Layer_1" xmlns="http://www.w3.org/2000/svg" xmlns:x="ns_extend;" version="1.1" viewBox="0 0 393.3 93.2">
  <!-- Generator: Adobe Illustrator 30.3.0, SVG Export Plug-In . SVG Version: 2.1.3 Build 182)  -->
  <defs>
    <style>
      .st0 {
        fill: gray;
        fill-rule: evenodd;
      }
    </style>
  </defs>
  <path class="st0" d="M0,14.6v78.6h78.6v-44.9h-8.7v36.2H8.7V23.3h36.2v-8.7s-44.9,0-44.9,0ZM69.9,0v14.6h-14.6v8.7h14.6v14.6h8.7v-14.6h14.6v-8.7h-14.6V0h-8.7Z"/>
  <path class="st0" d="M44.9,72.8v-38.3h-7.8c0,2.6-.9,4.6-2.2,5.8-1.4,1.2-3.5,1.7-6,1.7h-1v6.3h8.2v24.5h8.8ZM135.2,53.1c0-8.8-4-15.7-12.1-15.7s-12.3,6.9-12.3,15.7,4.2,15.7,12.3,15.7,12.1-7,12.1-15.7h0ZM101.7,53.1c0-13.2,8.3-23.1,21.4-23.1s21.3,9.8,21.3,23.1-8.2,23-21.3,23-21.4-9.8-21.4-23ZM152.1,30.9h9.1l14.8,24.6c1.4,2.4,3.1,6.2,3.1,6.2h.1s-.2-4.6-.2-7.7v-23.1h8.9v44.2h-8.7l-15.2-24.5c-1.4-2.3-3.2-6.1-3.2-6.1h-.1s.2,4.6.2,7.7v22.8h-8.9l.1-44.1h0ZM198.1,30.9h32.6v7.5h-23.6v9.9h20.7v7.4h-20.7v11.9h23.8v7.5h-32.8V30.9h0ZM248.9,51.8h9.3c4.7,0,7.2-2.6,7.2-6.6s-2.6-6.5-7.1-6.5h-9.4v13.1h0ZM239.6,30.9h19.5c5.1,0,9,1.5,11.6,4.1,2.5,2.5,4,6,4,10.1,0,8.3-5.5,14-14.8,14h-10.9v16h-9.3l-.1-44.2h0ZM281.3,30.9h9v36.7h20.8v7.5h-29.8V30.9h0ZM315.9,60.9v-30h9v30c0,4.6,2.3,7.8,8.3,7.8s8.4-3.3,8.4-7.9v-29.9h9v30c0,9.5-5.8,15-17.2,15-11.5-.1-17.5-5.5-17.5-15h0ZM356.9,61.4h8.8c.6,5.3,3.7,7.4,10,7.4,4.6,0,8.6-1.6,8.6-5.7s-4.2-5.2-11-6.7c-7.9-1.8-15.2-3.9-15.2-13.1,0-8.7,7.1-13.2,17-13.2s16.4,4.9,17.1,13.8h-8.6c-.5-4.5-4-6.7-8.6-6.7s-8,2-8,5.2c0,3.6,3.1,4.6,9.7,6.1,9.1,2,16.6,4.1,16.6,13.7,0,9-7.3,14-17.2,14-12.1-.1-18.9-5.4-19.2-14.8h0Z"/>
</svg>