<?xml version="1.0" encoding="UTF-8"?>
<svg id="Layer_1" xmlns="http://www.w3.org/2000/svg" xmlns:x="ns_extend;" version="1.1" viewBox="0 0 349.1 83">
  <!-- Generator: Adobe Illustrator 30.3.0, SVG Export Plug-In . SVG Version: 2.1.3 Build 182)  -->
  <defs>
    <style>
      .st0 {
        fill: gray;
        fill-rule: evenodd;
      }
    </style>
  </defs>
  <path class="st0" d="M41.4,52.9h0c-17.6-.2-29-8.6-29-21.3s11.4-21.1,29-21.3c17.6.2,29,8.6,29,21.3s-11.4,21.2-29,21.3ZM42,0h-1C16.8.4,0,13.4,0,31.6s16.8,31.2,40.9,31.6h1c24.1-.3,40.9-13.4,40.9-31.6S66,.4,42,0Z"/>
  <path class="st0" d="M307.7,52.9h0c-17.6-.2-29-8.6-29-21.3s11.4-21.1,29-21.3c17.6.2,29,8.6,29,21.3s-11.4,21.2-29,21.3ZM308.2,0h-1c-24.1.4-40.9,13.4-40.9,31.6s16.8,31.2,40.9,31.6h1c24.1-.4,40.9-13.4,40.9-31.6S332.3.4,308.2,0Z"/>
  <path class="st0" d="M219.1,52.9h0c-17.6-.2-29-8.6-29-21.3s11.4-21.1,29-21.3c17.6.2,29,8.6,29,21.3s-11.4,21.2-29,21.3ZM219.6,0h-1c-11.5.2-21.3,3.2-28.4,8.3V3h-12.5v80h12.5v-28.1c7.1,5.1,17,8.2,28.4,8.3h1c24.1-.4,40.9-13.4,40.9-31.6S243.7.4,219.6,0Z"/>
  <path class="st0" d="M130.3,52.9h0c-17.6-.2-29-8.6-29-21.3s11.4-21.1,29-21.3c17.6.2,29,8.6,29,21.3s-11.4,21.2-29,21.3ZM130.8,0h-1c-11.5.2-21.3,3.2-28.4,8.3V3h-12.6v80h12.5v-28.1c7.1,5.1,17,8.2,28.4,8.3h1c24.1-.4,40.9-13.4,40.9-31.6S154.9.4,130.8,0Z"/>
</svg>