<?xml version="1.0" encoding="UTF-8"?>
<svg id="Layer_1" xmlns="http://www.w3.org/2000/svg" version="1.1" viewBox="0 0 200 87.02">
  <!-- Generator: Adobe Illustrator 30.3.0, SVG Export Plug-In . SVG Version: 2.1.3 Build 182)  -->
  <defs>
    <style>
      .st0 {
        fill: gray;
      }
    </style>
  </defs>
  <path class="st0" d="M79.23,86.98c-6.82-.37-11.92-3.18-14.89-8.21-2-3.38-2.61-7.83-1.69-12.38,1.01-5.04,4.45-9.57,9.73-12.84,3.03-1.88,5.63-3.04,10.92-4.9,1.33-.47,2.48-.9,2.55-.96.11-.08.12-.38.07-1.35-.15-2.75.31-7.04,1.08-10.13,1.31-5.2,3.82-9.4,7.16-11.95,2.4-1.83,5.54-3.21,8.66-3.8,1.73-.33,4.62-.32,6.24,0,6.96,1.4,10.87,6.77,9.33,12.82-.32,1.28-1.35,3.37-2.21,4.52-2.22,2.96-5.56,5.6-10.28,8.1-.59.32-2.54,1.27-4.31,2.12-1.78.85-3.29,1.6-3.36,1.67-.1.1-.07.39.12,1.36.89,4.49,2.37,8.29,4.91,12.54,1.01,1.69,2.41,3.82,2.57,3.92.23.14,1.17-1.38,1.78-2.88.76-1.86,1.19-4.32.98-5.54-.15-.88-.63-1.8-1.24-2.4-.28-.28-.51-.54-.51-.58,0-.04,2.37-.07,5.26-.05l5.27.03-.03.67c-.04.91-.38,2.86-.74,4.25-1.01,3.9-2.9,7.23-6.19,10.87-.39.43-.7.85-.7.94s.54.68,1.21,1.33c4.15,4.02,11.49,8.66,17.47,11.03.58.23,1.05.47,1.05.52,0,.07-3.46.11-10.09.13l-10.09.03-.57-.32c-1.17-.66-3.77-2.76-6.26-5.06-.53-.49-1.03-.89-1.11-.89s-.67.34-1.3.76c-3.24,2.14-7.11,4.06-10.38,5.15-3.72,1.24-6.8,1.68-10.39,1.49h0ZM87.72,78.24c1.51-.27,3.36-.82,5.07-1.5,1.71-.68,3.84-1.73,3.92-1.93.03-.08-.36-.74-.87-1.46-2.35-3.34-4.85-8.05-6.54-12.26-.62-1.56-1.78-5-2-5.94-.07-.3-.2-.57-.28-.61-.24-.09-2.16.94-3.83,2.04-5.92,3.92-8.75,8.71-8.12,13.72.28,2.22.98,3.85,2.26,5.21,2.37,2.53,6.07,3.5,10.4,2.73ZM97.77,43.44c2.19-1.28,5.66-4.4,7.61-6.81,2.49-3.1,3.81-5.99,3.81-8.33,0-1.34-.19-1.94-.81-2.56-.62-.62-1.31-.87-2.38-.87-3.15,0-6.57,3.74-8.05,8.84-.75,2.57-.93,3.95-.94,7.09,0,2.4.04,2.93.21,2.93.04,0,.28-.12.54-.28ZM149.93,86.92c-5.2-.52-8.62-1.3-12.49-2.83-5.26-2.08-8.54-4.67-11.31-8.89-.83-1.27-2.16-3.92-2.7-5.39-2.4-6.54-2.93-14.78-1.5-23.38,1.45-8.7,4.76-17.08,9.32-23.64,2.96-4.25,7.36-8.73,11.9-12.11,7.5-5.58,16.14-9.01,25.73-10.22C171.79.09,173.42,0,176.86,0c5.2,0,9.16.4,14.39,1.44,3.34.66,8.65,2.1,8.75,2.36.05.13-3.32,10.93-3.45,11.07-.04.05-.56-.3-1.15-.77-4.73-3.77-9.63-6.07-14.59-6.83-1.58-.24-4.56-.25-6.11,0-6.95,1.08-13.39,5.51-19.11,13.17-1.86,2.49-3.9,5.82-5.5,8.95-2.16,4.24-3.64,7.99-5.14,13-4.78,15.95-5.02,27.09-.72,33.12,1.77,2.49,4.36,4.07,7.65,4.67,1.89.35,6.46.14,6.92-.32.07-.07,2.31-7.07,4.97-15.54,4.37-13.92,4.84-15.49,4.89-16.28.07-1.06-.13-2.01-.61-2.92-.43-.83-1.58-1.95-2.52-2.48-.41-.23-.74-.45-.74-.49s7.33-.08,16.29-.08,16.29.03,16.29.08c0,.04-.4.26-.88.48-2.54,1.16-4.37,2.9-5.47,5.17-.24.49-2.29,6.86-5.37,16.67l-4.98,15.87-1.44.69c-5.87,2.82-13.04,4.84-20.2,5.71-1.32.16-7.99.29-9.09.18h0ZM0,85.76c-.03-.05.18-.24.48-.41,1.77-1.02,3.76-3.13,4.6-4.89.24-.51,22.59-71.67,23.08-73.51.09-.32.16-1,.16-1.51,0-1.55-.48-2.67-1.61-3.74-.31-.29-.56-.58-.56-.63,0-.14,39.02-.13,40.8.01,3.87.31,7.75,1.34,10.72,2.85,5.06,2.57,8.1,6.48,9.03,11.64.26,1.43.31,4.62.1,6.17-.87,6.29-3.72,12.97-7.6,17.8-6.29,7.82-16.58,12.83-29.2,14.2-4,.44-9.05.55-12.62.27-1.03-.08-1.9-.12-1.92-.1-.13.13-8.18,25.97-8.27,26.55-.28,1.78.63,3.78,2.21,4.83.31.21.54.42.51.47-.08.13-29.82.13-29.9,0h0ZM44.29,47.37c2.93-.52,5.52-1.61,8.02-3.36,1.21-.85,3.71-3.34,4.73-4.73,2.57-3.46,4.46-7.55,5.99-12.93.97-3.43,1.39-6.04,1.39-8.74,0-2.08-.19-3.32-.71-4.71-.78-2.06-2.35-3.69-4.36-4.51-1.72-.7-3.19-.88-6.73-.84l-2.67.03-6.2,19.73c-3.41,10.85-6.18,19.78-6.15,19.85.02.06.45.17.95.24.5.07.98.14,1.06.16.39.1,3.84-.06,4.67-.2h0Z"/>
</svg>