<?xml version="1.0" encoding="UTF-8"?>
<svg id="Layer_1" xmlns="http://www.w3.org/2000/svg" version="1.1" viewBox="0 0 80.01 17.93">
  <!-- Generator: Adobe Illustrator 30.3.0, SVG Export Plug-In . SVG Version: 2.1.3 Build 182)  -->
  <defs>
    <style>
      .st0 {
        fill: gray;
      }
    </style>
  </defs>
  <path class="st0" d="M8.83,4.4H0v13.19h2.4V6.8h6.43v-2.4ZM43.22,0h-2.4v17.59h2.4V0ZM36.01,4.4v1.61s-.76-1.02-2.27-1.57c-3.62-1.25-7.57.67-8.82,4.29s.67,7.57,4.29,8.82c1.47.51,3.06.51,4.53,0,1.51-.55,2.27-1.57,2.27-1.57v1.61h2.4V4.4h-2.4ZM31.48,15.59c-2.54,0-4.59-2.06-4.59-4.59s2.06-4.59,4.59-4.59,4.59,2.06,4.59,4.59-2.06,4.59-4.59,4.59M64.19,7.14c-.77-1.82-2.47-3.09-4.61-3.09-1.73,0-3.35.86-4.31,2.3-.78-1.39-2.15-2.3-3.97-2.3-1.4,0-2.5.58-3.28,1.51v-1.17h-2.4v13.19h2.4v-7.94c0-.61.08-1.09.23-1.44.64-1.5,2.37-2.21,3.87-1.57.71.3,1.27.86,1.57,1.57.15.35.23.83.23,1.44v7.94h2.4v-7.94c0-.61.08-1.09.23-1.44.64-1.5,2.37-2.21,3.87-1.57.71.3,1.27.86,1.57,1.57.15.35.23.83.23,1.44v7.94h2.4v-7.57c0-1.17-.16-2.19-.45-2.88h.02ZM21.27,6.04c-2.67-2.65-7.23-2.65-9.9,0-2.65,2.67-2.65,7.23,0,9.9,1.33,1.32,3.14,1.99,4.95,1.99,1.95,0,3.91-.66,5.35-1.99.41-.38.76-.81,1.05-1.26l-2.16-1.25c-.19.3-.42.58-.69.83-.95.88-2.25,1.32-3.54,1.32-1.2,0-2.4-.44-3.28-1.32-.6-.61-1.01-1.37-1.19-2.2h11.32c.32-2.15-.31-4.43-1.9-6.03M11.85,9.92c.18-.83.59-1.59,1.19-2.2,1.77-1.75,4.79-1.75,6.56,0,.6.61,1.01,1.37,1.19,2.2h-8.94ZM78.02,6.04c-2.67-2.65-7.23-2.65-9.9,0-2.65,2.67-2.65,7.23,0,9.9,1.33,1.32,3.14,1.99,4.95,1.99,1.95,0,3.9-.66,5.35-1.99.41-.38.76-.81,1.05-1.26l-2.16-1.25c-.19.3-.42.58-.69.83-.96.88-2.25,1.32-3.54,1.32-1.2,0-2.4-.44-3.28-1.32-.6-.61-1.01-1.37-1.19-2.2h11.32c.32-2.15-.31-4.43-1.9-6.03M68.6,9.92c.18-.83.59-1.59,1.19-2.2,1.77-1.75,4.79-1.75,6.56,0,.6.61,1.01,1.37,1.19,2.2h-8.94Z"/>
</svg>