<?xml version="1.0" encoding="UTF-8"?>
<svg id="Layer_1" xmlns="http://www.w3.org/2000/svg" xmlns:xlink="http://www.w3.org/1999/xlink" version="1.1" viewBox="0 0 500 100">
  <!-- Generator: Adobe Illustrator 30.3.0, SVG Export Plug-In . SVG Version: 2.1.3 Build 182)  -->
  <defs>
    <style>
      .st0 {
        fill: none;
      }

      .st1 {
        fill: gray;
      }

      .st2 {
        clip-path: url(#clippath);
      }
    </style>
    <clipPath id="clippath">
      <rect class="st0" width="100" height="100"/>
    </clipPath>
  </defs>
  <path class="st1" d="M451.04,36.88v-6.58h-21.54c-10.83,0-19.61,8.18-19.61,18.25v2.09c0,10.07,8.78,18.25,19.61,18.25h21.54v-6.54h-20.66c-7.7,0-13.92-5.41-13.92-12.07v-1.4c0-6.7,6.22-12.07,13.92-12.07h20.66v.08Z"/>
  <path class="st1" d="M144.61,30.39c-10.83,0-19.61,8.18-19.61,18.25v20.38h6.58v-20.01c0-6.66,6.22-12.07,13.92-12.07h18.65v-6.54h-19.53Z"/>
  <path class="st1" d="M337.18,30.39c-10.83,0-19.61,8.18-19.61,18.25v20.38h6.58v-20.01c0-6.66,6.22-12.07,13.92-12.07h18.65v-6.54h-19.53Z"/>
  <path class="st1" d="M463.72,19.89h-6.58v49.13h6.58v-5.98l10.51-9.99,15.12,15.72h8.99l-19.38-20.38,17.61-17.65h-9.31l-23.54,23.16V19.89Z"/>
  <path class="st1" d="M196.64,30.5c-1.28-.32-3.97-.56-7.14-.56s-5.82.24-7.14.56c-9.02,1.64-15.84,9.02-15.84,17.93v2.09c0,8.9,6.82,16.28,15.84,17.93,1.28.32,3.97.56,7.14.56s5.82-.24,7.14-.56c9.02-1.64,15.84-9.02,15.84-17.93v-2.09c0-8.9-6.82-16.28-15.84-17.93ZM205.94,50.19v.36c-.2,5.78-5.05,10.51-11.43,11.51-1.12.2-2.97.36-5.01.36s-3.85-.16-5.01-.36c-6.38-1-11.19-5.74-11.39-11.51v-1.76c0-5.94,4.93-10.87,11.43-11.87,1.12-.2,2.93-.36,5.01-.36s3.85.16,5.01.36c6.5,1.04,11.43,5.94,11.43,11.87v1.4h-.04Z"/>
  <path class="st1" d="M296.79,30.5c-1.28-.32-3.97-.56-7.14-.56s-5.82.24-7.14.56c-9.02,1.64-15.84,9.02-15.84,17.93v2.09c0,8.9,6.82,16.28,15.84,17.93,1.28.32,3.97.56,7.14.56s5.82-.24,7.14-.56c9.02-1.64,15.84-9.02,15.84-17.93v-2.09c0-8.9-6.82-16.28-15.84-17.93ZM306.1,50.19v.36c-.2,5.78-5.05,10.51-11.43,11.51-1.12.2-2.97.36-5.01.36s-3.85-.16-5.01-.36c-6.38-1-11.19-5.74-11.39-11.51v-1.76c0-5.94,4.93-10.87,11.43-11.87,1.12-.2,2.97-.36,5.01-.36s3.85.16,5.01.36c6.5,1.04,11.43,5.94,11.43,11.87v1.4h-.04Z"/>
  <path class="st1" d="M389.28,30.5c-1.29-.32-3.97-.56-7.14-.56s-5.86.24-7.14.56c-9.03,1.64-15.85,9.02-15.85,17.93v2.09c0,8.9,6.82,16.28,15.85,17.93,1.28.32,3.97.56,7.14.56s5.81-.24,7.14-.56c9.02-1.64,15.84-9.02,15.84-17.93v-2.09c0-8.9-6.82-16.28-15.84-17.93ZM398.58,50.19v.36c-.2,5.78-5.05,10.51-11.43,11.51-1.16.2-2.97.36-5.01.36s-3.85-.16-5.01-.36c-6.38-1-11.19-5.74-11.39-11.51v-1.76c0-5.94,4.94-10.87,11.43-11.87,1.12-.2,2.97-.36,5.01-.36s3.85.16,5.01.36c6.5,1.04,11.43,5.94,11.43,11.87v1.4h-.04Z"/>
  <path class="st1" d="M246.38,30.51c-1.24-.32-3.85-.56-6.9-.56s-5.62.24-6.9.56c-3.29.6-6.3,2.09-8.74,4.09v-14.76h-6.58v30.68c0,8.9,6.58,16.28,15.32,17.93,1.24.32,3.85.52,6.9.52s5.66-.24,6.9-.52c8.74-1.64,15.32-9.02,15.32-17.93v-2.09c0-8.9-6.58-16.28-15.32-17.93ZM255.32,50.2v.36c-.2,5.78-4.89,10.51-11.03,11.51-1.12.2-2.85.36-4.81.36s-3.73-.16-4.81-.36c-6.14-1-10.83-5.74-10.99-11.51v-1.76c0-5.94,4.73-10.87,11.03-11.87,1.08-.2,2.85-.36,4.81-.36s3.73.16,4.81.36c6.26,1.04,11.03,5.94,11.03,11.87v1.4h-.04Z"/>
  <g class="st2">
    <path class="st1" d="M50.76,0C23.15-.41.44,21.63,0,49.24c-.42,27.61,21.62,50.34,49.23,50.76,27.61.42,50.34-21.62,50.76-49.23C100.41,23.15,78.37.44,50.76,0ZM76.4,75.27H23.6c-2.76,0-4.14-3.35-2.18-5.29l.95-.93L61.08,30.79H28.82c-.22,0-.34-.27-.18-.42l5.67-5.61h34.21c2.76,0,4.14,3.35,2.18,5.29l-.76.74-38.77,38.26h37.7l-14.74-14.73,4.41-4.41,19.11,19.13.95.95c1.95,1.95.57,5.27-2.19,5.27Z"/>
  </g>
</svg>