<?xml version="1.0" encoding="UTF-8"?>
<svg id="Layer_1" xmlns="http://www.w3.org/2000/svg" xmlns:x="ns_extend;" version="1.1" viewBox="0 0 544.8 83.5">
  <!-- Generator: Adobe Illustrator 30.3.0, SVG Export Plug-In . SVG Version: 2.1.3 Build 182)  -->
  <defs>
    <style>
      .st0 {
        fill: gray;
      }
    </style>
  </defs>
  <path class="st0" d="M20.7,22.6c-.4-1.6-.3-3.2-.1-4.1.5-2.5,2.2-5.2,7.1-5.2,4.6,0,7.2,2.8,7.2,7.1v4.8h19.4v-5.5C54.4,2.7,39.1,0,28.1,0,14.3,0,3,4.6.9,17.3c-.6,3.5-.7,6.6.2,10.5,3.4,15.9,31.1,20.5,35.1,30.6.8,1.9.5,4.3.2,5.8-.6,2.6-2.4,5.3-7.6,5.3-4.9,0-7.8-2.8-7.8-7.1v-7.5H0v6c0,17.4,13.7,22.6,28.3,22.6s25.6-4.8,27.5-17.8c.9-6.7.2-11.1-.1-12.7-3.2-16.5-32.8-21.3-35-30.4ZM274,22.7c-.3-1.5-.2-3.2-.1-4,.6-2.5,2.2-5.2,7.1-5.2,4.5,0,7.1,2.8,7.1,7v4.8h19.2v-5.4c0-16.8-15-19.4-25.9-19.4-13.7,0-24.9,4.5-27,17.1-.5,3.4-.7,6.5.2,10.4,3.3,15.7,30.7,20.3,34.7,30.3.7,1.9.5,4.3.1,5.7-.6,2.6-2.3,5.2-7.5,5.2-4.8,0-7.8-2.8-7.8-7v-7.5h-20.7v5.9c0,17.2,13.5,22.4,28,22.4s25.4-4.8,27.2-17.6c.9-6.7.2-11-.1-12.6-3.1-16.2-32.3-21-34.5-30.1ZM450.8,65.2l-18.3-62.7h-28.9v77.1h19.1l-1.1-64.7,19.7,64.7h27.7V2.5h-19.2l1,62.7ZM83.4,2.5l-14.5,77.9h21l10.9-72.1,10.6,72.1h20.9L118,2.5h-34.6ZM201,2.5l-9.8,60.9-9.8-60.9h-31.8l-1.7,77.9h19.5l.5-72.1,13.4,72.1h19.7l13.4-72.1.5,72.1h19.5l-1.7-77.9h-31.7ZM382,2.5h-19.7v57.6c0,1,0,2.1-.2,3-.4,1.9-2,5.7-7.5,5.7s-7-3.7-7.4-5.7c-.2-.8-.2-2-.2-3V2.5h-19.7v55.8c0,1.4.1,4.4.2,5.1,1.4,14.5,12.8,19.3,27.1,19.3s25.8-4.7,27.2-19.3c.1-.8.3-3.7.2-5.1V2.5ZM517.2,36.6v11.4h8v11.3c0,1,0,2.1-.2,3-.3,2.1-2.3,5.7-8,5.7s-7.6-3.6-7.9-5.7c-.1-.9-.2-2-.2-3V23.7c0-1.3.1-2.6.4-3.7.4-1.9,2.1-5.6,7.7-5.6,6,0,7.4,3.9,7.8,5.6.2,1.1.2,3,.2,3v4.3h19.6v-2.6s.1-2.7-.1-5.2c-1.5-14.5-13.6-19.1-27.4-19.1s-25.6,4.7-27.3,19.2c-.2,1.3-.4,3.7-.4,5.2v32.7c0,1.4,0,2.5.3,5.1,1.3,14.2,13.6,19.2,27.4,19.2s26.1-5,27.4-19.2c.2-2.6.3-3.7.3-5.1v-20.9h-27.6Z"/>
</svg>