<?xml version="1.0" encoding="UTF-8"?>
<svg id="_圖層_1" data-name="圖層_1" xmlns="http://www.w3.org/2000/svg" version="1.1" viewBox="0 0 149.83 45">
  <!-- Generator: Adobe Illustrator 30.3.0, SVG Export Plug-In . SVG Version: 2.1.3 Build 182)  -->
  <defs>
    <style>
      .st0 {
        fill: gray;
      }
    </style>
  </defs>
  <path class="st0" d="M43.47,21.89v-6.44c-2.15,0-4.4-.31-6.54-.72-.61,2.04-1.02,4.19-1.12,6.34,2.45.51,5.01.82,7.67.82Z"/>
  <path class="st0" d="M17.18,0l-5.62,3.27c3.78,6.54,9.41,11.86,16.36,15.14.31-2.25.72-4.4,1.43-6.54-5.11-2.86-9.31-6.96-12.17-11.86Z"/>
  <path class="st0" d="M10.33,3.99l-5.62,3.27c1.23,2.04,2.15,4.29,2.86,6.65,2.15-.51,4.19-1.33,6.14-2.35-.92-2.66-2.05-5.21-3.38-7.57Z"/>
  <path class="st0" d="M8.69,22.5c0,5.32-1.43,10.53-4.09,15.24l5.62,3.17c3.27-5.62,5.01-12.07,5.01-18.51,0-.92,0-1.74-.1-2.66-2.04.92-4.19,1.64-6.34,2.15-.1.31-.1.51-.1.61Z"/>
  <path class="st0" d="M33.24,41.32l5.62-3.27c-1.23-2.15-2.15-4.4-2.86-6.75-2.15.51-4.09,1.33-6.03,2.35.82,2.66,1.84,5.22,3.27,7.67Z"/>
  <path class="st0" d="M38.97,7.57l-5.62-3.27c-3.68,6.34-5.42,13.71-5.01,21.07,2.04-.92,4.19-1.64,6.44-2.15,0-5.52,1.53-10.84,4.19-15.65Z"/>
  <path class="st0" d="M15.96,35.28c-1.74,1.94-3.27,4.09-4.6,6.34l5.62,3.27c1.12-2.04,2.56-3.89,4.09-5.62-1.43-1.53-3.27-2.86-5.11-3.99Z"/>
  <path class="st0" d="M43.47,23.01c-7.47,0-14.93,2.25-21.07,6.54,1.84,1.33,3.58,2.76,5.11,4.4,4.71-2.97,10.23-4.5,15.96-4.5h0v-6.44h0Z"/>
  <path class="st0" d="M.1,23.32v6.54c2.25,0,4.5.21,6.75.72.61-2.04.92-4.29,1.12-6.44-2.66-.51-5.22-.82-7.88-.82Z"/>
  <path class="st0" d="M32.22,41.83c-3.78-6.54-9.41-11.86-16.36-15.03-.31,2.25-.72,4.4-1.33,6.54,5.01,2.66,9.21,6.65,12.07,11.66h0l5.62-3.17h0Z"/>
  <path class="st0" d="M16.26,10.94l-.92.61c-4.6,2.66-9.92,4.09-15.34,3.99v6.44c6.44,0,12.89-1.64,18.51-4.91.92-.51,1.84-1.12,2.76-1.74-1.64-1.12-3.48-2.66-5.01-4.4Z"/>
  <path class="st0" d="M27.72,9.82c1.74-1.94,3.27-4.09,4.5-6.34L26.59.2c-1.12,1.94-2.46,3.78-3.99,5.42,1.53,1.64,3.27,3.07,5.11,4.19Z"/>
  <path class="st0" d="M58.6,9.72h-3.07v10.74h-2.66v-10.74h-3.17v-2.15h9.31l-.41,2.15Z"/>
  <path class="st0" d="M66.38,20.56l-.92-3.07h-3.78l-.92,3.07h-2.66l4.19-12.99h2.76l4.09,12.99h-2.76ZM64.12,12.68c-.1-.61-.51-2.25-.51-2.25l-.61,2.46c-.21.92-.41,1.53-.72,2.35h2.56c0,.1-.41-1.33-.72-2.56Z"/>
  <path class="st0" d="M70.47,20.45V7.46h2.66v12.99h-2.66Z"/>
  <path class="st0" d="M97.77,20.45l-.92-3.07h-3.78l-.92,3.07h-2.66l4.19-13.09h2.76l4.09,12.99-2.76.1h0ZM95.52,12.68l-.51-2.25s-.41,1.53-.61,2.46-.41,1.53-.72,2.35h2.56s-.41-1.33-.72-2.56h0Z"/>
  <path class="st0" d="M108.21,20.45l-2.25-4.91c-.72-1.53-1.53-3.38-1.74-4.19.1,1.02.1,2.56.1,3.68l.1,5.52h-2.46V7.47h2.86l2.46,5.11c.51,1.23,1.02,2.35,1.43,3.68-.1-1.02-.2-2.66-.2-3.58v-5.22h2.46v12.99h-2.76Z"/>
  <path class="st0" d="M52.88,38.04v-13.09h7.36l-.31,2.15h-4.4v2.97h3.68v2.15h-3.68v3.58h4.91v2.25h-7.57Z"/>
  <path class="st0" d="M68.73,37.94l-2.35-4.6-2.25,4.6h-3.17l4.09-6.96-3.48-6.03h3.17l1.74,3.48,1.74-3.48h3.17l-3.48,5.93,3.99,7.06h-3.17Z"/>
  <path class="st0" d="M77.93,38.15c-1.64.1-3.17-.61-4.19-1.74-1.12-1.33-1.64-2.97-1.53-4.6,0-1.43.21-2.76.92-3.99.92-1.84,2.86-2.97,4.91-2.97,1.23,0,2.35.31,3.27,1.02l-1.23,1.53c-.61-.51-1.33-.72-2.04-.72-.92,0-1.74.41-2.25,1.12-.61,1.02-.82,2.15-.72,3.38-.1,1.23.1,2.35.51,3.48.51.92,1.43,1.53,2.46,1.43.82,0,1.64-.31,2.25-.82l1.23,1.53c-1.02.92-2.25,1.43-3.58,1.33Z"/>
  <path class="st0" d="M83.15,37.94v-12.99h7.36l-.31,2.15h-4.4v2.97h3.68v2.15h-3.68v3.58h4.91v2.25h-7.57v-.1Z"/>
  <path class="st0" d="M99.51,37.94h-6.85v-13.09h2.66v10.74h4.6l-.41,2.35Z"/>
  <path class="st0" d="M108.41,37.94h-6.85v-13.09h2.66v10.74h4.6l-.41,2.35Z"/>
  <path class="st0" d="M110.46,37.94v-13.09h7.36l-.31,2.15h-4.4v2.97h3.68v2.15h-3.68v3.48h4.91v2.25h-7.57v.1h0Z"/>
  <path class="st0" d="M126.2,37.84l-2.25-4.91c-.72-1.53-1.53-3.48-1.74-4.19.1,1.02.1,2.56.1,3.68l.1,5.52h-2.45v-13.09h2.86l2.45,5.22c.61,1.23,1.02,2.35,1.43,3.68-.1-1.02-.2-2.66-.2-3.58v-5.32h2.45v13.09h-2.66l-.1-.1Z"/>
  <path class="st0" d="M137.04,38.04c-1.64.1-3.17-.61-4.19-1.74-1.12-1.33-1.64-2.97-1.53-4.6,0-1.43.2-2.76.92-3.99.92-1.84,2.86-2.97,4.91-2.97,1.12,0,2.35.31,3.27,1.02l-1.12,1.74c-.61-.51-1.33-.72-2.05-.72-.92,0-1.74.41-2.25,1.12-.51,1.02-.82,2.15-.72,3.38-.1,1.23.1,2.35.51,3.48.51.92,1.43,1.43,2.45,1.43.82,0,1.64-.31,2.25-.82l1.23,1.53c-1.02.72-2.35,1.23-3.68,1.12Z"/>
  <path class="st0" d="M142.36,37.84v-12.99h7.36l-.31,2.15h-4.4v2.97h3.58v2.15h-3.68v3.38h4.91v2.35h-7.47Z"/>
  <path class="st0" d="M87.14,20.56h-2.76l-1.23-5.32c-.31-1.84-.61-4.09-.72-4.5-.1.41-.41,2.76-.61,4.6l-1.23,5.22h-2.86l-3.07-13.09h2.56l1.02,5.11c.51,2.46,1.02,5.42,1.02,5.42.1-.61.51-3.58.82-5.42l1.02-5.11h2.66l1.12,5.73c.2,1.23.72,4.7.72,4.7.1-.41.61-4.19.92-5.42l1.02-5.01h2.56l-2.97,13.09Z"/>
</svg>