<?xml version="1.0" encoding="UTF-8"?>
<svg id="Layer_1" xmlns="http://www.w3.org/2000/svg" version="1.1" viewBox="0 0 200 93.9">
  <!-- Generator: Adobe Illustrator 30.3.0, SVG Export Plug-In . SVG Version: 2.1.3 Build 182)  -->
  <defs>
    <style>
      .st0 {
        fill: gray;
      }
    </style>
  </defs>
  <path class="st0" d="M70.5,28h-5.8V5.1h-8.4V.1h22.6v5h-8.4v22.9ZM86.8,15.5v12.5h-5.8V.1h5.8v10.6h10.9V.1h5.8v27.9h-5.8v-12.5h-10.9ZM126,5h-14.6v5.9h12.9v4.9h-12.9v7.3h14.6v4.9h-20V.1h20v4.9ZM17.3,32.3h5.4v27.8h-5.8l-11.4-19.8h-.1v19.8H0v-27.8h6.1l11.1,19.3h.1v-19.3ZM38.7,31.5c3.7,0,13.4,1.6,13.4,14.6s-9.7,14.6-13.4,14.6-13.4-1.6-13.4-14.6,9.7-14.6,13.4-14.6M38.7,55.9c3.1,0,7.5-1.9,7.5-9.7s-4.4-9.7-7.5-9.7-7.6,1.9-7.6,9.7,4.5,9.7,7.6,9.7M93.1,60.1h-5.8v-22.9h-8.5v-4.9h22.7v4.9h-8.4v22.9ZM109.4,47.6v12.5h-5.8v-27.8h5.8v10.5h10.8v-10.5h5.8v27.8h-5.8v-12.5h-10.8ZM54.5,32.3h14.1c7.4,0,8.8,5.5,8.8,7.9,0,3.1-1.6,5.7-4.3,6.6,2.3,1,3.5,1.9,3.5,7.1,0,4.1,0,5.1,1.2,5.5v.7h-6.4c-.4-1.3-.6-2.7-.6-5.6,0-3.8-.2-5.3-4.5-5.3h-6v10.9h-5.7s-.1-27.8-.1-27.8ZM67,44.5c3,0,4.5-1.1,4.5-3.8,0-1.5-.7-3.6-4.1-3.6h-7.2v7.4s6.8,0,6.8,0ZM41,93.1h-5.9v-28.6h20.3v5.1h-14.4v6.4h12.6v5.1h-12.6v12ZM58.1,93.1h-6.3l10.2-28.6h6.9l10.1,28.6h-6.5l-1.8-5.9h-10.7l-1.9,5.9ZM61.6,82.3h7.3l-3.5-11.3h-.1s-3.7,11.3-3.7,11.3ZM97.2,74c-.5-1.7-1.4-4.9-6.3-4.9-2.9,0-7.1,1.9-7.1,10,0,5.1,2,9.7,7.1,9.7,3.3,0,5.6-1.9,6.3-5.4h6c-1.2,6.2-5.2,10.5-12.4,10.5-7.6,0-13-5.1-13-15s5.8-15.1,13.1-15.1c8.5,0,12,5.9,12.3,10.1h-6s0,.1,0,.1ZM126.1,69.6h-15v6h13.3v5h-13.3v7.4h15v5.1h-20.5v-28.6h20.5v5.1ZM145.1,91.3v-14.7c0-6.6-5.4-12-12-12h-1.3v28.6h13.3s0-1.9,0-1.9ZM200,91.3v-24.4C200,30,170,0,133.1,0h-.7.1-.7v28h1.9c21.7.3,39.4,18,39.7,39.7v25.3h26.6v-1.7Z"/>
  <path class="st0" d="M169.1,92.3v-24.2c-.1-19.3-15.5-35-34.6-35.8h-2.2.1-.7v27.9h1.3c9,0,16.2,7.3,16.2,16.2v16.6h19.9v-.7h0Z"/>
</svg>