<?xml version="1.0" encoding="UTF-8"?>
<svg id="Layer_1" xmlns="http://www.w3.org/2000/svg" version="1.1" viewBox="0 0 338 340">
  <!-- Generator: Adobe Illustrator 30.3.0, SVG Export Plug-In . SVG Version: 2.1.3 Build 182)  -->
  <defs>
    <style>
      .st0 {
        fill: gray;
      }
    </style>
  </defs>
  <g id="D_4logos">
    <g id="Layer_7">
      <path class="st0" d="M298.7,314.9l7.9-20.8,7.9,20.8h-15.8ZM314.9,282.2h-16.5l-23.1,56.5h14.3l5.3-13.8h23.5l5.3,13.8h14.3l-23.1-56.5ZM198.5,328.9c-9.3,0-16.8-8.4-16.8-18.8s7.5-18.8,16.8-18.8,16.8,8.4,16.8,18.8-7.5,18.8-16.8,18.8M198.5,280.3c-16.5,0-29.8,13.4-29.8,29.8s13.4,29.8,29.8,29.8,29.8-13.4,29.8-29.8h0c0-16.5-13.3-29.8-29.8-29.8M80.7,328.9c-9.3,0-16.8-8.4-16.8-18.8s7.5-18.8,16.8-18.8,16.8,8.4,16.8,18.8-7.5,18.8-16.8,18.8M80.7,280.3c-16.5,0-29.8,13.4-29.8,29.8s13.4,29.8,29.8,29.8,29.8-13.4,29.8-29.8c.1-16.5-13.3-29.8-29.8-29.8h0M154.5,282.2l-14.6,22.9-14.6-22.9h-14.3l22.6,35.4v21.1h12.6v-21.1l22.6-35.4h-14.3ZM278.3,282.2h-48.3v10.8h17.9v45.7h12.6v-45.7h17.8v-10.8ZM0,293h17.9v45.7h12.6v-45.7h17.8v-10.8H0v10.8Z"/>
      <path class="st0" d="M147.9,114.9v-2.7c-24.4-3.6-42-13.6-42-25.2,0-.5,0-1,.1-1.6-6.2,7.5-9.8,16.2-9.8,25.5,0,26.5,29,48.2,66,50.4-8.3-6.3-14.3-24.6-14.3-46.4Z"/>
      <path class="st0" d="M168.6,79c-5.5,0-10.2,8.6-12.1,20.7,3.9.4,7.9.5,12.1.5s8.3-.2,12.1-.5c-1.8-12.1-6.6-20.7-12.1-20.7Z"/>
      <path class="st0" d="M168.6,113.8c-4.5,0-8.8-.2-13-.6.3,17.3,6,31,13,31s12.7-13.7,13-31c-4.2.4-8.5.6-13,.6Z"/>
      <path class="st0" d="M149.1,98.8c2.8-19,10.5-32.6,19.6-32.6s16.7,13.6,19.6,32.6c17.2-2.7,29.2-8.8,29.2-15.9,0-9.6-21.8-17.4-48.8-17.4s-48.8,7.8-48.8,17.4c-.1,7.1,12,13.2,29.2,15.9Z"/>
      <path class="st0" d="M231.3,87c0,11.7-17.5,21.6-42,25.2v2.7c0,21.7-6,40.1-14.3,46.4,37-2.3,66-24,66-50.4,0-9.3-3.6-18-9.8-25.5.1.6.1,1.1.1,1.6Z"/>
      <path class="st0" d="M55.7,0v226h226V0H55.7ZM168.6,167.8c-46.8,0-84.7-24.5-84.7-54.8,0-21.5,19.2-40.1,47.1-49.1,10.5-3.4,23.5-5.4,37.7-5.4s27.2,2,37.7,5.4c27.9,9,47.1,27.6,47.1,49.1-.1,30.2-38.1,54.8-84.9,54.8h0Z"/>
    </g>
  </g>
</svg>