<?xml version="1.0" encoding="UTF-8"?>
<svg id="Layer_1" xmlns="http://www.w3.org/2000/svg" version="1.1" viewBox="0 0 750 207">
  <!-- Generator: Adobe Illustrator 30.3.0, SVG Export Plug-In . SVG Version: 2.1.3 Build 182)  -->
  <defs>
    <style>
      .st0 {
        fill: gray;
      }
    </style>
  </defs>
  <path class="st0" d="M692.8,109.9l11.6-30.3,11.6,30.3s-23.2,0-23.2,0ZM716.4,62.4h-24l-33.6,82.3h20.8l7.6-20.1h34.3l7.7,20.1h20.8l-33.6-82.3ZM546.9,130.3c-13.6,0-24.5-12.2-24.5-27.3s11-27.3,24.5-27.3,24.5,12.2,24.5,27.3c.1,15.1-10.9,27.3-24.5,27.3M546.9,59.5c-24,0-43.5,19.5-43.5,43.5s19.5,43.5,43.5,43.5,43.5-19.4,43.5-43.4-19.5-43.6-43.5-43.6M375.4,130.3c-13.5,0-24.5-12.2-24.5-27.3s11-27.3,24.5-27.3,24.6,12.2,24.6,27.3-11,27.3-24.6,27.3M375.4,59.5c-24,0-43.4,19.5-43.4,43.5s19.4,43.5,43.4,43.5,43.5-19.4,43.5-43.4-19.5-43.6-43.5-43.6M482.9,62.4l-21.3,33.3-21.3-33.3h-20.8l33,51.6v30.7h18.3v-30.7l33-51.6h-20.9ZM663.2,62.4h-70.3v15.8h26.1v66.5h18.3v-66.6h25.9v-15.7h0ZM257.8,78.1h26.1v66.5h18.3v-66.5h25.9v-15.7h-70.4v15.7h.1Z"/>
  <g>
    <path class="st0" d="M84.2,104.9v-2.4c-22.3-3.3-38.3-12.3-38.3-23,0-.4,0-.9.1-1.4-5.6,6.8-8.9,14.7-8.9,23.2,0,24.2,26.4,44,60.2,46-7.6-5.8-13.1-22.6-13.1-42.4Z"/>
    <path class="st0" d="M103.1,72.1c-5.1,0-9.4,7.8-11.1,18.9,3.6.4,7.3.5,11.1.5s7.6-.2,11.1-.5c-1.8-11.1-6.1-18.9-11.1-18.9Z"/>
    <path class="st0" d="M85.2,90.2c2.6-17.4,9.6-29.8,17.9-29.8s15.3,12.4,17.9,29.8c15.7-2.4,26.7-8,26.5-14.5,0-8.8-19.9-15.9-44.5-15.9s-44.5,7.1-44.5,15.9c0,6.5,11,12,26.7,14.5Z"/>
    <path class="st0" d="M0,0v206.3h206.3V0H0ZM103,153.1c-42.7,0-77.3-22.4-77.3-50,0-19.6,17.5-36.6,43-44.8,9.6-3.1,21.5-4.9,34.4-4.9s24.8,1.8,34.4,4.9c25.5,8.2,43,25.2,42.8,44.8,0,27.6-34.6,50-77.3,50Z"/>
    <path class="st0" d="M103.1,103.9c-4.1,0-8.1-.2-11.9-.5.3,15.8,5.5,28.3,11.9,28.3s11.6-12.6,11.9-28.3c-3.9.3-7.8.5-11.9.5Z"/>
    <path class="st0" d="M160.4,79.5c0,10.6-16,19.7-38.3,23v2.4c0,19.8-5.5,36.6-13.1,42.4,33.7-2,60.2-21.8,60.2-46,0-8.4-3.2-16.4-8.9-23.2.1.4.1.9.1,1.4Z"/>
  </g>
</svg>