<?xml version="1.0" encoding="UTF-8"?>
<svg id="Layer_1" xmlns="http://www.w3.org/2000/svg" xmlns:x="ns_extend;" version="1.1" viewBox="0 0 117.5 129.3">
  <!-- Generator: Adobe Illustrator 30.3.0, SVG Export Plug-In . SVG Version: 2.1.3 Build 182)  -->
  <defs>
    <style>
      .st0 {
        fill: gray;
        fill-rule: evenodd;
      }
    </style>
  </defs>
  <g id="logo-sketch">
    <g id="text">
      <g id="Mask">
        <path id="path-1" class="st0" d="M113.9,114.9c2.1,0,3.5,1.2,3.6,2.7,0,1.1-.9,2-2,2-2.4,0-1.8-1.8-2.8-1.8-2.2,0-4,3.4-5.7,7.1l-.3.6-.4.9-.3.8c-.9,1.8-1.3,2.1-2,2.1-1.7,0-2-4.5-2.7-6.5-1.4,3-4.2,6.5-8.6,6.5-2.6-.1-5.1-1.4-5.1-5.4,0-4.5,3-7.7,6-7.7,2.3,0,3.8,2.4,3.8,4-.1,4.4-6,4.5-6,5.4s1.5,1.2,2.4,1.2c3.8,0,6.3-4.9,7.2-8.3.2-.6.7-1.8,1.8-1.8,1.2,0,.6,7.4,2.3,7.4,1.1,0,2.5-9.2,8.8-9.2ZM54.7,104.8c2-.1,3.6,1.8,3.8,4.8.4,8-2.3,11.2-3.7,14.1.3,1.1,2.2,3,4,3,.7,0,1.5-.3,1.7-.6-.2-.5-.3-1-.3-1.9,0-4.6,3.1-8.4,5.7-8.4,2.1,0,3.3,2.7,3.3,4.5,0,2.1-1.8,3.8-4.5,5.4.5.5,1.4.8,2.1.8,3.8.1,5.9-4.5,7.4-8.6.3-.8.8-1.9,1.7-1.9,1.6,0,2.2,10.4,4.9,10.4,1.1,0,2.1-2.3,2.1-4.1.1-1.4-.4-1.5-.4-3.4,0-2.1,1.1-3.9,2.7-3.9,1,0,1.3.9,1.3,2-.1,4.2-3.2,12-7.8,12-3.4,0-3.1-5.8-4.3-5.8-1.3,0-3.2,5.8-9.9,5.8-1.1,0-2.3-.5-3.2-1.6-1.6,1.1-3,1.5-4.5,1.5-2.5,0-3.6-2.5-4.6-2.5-1.2,0-2.6,2.5-6.6,2.5-3.2,0-3.8-4.2-4.9-4.2-1,0-2.6,4.2-4.3,4.2-1.4,0-2.2-1.7-3-3.5l-.2-.5c-.8-1.7-1.5-3.2-2.7-3.2-.9,0-2.8,1.7-4.7,3.4l-.5.5c-1.9,1.7-3.8,3.4-4.6,3.3-.7-.1-1-.5-.9-1.2.1-.9,1-3.4,1.3-4.5.6-2,1.1-4.2,1.4-4.9.2-.7,1-1.2,1.6-1.1.3,0,.4.5.5,1,.3,1.6.8,3.3,1.3,3.3.9,0,4.1-5.8,5.9-5.8,2.3,0,2.5,9.2,5.5,9.2,1,0,1.7-1.2,2.4-2.6.1-2.4.8-5.9,2.8-5.9,1.4,0,2,3.1,1,5.8-.1,3.2,2.1,4,3.5,4,1,0,2.7-.3,4.1-2.4-.8-1.7-1.3-5.2-1.4-6.4-.3-6.5,2.2-12.5,5-12.6ZM16.2,106.8c1.2-.4,1.7.2,2.2,1.6.6,2.1.6,4.9.4,8.8-.3,5.4-3.1,11.9-10,11.7C2.8,128.8.2,125,0,119.3c-.1-2.7.1-5.4,1.3-9.2.7-2,1.2-2.7,3.1-3.1,1.5-.3,1.3,1.2,1,3-.8,3.9-1.1,5.8-.9,10.3.3,4.7,2.5,6.6,4.9,6.6,3.7.1,5.3-2.8,6-7.1.5-3.4.1-5-.2-6.1-.2-.6-.8-1.9-.9-2.9-.4-2.2.8-3.7,1.9-4ZM64.9,118.9c-.6-.1-2,.6-2,2.7,0,1.7.6,2.5.9,2.8,2-.6,2.5-2.2,2.4-3.5,0-1.1-.6-2-1.3-2ZM92.7,118.8c-2.6,0-2.4,4.1-2,5,1.9-.3,3.2-1.4,3.5-2.4s-.1-2.6-1.5-2.6ZM54.9,108.7h-.1c-1.3.1-1.9,4.2-1.7,8.5.2,2.8.6,3.2,1,3.2.7,0,2.5-5.1,2.3-9.1-.1-1.8-.6-2.7-1.6-2.6h.1ZM43.3,105.6c1.2,0,2,.7,2.1,1.8.2,1.5-.9,3.1-2.4,3.1-1.3,0-1.9-.9-2.1-2-.1-1.6,1.1-2.9,2.4-2.9Z"/>
      </g>
    </g>
    <path id="fish" class="st0" d="M68.7,83.8c-.4-.7-.1-1.9-1.2-1.9-.7,0-.8.6-.9,1.1-1.5-.5-2.8-.7-4-.7-.8,0-1.5.1-2.2.3-.4-.7-2.2-2.1-3.7-2.6-.6,3.3-3.5,5.8-7.8,6.2-.2,2.1-1.9,2.7-3.2,2.7-.9,0-2.4-.3-2.5-.7-.5-3.1-2.8-4.8-3.9-5.2,0,.3.1.7.1,1,0,2.6-1.8,4.2-5.1,4.2-.5,0-1.2,0-1.7-.1,3.8,4.2,6.5,2.7,8.2,3.5,2.3,1,4.2,4.3,11.6,4.3,2.7,0,5.4-1.1,7.2-2.2.3,1.1,1.4,2.1,3.3,2.1,3.1,0,4.9-1,4.9-1.8,0-.2,0-.5-.6-.5-.5,0-.5.1-2.2.1-2,0-5.2-.8-6.7-4.3-.3-.6-.7-.6-.8-.6-1,0-2.6,3.6-8.9,3.6-2.7,0-3.9-1-3.9-1.2,0,0,0-.1.1-.1.3,0,1.2.1,2.4.1,4,0,7.2-1.9,9.2-4,.7-.8,1-.9,1.6-.9.5,0,1,.4,1.3,1.1.9,2.3,3,4.2,5.2,4.2,3,0,3.1-5.2,3.8-5.5.1,0,.3.1.4.1.4,0,.9-.3.9-.9.1-.8-.8-1-.9-1.4h0ZM63.7,87.7c-.8,0-1.4-.6-1.4-1.4s.6-1.5,1.4-1.5,1.4.7,1.4,1.4c.1.9-.6,1.5-1.4,1.5Z">
      <animate accumulate="none" additive="replace" attributeName="fill" begin="o1.begin+4s" calcMode="linear" dur="1s" fill="remove" restart="always" values="#1F36C7;#00D7C4;#1F36C7"/>
    </path>
    <path id="chilli_pepper" class="st0" d="M53.3,73.8c.7,0,1,.6,1.1,1.2.2-.2.5-.3.8-.3.7,0,1.1.5,1.1,1.1,0,.4-.2.7-.5.9.4.2.7.5.7.9,0,.5-.4.9-1,.9-.5,0-.9-.6-1.4-.6-.3,0-.7.1-.8.3.2.5.3.9.3,1.4,0,2.6-3.5,4.7-7.2,4.7s-5-2.1-5-3c0-.2.1-.3.4-.3.6,0,.7.2,2.4.2,3.9,0,2.5-5,6.2-5,.5,0,1.6.3,2,1,.3-.3.4-.7.4-1,0-.6-.4-1-.4-1.5s.4-.8.9-.9Z">
      <animate accumulate="none" additive="replace" attributeName="fill" begin="o1.begin+4.05s" calcMode="linear" dur="1s" fill="remove" restart="always" values="#1F36C7;#EB0000;#1F36C7"/>
    </path>
    <path id="swirl" class="st0" d="M30.1,71.2c4.4,0,7.8,3.7,7.8,9,0,2.4-1.3,5.9-6.6,5.9-6.3,0-10.1-5.3-10.1-8.7,0-2.9,1.9-4.7,3.1-5-1.3,5.2,1.6,10.2,7.4,10.2,2.9,0,4.3-1.4,4.3-3.9,0-2.8-1.9-5.5-5.2-5.5-1.6,0-2.8.9-2.8,2.2,0,2.1,1.8,3.4,3.7,3.4,1.2,0,2-.5,2-1.3,0-.1,0-.3-.1-.4-.1.1-.4.1-.8.1-1.5,0-2.7-.8-2.7-1.7,0-.7.5-1.1,1.1-1.1,2.2,0,3.7,2.2,3.7,3.8s-1.2,3-3.2,3c-4.3,0-6.2-3.5-6.2-5.8.1-2.5,2.2-4.2,4.6-4.2Z">
      <animate accumulate="none" additive="replace" attributeName="fill" begin="o1.begin+4.1s" calcMode="linear" dur="1s" fill="remove" restart="always" values="#1F36C7;#EB0000;#1F36C7"/>
    </path>
    <g id="packaging">
      <path class="st0" d="M82.8,83c-.9.7-3.1,2.3-6.8,2.3-2,0-2.8-.6-3.1-.6-.4,0-.8.4-1.2.8-.9,1-2,2.8-2,4.9,0,1.4,1.1,2.8,3.2,2.8,6.8,0,11.8-4.2,11.8-7.5.1-1.9-1.1-2.7-1.9-2.7ZM79.3,89.5l-3.9,1.1c.3-.8.5-1.7.5-2.6,0-.3,0-.5-.1-.8h.5c2.9,0,4.1-1.1,4.3-1.1s.4.1.4.7c0,.8-.4,1.9-1.7,2.7h0Z"/>
      <path class="st0" d="M77,83.8c1.6,0,3-.4,3.9-1.2.3-.2.4-.6.4-1v-.8c0-1-1.6-1.6-3.8-1.6-2.6,0-4,1.2-4,1.7v1.6c0,.6,1.5,1.3,3.5,1.3h0Z"/>
      <animate accumulate="none" additive="replace" attributeName="fill" begin="o1.begin+4.15s" calcMode="linear" dur="1s" fill="remove" restart="always" values="#1F36C7;#001F82;#1F36C7"/>
    </g>
    <path id="clothes" class="st0" d="M89.2,66.8c-5.3,0-3.9,4.5-10.1,5.9-1.1.2-1.5.6-1.5,1.1,0,.9.5,2.1,1.2,2.1,2.7,0,6.8-5.5,7.6-5.5.3,0,.6,0,.6.8,0,2-5.8,4.6-5.8,6,0,.8,2,2.6,4.1,2.6,2.9,0,5.5-5.8,6.1-5.8.5,0,.6.3.6.7,0,1.6-2,4.7-5.4,6-.7.3-.8.6-.8.8,0,.8.9,1.9,1.7,1.9,1,0,7.7-5.8,7.7-10.4.2-4.3-3.1-6.2-6-6.2h0ZM91.6,71.8c-.4,0-.8-.1-1-.3-.5-.2-1.3-.9-1.3-1.9s.5-1.3,1-1.3c1.5,0,3.2,1.3,3.2,2.4,0,.9-.8,1.1-1.9,1.1Z">
      <animate accumulate="none" additive="replace" attributeName="fill" begin="o1.begin+4.2s" calcMode="linear" dur="1s" fill="remove" restart="always" values="#1F36C7;#9C44C0;#1F36C7"/>
    </path>
    <path id="spoon" class="st0" d="M41.6,74.2h-.9c-.3,0-.8-.1-1.1-.3-.6-.5-.8-3.2-1.8-4.8-1.2-1.8-2.5-2.3-4.2-2.3-1.2,0-2.6.7-2.6,1.7,0,.6.3,1,2.6,1.6,2.9.7,4.3,2.3,4.6,4.1.3,1.8.6,3.2,1.3,3.9.9,1,2.6,1.9,4.2,1.9,1.3,0,2.3-.4,2.3-1.6-.1-1.3-1.9-4.2-4.4-4.2ZM43.5,78.1c-1.1,0-2.7-1.1-2.7-1.8,0-.5.5-.8.9-.8.9,0,2.5,1.1,2.5,2,0,.3-.2.6-.7.6Z">
      <animate accumulate="none" additive="replace" attributeName="fill" begin="o1.begin+4.25s" calcMode="linear" dur="1s" fill="remove" restart="always" values="#1F36C7;#E60067;#1F36C7"/>
    </path>
    <g id="wave">
      <path class="st0" d="M63.4,70.5c-.7,0-.7,1.1-.7,1.5s0,.5-.3.5-.5-.1-.8-.1c-.2,0-.4.2-.4.5,0,1.5,1.9,2.7,3.8,2.7,2.5,0,3.7-1.1,4.4-1.1.3,0,.4.3.4.5,0,.4-.4.9-.4,1.1,0,.6,1.2.1,1.2.8,0,.9-1.5,1.6-3.8,1.6-4.5,0-7.4-3.1-7.4-6,0-5.4,5.8-3.7,5.8-5.8,0-.7-.7-1.1-1.2-1.1.6-.8,1.4-.9,2.2-.9.6,0,1.2.1,1.7.1.7,0,1.4-.3,1.4-1.1,0-.5-.4-1.1-2.1-1.3.2-1.1,2.5-.5,2.5-1.5,0-.7-1.3-1.2-2.9-1.2-6.2,0-10.6,5.1-10.6,10.6,0,5,3.6,10.5,10.3,10.5s9.6-5.3,9.6-9.3c-1.2,1.1-4.4,1.4-6,1.4-4.7.1-6-2.4-6.7-2.4Z"/>
      <path class="st0" d="M68.5,71.2c1,0,1.7-.8,1.7-1.7,0-1.4-1.4-2.7-3.5-2.7.4.4.5.7.5,1.1,0,.5-.3,1.1-.3,1.7,0,.9.6,1.6,1.6,1.6ZM78.6,64.4c.3.4.4.8.4,1.2,0,1-.7,2-.7,3,0,1.2.9,2.2,2.3,2.2,1.5,0,2.5-1.2,2.5-2.6-.1-2-1.8-3.6-4.5-3.8ZM71.4,60.6c.5.6.7,1.2.7,1.9,0,1.6-1.2,3.2-1.2,4.7,0,2,1.3,3.3,3.2,3.3,2,0,3.2-1.7,3.2-3.6,0-2.7-2.1-5.6-5.9-6.3ZM74.2,66.3c-.5,0-.9-.4-.9-.9,0-.3.2-.7.2-1.1.1-.5,0-.9.3-.9.6,0,1.3,1.1,1.3,1.8,0,.6-.3,1.1-.9,1.1Z"/>
      <animate accumulate="none" additive="replace" attributeName="fill" begin="o1.begin+4.3s" calcMode="linear" dur="1s" fill="remove" restart="always" values="#1F36C7;#47C8FF;#1F36C7"/>
    </g>
    <g id="bowl">
      <path class="st0" d="M51.1,62c-1.6-.6-2.3-1.5-2.7-3.4-.8,1.1-1.2,2.1-1.2,2.7,0,2.4,3.3,2.4,3.3,4,0,.9-1.7,1.9-3.9,1.9-2.5,0-4.3-.4-5.9-2-.4-.4-.6-.8-1.1-.8-.6,0-.9,1-.9,2,0,3.4,3.3,7.5,7.9,7.5,5.7,0,8-3.9,8-7.1.1-1.9-.3-3.6-3.5-4.8ZM49.5,71.6c-.5,0-.6-.2-.6-.7,0-.3.1-.9.1-1.4,0-1.2.5-1.1,1.7-1.7.9-.4,1.2-.9,1.5-.9s.6.2.6.7c0,1.8-2,4-3.3,4Z"/>
      <path class="st0" d="M43.8,56.2c-.6,0-1.6-.6-2.6-1.4-1.1,1.1-1.9,2.6-1.9,4.3,0,3.5,3.7,6.4,7.3,6.4.6,0,1.2-.1,1.8-.2-2-.2-3.2-1.7-3.2-3.5,0-2.3,2.6-4.4,2.6-6.2,0-2.2-2.7-2.4-2.7-4.2,0-1.5,2.6-2.6,2.5-5,0-1.4-1.4-3.1-3.3-4.1.3.6.5,1.4.5,1.9,0,2.8-5.4,4-5.4,6.2,0,2.8,5.2,3.9,5.2,5.2,0,.3-.2.6-.8.6Z"/>
      <animate accumulate="none" additive="replace" attributeName="fill" begin="o1.begin+4.35s" calcMode="linear" dur="1s" fill="remove" restart="always" values="#1F36C7;#9C44C0;#1F36C7"/>
    </g>
    <path id="heart" class="st0" d="M98.3,58c1.8,0,3.2,2.3,3.2,5,0,2.9-1.4,6-3.8,8.2,0-4.8-5.9-3.3-5.9-6.8,0-1.5,1.1-2.5,2.4-2.5,1.1,0,2,.3,2.7,1-.6-.6-1-1.5-1-2.3,0-1.3.8-2.6,2.4-2.6h0Z">
      <animate accumulate="none" additive="replace" attributeName="fill" begin="o1.begin+4.4s" calcMode="linear" dur="1s" fill="remove" restart="always" values="#1F36C7;#EB0000;#1F36C7"/>
    </path>
    <path id="flower" class="st0" d="M27.5,62.9c-.5.1-.9.2-1.2.5-.3-1.1-1.3-2.1-2.7-1.8-1.2.2-2.1,1.3-1.9,2.7,0,.2.1.5.2.7,0,0-.2,0-.4.1-1,.2-2.2,1.2-2,2.7.2,1.3,1.3,2.2,2.6,2.1.5-.1.9-.2,1.2-.4.3,1.2,1.3,1.9,2.6,1.8,1.3-.2,2.2-1.3,2.1-2.6,0-.4-.1-.6-.2-.8h.3c1.3-.3,2.2-1.3,2.1-2.6-.4-1.6-1.5-2.6-2.7-2.4h0ZM24.9,67.8c-.8.1-1.4-.5-1.5-1.2-.1-.8.4-1.5,1.2-1.6.8-.1,1.4.5,1.5,1.2.1.8-.4,1.5-1.2,1.6Z">
      <animate accumulate="none" additive="replace" attributeName="fill" begin="o1.begin+4.45s" calcMode="linear" dur="1s" fill="remove" restart="always" values="#1F36C7;#F752C7;#1F36C7"/>
    </path>
    <g id="transformation">
      <path class="st0" d="M92.3,56.9c0-.5,1.2-1.7,1.2-2.1,0-.1-.1-.2-.2-.2-.5,0-2.2,1.3-4.7,1.3-1,0-1.7-.1-1.7-.9,0-.7.6-1.3,1.6-1.7,1.1-.5,3.3-.5,3.3-1,0-.4-2.1-.4-2.1-.8,0-.5.8-1.7.8-2.2,0,0,0-.2-.1-.2-.4,0-1.4,1.2-2,1.2s-1.1-1.5-1.6-1.5c-.1,0-.3.1-.3.4,0,.6.3,1.7.3,3.2,0,1.3-.7,2.4-1.4,2.4-.9,0-1.2-1.1-1.2-2,0-1.3.7-2.8.7-4.2,0-.3-.1-.4-.3-.4-.5,0-1.3,1.5-1.9,1.5-.4,0-1.1-1.8-1.7-1.8-.1,0-.2.3-.2.7,0,.5.1,1.2.1,1.5,0,.4-.5.5-1.1.5-.4,0-1.2,0-1.2.3s.8.6,1.5,1.1c1.3.9,3.4,1.8,3.4,3.9,0,1.9-2.7,3.2-4.6,3.6-.9.1-1.8.3-1.8.6,0,.4,2.4.5,2.4,1,0,.3-1.1,1.7-1.1,2.1,0,.1.1.1.1.1.4,0,1.6-1,2.1-1,.7,0,.6,2.1,1.1,2.1.6,0,.4-3.1.6-3.9.4-1.4,1.4-2.8,2.3-2.8,1.1,0,1.2,1.9,1.2,2.8,0,1.8-1.3,3.7-1.3,4.6,0,.1.1.2.2.2.4,0,1.3-1.2,1.8-1.2s1.6,2,2,2c.2,0,.3-.2.3-.4,0-.6-.3-1.6-.3-2.2,0-.7,2.3-.3,2.3-.8,0-.2-1-.6-1.6-1-1.3-.8-2.8-2.5-2.8-3.9,0-.5.3-.9.7-.9,2.8,0,4,4.3,4.5,4.3s.2-1.9.4-2.2c.1-.1.4-.2.7-.2.5,0,1.1.1,1.5.1.3,0,.4,0,.4-.1-.1-.6-2.3-1.3-2.3-1.9h0Z"/>
      <path class="st0" d="M81.2,55.7c0-.9-3.9-3.9-4.7-3.9-.2,0-.3.1-.3.3,0,.3.1.7.1,1,0,.7-.3.8-1,.8-.8,0-2.1-.3-2.1-1.6,0-2.5,4.8-1.9,5.3-4.2-2.1,0-3.1-1.4-4.5-1.4-.5,0-1.5.3-1.5,1.6,0,.4.1,1.1.1,1.7s-.1,1-.8,1c-.6,0-.7-.7-.7-1.5,0-.7.1-1.5.1-2,0-3.7-4.1-2.2-4.5-5.2-1,1.8-1.3,3.1-1.3,4.2,0,3.9,5.3,3.5,5.3,6.2,0,.7-.5,1.1-1,1.1-.9,0-1.5-1.9-2.9-1.9-.7,0-1.2.5-1.2,1.6,0,.8.2,1.4.2,2.2,0,1.6-.7,2.3-1.4,3,4.8-.4,5.1-4,6.5-4,.4,0,.6.3.6.5,0,.6-1,1.6-1,2.6,0,1.3,1.5,2,2.5,2,1.2,0,1.6-.4,1.6-1.2,0-.9-1.6-2.1-1.6-3.1,0-.5.5-.6,1.2-.6,1.5,0,2,.2,2,.5,0,.4-.6,1.2-.6,1.4,0,.1.1.4.4.4,1.1.2,5.2-.7,5.2-1.5Z"/>
      <animate accumulate="none" additive="replace" attributeName="fill" begin="o1.begin+4.5s" calcMode="linear" dur="1s" fill="remove" restart="always" values="#1F36C7;#00D7C4;#1F36C7"/>
    </g>
    <path id="hair" class="st0" d="M30.7,42.2c-.7,1.3-.9,3-.9,4,0,6.1,7.3,11.8,7.3,15.6,0,1.5-1.1,3.3-3.1,3.3-1.8,0-2.8-1.4-2.8-2.6,0-.9.6-1.7.9-1.7.1,0,.1.1.1.3,0,.5.4,1.2,1.2,1.1.8,0,1.2-.5,1.2-1.2,0-3-6-8.2-6-15.3-.3.8-.7,1.8-.7,3.3,0,3.4,2.5,7,2.5,10.3,0,1.3-1,2.5-2.3,2.5-1.5,0-2-1.2-2-1.9,0-.5.2-1,.4-1s.1.8.9.8c.9,0,1.2-.6,1.2-1.7,0-3-1.7-5.1-1.7-8.2,0-.5,0-1,.1-1.4-.9,1.1-1,2.7-1,4.1v3.7c0,2.5-1.2,3.6-2.7,3.6-1,0-1.9-.8-1.9-2.1,0-.2.1-.8.3-.8.3,0,.5.8,1.3.8,1.6,0,1.7-1.5,1.7-4.6-.2-3.8,1.2-7.9,6-10.9h0Z">
      <animate accumulate="none" additive="replace" attributeName="fill" begin="o1.begin+4.55s" calcMode="linear" dur="1s" fill="remove" restart="always" values="#1F36C7;#CF98D9;#1F36C7"/>
    </path>
    <path id="hand" class="st0" d="M20.8,40.4c.5,0,.7.5.7.9,0,1.7-2.2,6.7-2.2,8.1,0,.2.1.4.3.4.9,0,2.7-3.9,3.3-5.8.3-1,.8-1.5,1.2-1.5s.7.4.7,1.2c0,1.9-1.8,6.5-3.4,9.5-1.2,2.4-3.2,5.8-3.2,7.7,0,1,.2,2,1.6,3.2-2.3-.1-3.3-.4-4.2-2.1-3.9,7.6,7.2,6.9,3.4,13.7-.7-1.2-6.2-2.5-6.2-9.6,0-6.1,5.5-9.7,5.5-12.3,0-.5-.2-.9-.7-1.3-1.2-1-1.2-1.8-2.2-1.8-.7,0-1.5,1.6-.7,3,.3.5.5.8.5,1.2,0,1-1.6,3.7-2.7,3.7s-2-2.8-2-7.2c0-3.9.9-7.9,2-7.9.3,0,.4.2.4.5,0,.5-.1,1.4-.1,3,0,1.7.4,1.8.7,1.8,1.2,0,1-7.5,3-7.5.5,0,.6.5.6,1,0,1.7-.8,4.2-.8,5.5,0,.7.2.9.5.9,1-.1,2.5-8.3,4-8.3h0Z">
      <animate accumulate="none" additive="replace" attributeName="fill" begin="o1.begin+4.6s" calcMode="linear" dur="1s" fill="remove" restart="always" values="#1F36C7;#FFC000;#1F36C7"/>
    </path>
    <path id="plant" class="st0" d="M102.1,50.2c-1.7,0-2.6,3-4.3,3.1,1-4.3,5.3-6.6,5.3-10.6,0-4.6-3.8-6.2-5.4-7.2-2.6-3.8-4.5-6.8-8.8-6.8-1.8,0-3,.3-4.2.3-2.4,0-3.2-.9-3.3-.9,0,0-.1,0-.1.2,0,3.4,1.8,11,9.4,11,4.1,0,5.8-1.6,6.8-1.6s4.3,1.1,4.3,5c0,2.1-1.7,4.3-2.3,4.3s-1.2-1-1.2-2c0-1.1.6-3.2.6-4.5,0-.5-.1-.7-.4-.7-.6,0-3.7,2-3.7,4.4,0,2.1,3.1,3.4,4.3,4-1.2,1.9-1.9,3.2-2.4,5,0-1.4-1.3-4.1-1.7-5.3-1.9-5.4-2.6-6.4-6.7-6.9.6,2.2,7.6,7.4,7.6,12.7,0,.3,0,.8-.1,1-2.1-6.2-5.7-7.7-7-9.2-2.1-2.4-.9-4.7-4.3-6,.2.3.3.7.3,1,0,1.2-.6,2.6-.6,3.6,0,3.8,4.3,2.6,6.9,4.7,2.5,2,3.9,5.3,4.9,9,1-1.6,1.6-3.6,3.3-3.6,1.1,0,1.5,1.4,1.5,2.5v.5c1.7-1.5,2.6-3.9,2.6-5.5-.1-.8-.5-1.5-1.3-1.5h0ZM95.3,36.1c-.4,0-1-.2-1.5-.2-1.2,0-2.1,1.7-2.7,1.7-.2,0-.3-.2-.3-.4,0-.7,1.2-1.5,1.2-2,0-.3-.5-.4-.7-.4-1.2,0-2.9,1.7-3.9,1.7-.2,0-.4-.1-.4-.3,0-.5,1.3-1.1,1.3-1.6s-.5-.5-.9-.5c-.6,0-1.8.3-2.5.3-.4,0-.7-.1-.7-.4,0-.7,2.3-.3,2.3-1.1,0-.4-.7-1.2-.7-1.6,0-.2.2-.3.4-.3.8,0,1.7,2.3,2.6,2.3.4,0,.5-.3.5-.8s-.1-.7-.1-1.1.2-.5.3-.5c.6,0,1.1,3.2,2.8,3.2.7,0,.2-2,.9-2,.4,0,.5.6.5.9.2,2.1,2.1,2.2,2.1,3-.1-.1-.2.1-.5.1h0Z">
      <animate accumulate="none" additive="replace" attributeName="fill" begin="o1.begin+4.65s" calcMode="linear" dur="1s" fill="remove" restart="always" values="#1F36C7;#00D7C4;#1F36C7"/>
    </path>
    <g id="particles">
      <path class="st0" d="M71.4,31.4c.8,0,1.4.6,1.4,1.3s-.6,1.3-1.4,1.3c-.7,0-1.4-.6-1.4-1.3s.7-1.3,1.4-1.3ZM80.6,44c-.7,0-1.4.6-1.4,1.3,0,.8.7,1.3,1.4,1.3.8,0,1.4-.6,1.4-1.4,0-.7-.6-1.2-1.4-1.2ZM76,41.5c-1.4,0-2.5,1.1-2.5,2.4s1.1,2.4,2.5,2.4,2.5-1.1,2.5-2.4-1.1-2.4-2.5-2.4ZM71.6,40.4c-.8,0-1.4.6-1.4,1.4s.7,1.4,1.4,1.4c.8,0,1.4-.6,1.4-1.4s-.6-1.4-1.4-1.4ZM80.4,42.6c.9,0,1.7-.7,1.7-1.6s-.8-1.6-1.7-1.6-1.7.7-1.7,1.6c0,.8.8,1.6,1.7,1.6ZM67.4,37.5c-1.1,0-2.1.9-2.1,2s.9,2,2.1,2c1.1,0,2.1-.9,2.1-2-.1-1.1-1-2-2.1-2ZM74.9,39c0,.8.6,1.4,1.4,1.4s1.4-.6,1.4-1.4-.6-1.4-1.4-1.4-1.4.7-1.4,1.4ZM72.1,39.4c1.2,0,2.2-.9,2.2-2.1s-1-2.1-2.2-2.1-2.2.9-2.2,2.1c0,1.1.9,2.1,2.2,2.1ZM80.1,38c.8,0,1.5-.7,1.5-1.5s-.7-1.5-1.5-1.4c-.8,0-1.5.7-1.5,1.5s.7,1.4,1.5,1.4ZM68,36c.8,0,1.4-.6,1.4-1.4s-.6-1.4-1.4-1.4-1.4.6-1.4,1.4c-.1.8.6,1.4,1.4,1.4ZM76.2,35.9c1.3,0,2.3-1,2.3-2.2s-1-2.2-2.3-2.2-2.3,1-2.3,2.2,1,2.2,2.3,2.2ZM77.9,30.7c.8,0,1.4-.6,1.4-1.3s-.6-1.3-1.4-1.3-1.4.6-1.4,1.3c.1.8.7,1.3,1.4,1.3Z"/>
      <animate accumulate="none" additive="replace" attributeName="fill" begin="o1.begin+4.7s" calcMode="linear" dur="1s" fill="remove" restart="always" values="#1F36C7;#FFA91F;#1F36C7"/>
    </g>
    <path id="tree" class="st0" d="M37.5,32.5c.9,0,2.5,1.5,2.9,3.1-.2,0-.4-.1-.5-.1-1.2,0-1.8,1.1-2.7,3,2.1-1.4,4-2.5,6.2-2.5,1.9,0,3.4,1.1,3.4,2.8,0,.7-.4,1.5-.8,2.3-.3-1.6-1.6-2.3-3.9-2.3-1.3,0-2.9.2-4.2.7,4.1.6,4.7,2,4.7,3.3,0,2.2-2.3,3.3-3.8,4,.1-.6.3-1.3.3-2,0-1.3-.5-2.9-2.6-4.3-.3,1.4-1.5,2.3-1.5,3.4,0,.4.3.6.5.6,0,.6-.3,2.4-.3,2.9,0,.9.2,1.1.7,1.2.3.8.3,2.2.5,2.9.1.4.4.5.7.5.3.7.7,1.8,1.3,2.2.1.1.3.4.3.6,0,.6-1,1.3-1.6,1.3-.2,0-.5-.1-.8-.8-.2-.5-2-1.6-2.1-2.2.1-.1.2-.3.2-.6,0-1-1.6-2.1-1.6-3.7.2-.1.4-.4.4-.7,0-.9-.9-2.6-.9-3.8.4,0,.6,0,.6-.6.1-1.2.3-2.9,1.4-3.9-.3,0-.6-.1-1-.1-2.2,0-5.5,1.2-6.8,4-.1-.4-.1-.8-.1-1.2,0-2.3,1.4-3.8,2.5-4.3.5-.2,1.2-.3,1.9-.3,1.2,0,2.5.2,3.9.5-1.2-1.6-3.1-2.7-4.7-2.7-.7,0-1.3.2-1.5.8-.1-.3-.1-.8-.1-1.2,0-1.7.6-2.7,2.1-2.7,2.2,0,4.2,2.6,5.3,5v-.3c0-3.4.1-5.1,1.5-5.2l.2.4h0Z">
      <animate accumulate="none" additive="replace" attributeName="fill" begin="o1.begin+4.75s" calcMode="linear" dur="1s" fill="remove" restart="always" values="#1F36C7;#00D7C4;#1F36C7"/>
    </path>
    <g id="bee">
      <path class="st0" d="M9.7,38.2c0,2.7.9,4,2.4,4,1.2,0,2.8-.8,4.7-2.4-1.5.3-2.6.5-3.6.5-1.3,0-2.4-.5-3.5-2.1ZM20.1,34.5c-.9.2-2.6,1.2-2.6,3,0,1.3,1,2.1,2.3,2.1.7,0,1.2-.1,1.5-.4-1-1-1.4-2-1.4-3.1,0-.7.1-1.2.2-1.6ZM23.2,31.6c-.8.9-1.7,2.5-1.7,4.1,0,1.9,1.2,3.5,3.1,3.5,1.8,0,2.7-1.5,2.7-3,.1-2.4-2.2-4.1-4.1-4.6ZM11,35v.5c0,1.7.9,2.6,2.2,2.6.9,0,2-.5,3-1.7-.4.1-.9.1-1.3.1-1.5.1-3-.3-3.9-1.5ZM18.4,25.8c-1.2,0-2.7.1-4.3,1.1-3.2,2-2.8,5.2-3.3,6.1-.1.1-.1.2-.1.4,0,.3.4.7.7.7s.5-.1.6-.1c.9,0,1.9.6,3.4.6.9,0,1.9-.3,3.1-.9,2.7-1.3,3.7-4.5,3.7-5,0-.7-.6-.6-1-1.2-.5-.6-.3-1.2-.6-1.5-.2-.2-.7-.2-1.4-.2,0,0-.8,0-.8,0ZM16.2,32.9c-1.2,0-2.6-1.5-2.6-2.8,0-.7.6-1.6,1-1.6.1,0,.2.1.3.4.2,1.7,1.4,2.7,2.5,3.2.1.1.2.1.2.2-.1.3-.8.6-1.4.6ZM20.6,29.6c0,.5-.3,1.1-.9,1.1-1.3,0-2.3-1.9-2.4-3,0-.7.4-.7,1-.7.3,0,.4,0,.6.1.3.2.3.9.7,1.4.3.4,1,.8,1,1.1ZM23.4,28c0,.8.7,1.4,1.5,1.4s1.5-.6,1.5-1.4-.7-1.4-1.5-1.4c-.8-.1-1.5.6-1.5,1.4ZM22.9,26.2c.8,0,1.5-.6,1.5-1.4s-.7-1.4-1.5-1.4-1.5.6-1.5,1.4c.1.7.7,1.4,1.5,1.4ZM12.8,25.5c1.3,0,2.4-.8,2.4-.8-2.2-.6-3.4-2.1-3.4-4.2v-.6c-1.4.6-2,1.7-2,2.8.1,1.7,1.4,2.8,3,2.8ZM19.3,23.9c.2-.6.3-1.3.3-2.1,0-1.7-.8-4.3-3.4-4.3-1.5,0-2.5,1.1-2.5,2.4.1,2.9,3.1,4,5.6,4Z"/>
      <animate accumulate="none" additive="replace" attributeName="fill" begin="o1.begin+4.8s" calcMode="linear" dur="1s" fill="remove" restart="always" values="#1F36C7;#FFE300;#1F36C7"/>
    </g>
    <g id="ice_cream">
      <path class="st0" d="M101.5,23c-1.6,3.2-5.6,3.9-6.9,3.7.4,3.3,5.3,7.7,6.6,7.6.9-.1,1.2-4.3,1.2-7.6,0-1.9.1-3.4-.9-3.7h0ZM101.6,19.9c0-1.2-.5-2.1-1.9-2.3.2.3.3.6.3,1.1,0,1.9-2.8,4-5.9,4-1.1,0-1.5.8-1.4,1.2,0,1,.9,1.4,2.2,1.4,3.5-.1,6.7-2.9,6.7-5.4h0Z"/>
      <path class="st0" d="M94.1,21.4c1.4,0,4.4-1.2,4.4-2.8,0-.5-.2-1-1-1-1.1,0-2.6,1.1-4.1,1.1-.5,0-1.1,0-1.7-.2.6.4.5,1.4.8,2.1.5.8,1.1.8,1.6.8Z"/>
      <animate accumulate="none" additive="replace" attributeName="fill" begin="o1.begin+4.85s" calcMode="linear" dur="1s" fill="remove" restart="always" values="#1F36C7;#F752C7;#1F36C7"/>
    </g>
    <g id="cycle">
      <path class="st0" d="M75.3,22.2c0,3.2-2.2,4.5-4.2,4.5-.5,0-.9-.1-1.3-.3.4-.4.8-1,.8-1.4,0-.3-.2-.4-.5-.4-.2,0-.7.1-1.1.1-1,0-1.8-.4-2.7-1.3-.6.9-.9,2.1-.9,3.3,0,1.9.7,3.8,1.5,3.9.4,0,.4-1.3,1.1-1.3.2,0,1,.6,2.7.6,2.5,0,5.3-1.5,5.3-5.4-.1-.5-.3-1.7-.7-2.3h0Z"/>
      <path class="st0" d="M69.6,20.2c.5,0,1.5.2,1.8.7-.4.2-.8.7-.8,1.1,0,.2.1.4.3.5.9.4,1.4,1.1,1.7,1.7,1.6-.9,2.2-3.4,2.2-4.8,0-.4,0-1-.4-1-.3,0-.6.4-1,.4-.3,0-1.2-1.2-3.4-1.2-2.5,0-3.6,1.9-3.6,3.5,0,.4.1.9.2,1.2.5-1,1.5-2.1,3-2.1h0Z"/>
      <animate accumulate="none" additive="replace" attributeName="fill" begin="o1.begin+4.9s" calcMode="linear" dur="1s" fill="remove" restart="always" values="#1F36C7;#47C8FF;#1F36C7"/>
    </g>
    <path id="DNA" class="st0" d="M44.3,22.3c-1.8,0-3.4,1.5-4.6,3.5.1-.4.1-.8.1-1.2,0-2.8-1.5-5.2-4.2-5.2-2.2,0-4.3,1.3-5.1,3.9.2-.2,1-.7,1.6-.7.7,0,.9.6.9,1.6,0,.6-.1,1.4-.4,2.1-.4,1.2-1.2,1.5-1.6,1.5-1.7,0-.9-2.9-1.8-2.9-.7,0-.9,1.6-.9,2.2,0,2,1.3,4.1,4.2,4.1,3.1,0,4.8-1.5,6.6-3.4.4,2.1,1.5,5.8,4.6,5.8,1.7,0,2.9-1.4,3-3.1-.2.2-.5.4-.9.4-.6,0-.8-.9-.8-1.7,0-1.3.4-2.7,1-2.7.3,0,.5.2.6,1.2.1.7,0,1.6.5,1.6s.7-1.5.7-2.4c-.1-2.6-1.2-4.7-3.5-4.6h0ZM34,29.1c-.3,0-.4-.3-.4-.5,0-1.4,1.5-7.6,2.6-7.6.2,0,.3.2.3.5,0,1.1-1.3,7.6-2.5,7.6ZM38.6,26.4c-.9,1-1.4,1.5-1.8,1.5-.2,0-.4-.4-.4-.8,0-.7.5-3.6,1.6-3.6.4,0,.7.8.7,1.5,0,.6,0,1-.1,1.4ZM40.7,28.9c-.3,0-.6-.6-.6-1.8.6-1,.9-1.4,1.3-1.4.1,0,.3.1.3.7-.1,1.3-.6,2.5-1,2.5ZM42.5,31c-.2,0-.4-.3-.4-1.1,0-1.9,1.2-5.4,1.9-5.4.2,0,.3.5.3,1,.1,2.1-.9,5.5-1.8,5.5Z">
      <animate accumulate="none" additive="replace" attributeName="fill" begin="o1.begin+4.95s" calcMode="linear" dur="1s" fill="remove" restart="always" values="#1F36C7;#E60067;#1F36C7"/>
    </path>
    <path id="lips" class="st0" d="M88.4,18.2c-.7,0-1.8.8-2.6.8-1.1,0-.8-1.5-2-1.5-.3,0-.6.1-.9.3-2.5,1.3-4.5.8-4.9,1.1-.1.1-.2.1-.2.4,0,2.8,2.8,7,7.4,7,3.2,0,5.8-1.1,5.8-3-.1-1.6-1.6-5.1-2.6-5.1ZM85.5,23.6c-2.6,0-4.2-1.5-4.2-2.4,0-.1.1-.2.2-.2.4,0,1.5.6,3,.8,1.7.3,2.6.3,3.1.3s.7.1.7.3c-.1.5-1.3,1.2-2.8,1.2Z">
      <animate accumulate="none" additive="replace" attributeName="fill" begin="o1.begin+5s" calcMode="linear" dur="1s" fill="remove" restart="always" values="#1F36C7;#EB0000;#1F36C7"/>
    </path>
    <path id="dove" class="st0" d="M102.4,1.4c-1.8,0-2-.5-3.2-.5-1.4,0-2.4,1-2.4,2.5,0,.5.2,1.3.2,2.3,0,1.2-.2,2.4-1.3,2.4-1,0-1.4-.7-1.4-1.5,0-1.4.7-2.4.7-3.3,0-1.7-2-2.2-4.2-2.2-2.6,0-5.4.7-5.4,1.1,0,.6,3.7.2,6.4,3.7-1.7,0-5,.8-5,1.3,0,.6,6,1.2,6,3.7,0,1.6-1.3,1.8-1.8,1.8-2,0-3-2.1-3.5-2.1-.1,0-.3.1-.3.3,0,.3.3,1.2.3,2.1,0,2.3-2.5,2.5-2.5,3,0,.2.1.2.4.3,1.8.3,3.7.4,5.4.4,6.4,0,11.5-2,11.5-7.6,0-3.1-1-4.1-1-5.6-.2-.5.2-1.6,1.1-2.1ZM93.5,13.6h-1.3c4.1-.7,6.4-3.1,6.4-6.3.9.3,1.5,1.2,1.5,2.2-.1,1.9-1.8,4.1-6.6,4.1h0ZM99.2,3.9c-.5,0-.9-.4-.9-.9s.4-.9.9-.9.9.4.9.9-.4.9-.9.9Z">
      <animate accumulate="none" additive="replace" attributeName="fill" begin="o1.begin+5.05s" calcMode="linear" dur="1s" fill="remove" restart="always" values="#1F36C7;#00D7C4;#1F36C7"/>
    </path>
    <path id="spark" class="st0" d="M77.5.2c-2.4,0-4.2,1.2-5.2,1.2C71.7,1.4,70.9,0,70.4,0c-.2,0-.4.4-.4,1v.2c0,.5-.1,1.4-.4,1.4-.9,0-4.3-2.4-4.3-1.6s2.3,3.3,2.3,3.9-2.2,1.2-2.2,1.7c0,.8,2.4.9,2.4,1.9s-2.5,1.8-2.5,2.5c0,.6,2.5.2,2.5.9s-1.8,3.2-1.8,3.9q0,.2.2.2c.7,0,2.8-2.3,3.3-2.3.6,0,.7,1.4.8,2.2.1.4.1.5.3.5.4,0,1.1-1.6,1.6-1.6.7,0,2.5,1.9,5.6,1.9,4.4,0,8.5-3,8.5-8.3.1-5.2-3.7-8.2-8.8-8.2h0ZM71.4,11.6c-.1,0-.2-.1-.2-.3l-.1-1.4c0-.1-.1-.3-.3-.3h-1.5c-.2,0-.3,0-.3-.1,0-.3,1.5-1.3,1.5-1.5,0-.4-1.4-1.1-1.4-1.6,0-.1.1-.1.2-.1.4,0,1.1.1,1.6.1s.5-2,.9-2c.3,0,.7,1.9,1.1,1.9.5,0,1.3-.5,1.7-.5q.1,0,.1.1c0,.2-.9,1.2-.9,1.5s2,.7,2,1c0,.4-2.1.3-2.1.6,0,.2.8,1.2.8,1.6q0,.1-.1.1c-.3,0-1.4-.5-1.7-.5-.4,0-1,1.4-1.3,1.4ZM77.6,14.7c-2.5,0-4.2-1.2-4.2-1.9,0-.3.2-.5.5-.5.8,0,2.5,1.2,3.1,1.2.1,0,.3-.1.3-.3,0-.6-.6-1.7-.6-2.2,0-.1.1-.2.3-.2,1,0,2.4.4,3.2.4.3,0,.3-.1.3-.3,0-.8-2.4-2.3-2.4-2.8,0-.4,2.9-1.1,2.9-1.7,0-.7-4-.2-4-.9,0-.5.8-1.3.8-1.7,0-.2-.1-.2-.4-.2s-2.1.7-2.8.7c-.4,0-.8-.1-.8-.6,0-.8,1.4-1.7,3.6-1.7,3.6,0,5.7,2.4,5.7,6.4.1,5-3.5,6.3-5.5,6.3Z">
      <animate accumulate="none" additive="replace" attributeName="fill" begin="o1.begin+5.1s" calcMode="linear" dur="1.5s" fill="remove" restart="always" values="#1F36C7;#FCA6DE;#1F36C7"/>
    </path>
    <g id="sun">
      <path class="st0" d="M39.6,10.4c1.4,0,5.6,1.9,7.5,1.9.7,0,1.1-.4,1.1-.8,0-2.2-5.9-6.1-6-7.7,0-.2.1-.3.2-.4,1-1.1,5.2-1.8,5.2-2.7,0-.5-.9-.5-1.3-.5-3.4,0-8.3,1.2-8.3,2.4s4.4,4.2,4.4,5.7c0,.4-.3.5-.7.5-1.2,0-3.9-1.5-5.2-1.5-.6,0-.8.4-.8,1,0,1.7,2.1,5,2.1,6,0,.1,0,.3-.2.3-.7,0-3.7-3.6-4.8-3.6-.4,0-.4.5-.4,1.3v1.2c0,.8,0,1.3-.4,1.3-.9,0-1.4-2.6-2.3-2.6s-1.1,4.7-2,4.7c-1.1,0-.2-5.1-1.2-5.1-1.1,0-2.4,3.4-3.2,3.4-.3,0-.4-.3-.4-.5,0-1,.6-2.7.6-3.7,0-.5-.1-.8-.6-.8-1.1,0-3.6,1.8-4.5,1.8-.1,0-.3-.1-.3-.2,0-.9,4-3.6,4-4.8s-5.5-.4-5.5-1.8c0-1.1,3.9-2.3,3.9-3.5,0-1-4.6-1.5-6.4-1.5-2.1,0-3.3.3-3.3.9,0,.9,4.9,1.2,4.9,2s-5.1,2.9-5.1,4.1c0,1.1,7.1.1,7.1,1.2,0,1.2-6.2,6.5-6.2,8.3,0,.4.3.6.7.6,1.9,0,6.8-3.6,8.1-3.6.5,0,.5.6.5,1.1,0,.9-.3,2.4-.3,3.4,0,.8.2,1.4.9,1.4,1.3,0,2.6-2.3,3.5-2.3,1.2,0,.5,6.6,2.2,6.6,1.5,0,2.1-7.2,3-7.2s1.7,2.1,2.6,2.1c1.1,0,.6-3.6,1.7-3.6,1.3,0,4.9,4.3,6.6,4.3.5,0,.7-.4.7-.9,0-1.9-2.7-6.2-2.7-7.6.1-.5.2-.6.6-.6h0Z"/>
      <path class="st0" d="M41.9,12.9c-.1,0-.2.1-.2.2,0,1.3,4.6,7.4,5.4,7.4.7,0,1.3-1.3,1.3-2.3,0-.3-.1-.6-.2-.8-.7-1-5.3-4.5-6.3-4.5ZM15,9.4c0-.3-.6-.4-1.1-.4-.8,0-1.9.2-2.4.6-.4.3-.7,1.3-.7,2,0,.4.1.8.5.8.9.1,3.7-2.3,3.7-3ZM21.5,4.9c.8,0,2.1-.4,3-.4.5,0,1,.1,1,.6,0,.9-2,2.5-2,3.2,0,.2.2.3.4.3.7,0,2-1.8,3.1-1.8,1.9,0,.7,4.1,1.7,4.1,1.1,0,.6-4,2.2-4,1.3,0,2.2,2.8,3.1,2.8.2,0,.4-.2.4-.4,0-.8-1.1-2.3-1.1-3.3,0-.6.4-.9,1-.9.8,0,2,.5,2.6.5.2,0,.4-.1.4-.3,0-.9-3.2-1.8-3.2-2.9s1.8-1.1,1.8-1.6c0-.2-1.1-.4-2.6-.4-2.4,0-2,1.9-3.9,1.9s-1.4-2-3.8-2c-1.5,0-2.8.3-2.8.6,0,.4,1.7.2,1.7,1.4,0,1.3-3.7,1.6-3.7,2.4,0,.1.3.2.7.2ZM44.4,4.4c0,.6,2.3,2,3.3,2,.6,0,.8-.8.8-1.7,0-1.1-.5-1.1-1.4-1.1-1.2,0-2.7.3-2.7.8Z"/>
      <animate accumulate="none" additive="replace" attributeName="fill" begin="o1.begin+5.15s" calcMode="linear" dur="1s" fill="remove" restart="always" values="#1F36C7;#FFE300;#1F36C7"/>
    </g>
  </g>
</svg>