<?xml version="1.0" encoding="UTF-8"?>
<svg id="Layer_1" xmlns="http://www.w3.org/2000/svg" xmlns:xlink="http://www.w3.org/1999/xlink" version="1.1" viewBox="0 0 155 50.89">
  <!-- Generator: Adobe Illustrator 30.3.0, SVG Export Plug-In . SVG Version: 2.1.3 Build 182)  -->
  <defs>
    <style>
      .st0 {
        mask: url(#mask);
      }

      .st1, .st2 {
        fill: gray;
      }

      .st3 {
        mask: url(#mask-101);
      }

      .st4 {
        fill: #fff;
      }

      .st4, .st2 {
        fill-rule: evenodd;
      }

      .st5 {
        mask: url(#mask-2);
      }

      .st6 {
        mask: url(#mask-3);
      }

      .st7 {
        mask: url(#mask-5);
      }

      .st8 {
        mask: url(#mask-7);
      }

      .st9 {
        mask: url(#mask-1);
      }

      .st10 {
        mask: url(#mask-9);
      }

      .st11 {
        mask: url(#mask-82);
      }

      .st12 {
        mask: url(#mask-42);
      }

      .st13 {
        mask: url(#mask-63);
      }
    </style>
    <mask id="mask" x="0" y="-8216.89" width="49.23" height="32766" maskUnits="userSpaceOnUse"/>
    <mask id="mask-1" x="7.02" y="42.54" width="21.39" height="8.19" maskUnits="userSpaceOnUse">
      <g id="mask-4">
        <polygon id="path-3" class="st4" points="28.41 50.73 7.02 50.73 7.02 42.54 28.41 42.54 28.41 50.73"/>
      </g>
    </mask>
    <mask id="mask-2" x="7.02" y="42.54" width="21.39" height="8.35" maskUnits="userSpaceOnUse">
      <g id="mask-41" data-name="mask-4">
        <polygon id="path-31" data-name="path-3" class="st4" points="28.41 50.73 7.02 50.73 7.02 42.54 28.41 42.54 28.41 50.73"/>
      </g>
    </mask>
    <mask id="mask-3" x="49.45" y="42.55" width="32.5" height="8.18" maskUnits="userSpaceOnUse">
      <g id="mask-6">
        <polygon id="path-5" class="st4" points="81.95 50.73 49.45 50.73 49.45 42.55 81.95 42.55 81.95 50.73"/>
      </g>
    </mask>
    <mask id="mask-42" data-name="mask-4" x="49.45" y="42.55" width="32.5" height="8.34" maskUnits="userSpaceOnUse">
      <g id="mask-61" data-name="mask-6">
        <polygon id="path-51" data-name="path-5" class="st4" points="81.95 50.73 49.45 50.73 49.45 42.55 81.95 42.55 81.95 50.73"/>
      </g>
    </mask>
    <mask id="mask-5" x="49.45" y="42.55" width="32.5" height="8.3" maskUnits="userSpaceOnUse">
      <g id="mask-62" data-name="mask-6">
        <polygon id="path-52" data-name="path-5" class="st4" points="81.95 50.73 49.45 50.73 49.45 42.55 81.95 42.55 81.95 50.73"/>
      </g>
    </mask>
    <mask id="mask-63" data-name="mask-6" x="99.51" y="42.54" width="28" height="8.19" maskUnits="userSpaceOnUse">
      <g id="mask-8">
        <polygon id="path-7" class="st4" points="127.51 50.73 99.51 50.73 99.51 42.54 127.51 42.54 127.51 50.73"/>
      </g>
    </mask>
    <mask id="mask-7" x="99.51" y="42.54" width="28" height="8.35" maskUnits="userSpaceOnUse">
      <g id="mask-81" data-name="mask-8">
        <polygon id="path-71" data-name="path-7" class="st4" points="127.51 50.73 99.51 50.73 99.51 42.54 127.51 42.54 127.51 50.73"/>
      </g>
    </mask>
    <mask id="mask-82" data-name="mask-8" x="99.51" y="42.54" width="28" height="8.35" maskUnits="userSpaceOnUse">
      <g id="mask-83" data-name="mask-8">
        <polygon id="path-72" data-name="path-7" class="st4" points="127.51 50.73 99.51 50.73 99.51 42.54 127.51 42.54 127.51 50.73"/>
      </g>
    </mask>
    <mask id="mask-9" x="138.74" y="42.55" width="15.86" height="8.18" maskUnits="userSpaceOnUse">
      <g id="mask-10">
        <polygon id="path-9" class="st4" points="154.6 50.73 138.74 50.73 138.74 42.55 154.6 42.55 154.6 50.73"/>
      </g>
    </mask>
    <mask id="mask-101" data-name="mask-10" x="138.74" y="42.55" width="15.86" height="8.34" maskUnits="userSpaceOnUse">
      <g id="mask-102" data-name="mask-10">
        <polygon id="path-91" data-name="path-9" class="st4" points="154.6 50.73 138.74 50.73 138.74 42.55 154.6 42.55 154.6 50.73"/>
      </g>
    </mask>
  </defs>
  <g id="Symbols">
    <g id="Header_x2F_Desktop_x2F_Signed-Off">
      <g id="wespms-186426-Westin-Hotels-Resorts-Brand-Logo-SPOT-color-version-Standard-Print-and-web-EPS">
        <g>
          <g id="Group-3">
            <g class="st0">
              <path id="Fill-1" class="st2" d="M49.23,0h-9.11c.98.47,1.57,1.62,1.57,2.85,0,1.14-.34,2.71-1.03,4.47l-4.56,12.21L27.92,0h-7.35c2.06,1.52,3.04,4.61,1.52,8.03l-5.39,12.07L8.57,0H0c1.37.9,2.4,2.99,3.63,5.89l8.37,20.39c1.13,2.76,2.4,4.18,5.1,5.42l8.72-19.06,5.98,13.64c1.23,2.71,2.45,4.18,5.14,5.42L49.23,0"/>
            </g>
            <path id="Fill-11" data-name="Fill-1" class="st1" d="M49.23,0h-9.11c.98.47,1.57,1.62,1.57,2.85,0,1.14-.34,2.71-1.03,4.47l-4.56,12.21L27.92,0h-7.35c2.06,1.52,3.04,4.61,1.52,8.03l-5.39,12.07L8.57,0H0c1.37.9,2.4,2.99,3.63,5.89l8.37,20.39c1.13,2.76,2.4,4.18,5.1,5.42l8.72-19.06,5.98,13.64c1.23,2.71,2.45,4.18,5.14,5.42L49.23,0"/>
          </g>
          <path id="Fill-4" class="st2" d="M69,25.39c-2.18,1.53-4.47,2.2-7.66,2.2-1.73,0-3.25-.14-4.37-.38v-7.84h2.33c2.84,0,3.81.19,4.57,1v-4.59h-6.9v-6.45s1.06-.14,3.25-.14c2.54,0,4.31.38,5.33,1.43v-4.73h-16.55c1.32.67,1.52,1.67,1.52,5.83v13.34c0,4.16-.2,5.16-1.52,5.83h18.12l1.88-5.5"/>
          <path id="Fill-5" class="st2" d="M90,23.61c0-7.58-12.24-7.06-12.24-11.7,0-1.37,1.31-2.56,3.58-2.56,2.42,0,4.48.8,6.75,2.84v-5.4c-2.32-.57-4.18-.9-6.5-.9-5.04,0-10.18,2.84-10.18,7.53,0,8.52,12.24,7.29,12.24,12.07,0,1.71-1.61,2.94-4.39,2.94-3.12,0-6.14-1.18-9.27-3.74l1.66,5.92c2.52.85,4.64,1.28,6.95,1.28,6.45,0,11.38-3.31,11.38-8.29"/>
          <path id="Fill-6" class="st2" d="M112,5.89h-21.54l-1.46,4.73c1.61-1.05,3.08-1.43,5.75-1.43h2.57v15.87c0,4.16-.2,5.16-1.56,5.83h9.43c-1.31-.67-1.51-1.67-1.51-5.83v-15.87h2.27c2.37,0,3.98.33,4.79,1.43l1.26-4.73"/>
          <path id="Fill-7" class="st2" d="M124,30.89c-1.25-.67-1.44-1.67-1.44-5.83v-13.34c0-4.16.19-5.16,1.44-5.83h-9c1.25.67,1.44,1.67,1.44,5.83v13.34c0,4.16-.19,5.16-1.44,5.83h9"/>
          <path id="Fill-8" class="st2" d="M155,5.89h-8.64c1.72.85,1.92,2.66,1.92,5.41v10.06l-11.07-12.33c-1.11-1.28-1.87-2.23-2.58-3.13h-7.63c1.57.85,2.32,2.47,2.32,5.83v13.57c0,2.75-.2,4.55-1.92,5.41h8.64c-1.72-.85-1.92-2.66-1.92-5.41v-10.25l11.42,12.71c1.62,1.81,3.69,2.56,7.53,3.13V11.3c0-2.75.25-4.56,1.92-5.41"/>
          <g id="Group-12">
            <g class="st9">
              <path id="Fill-9" class="st2" d="M13.53,46.82v2.19c0,.54.09,1.42-.56,1.66v.04h2.45v-.04c-.65-.23-.58-1.11-.58-1.66v-4.57c0-.54-.08-1.43.58-1.66v-.04h-2.45v.04c.65.23.56,1.11.56,1.67v1.5h-4.64v-1.5c0-.56-.08-1.44.57-1.67v-.04h-2.44v.04c.65.23.56,1.11.56,1.66v4.57c0,.54.08,1.42-.56,1.66v.04h2.44v-.04c-.64-.23-.57-1.11-.57-1.66v-2.19h4.64"/>
            </g>
            <g class="st5">
              <path id="uuid-d206f88b-a152-4db5-8e23-d18db66199a6" data-name="Fill-11" class="st2" d="M23.73,43.41c2.03,0,3.22,1.7,3.22,3.47s-1.25,3.14-3.2,3.14-3.29-1.74-3.29-3.43c0-1.82,1.27-3.18,3.26-3.18ZM23.81,42.54c-2.69-.06-4.81,1.86-4.81,4.16,0,2.48,2.14,4.19,4.69,4.19s4.72-1.79,4.72-4.25c0-2.18-1.9-4.11-4.6-4.1Z"/>
            </g>
          </g>
          <path id="Fill-13" class="st2" d="M34.58,43.84h1.03c.38,0,.84.06.99.48h.03l.37-1.43h-.03c-.15.07-.33.08-.53.08h-4.57c-.15-.02-.3-.02-.44-.08h-.03l-.4,1.43h.03c.36-.35.87-.48,1.37-.48h1.01v5.37c0,.54.07,1.42-.51,1.65v.04h2.27v-.04c-.61-.37-.6-.84-.6-1.53v-5.48"/>
          <path id="Fill-14" class="st2" d="M41.59,47.02h.8c.33,0,.79-.01.96.34h.03v-1.28h-.03c-.13.07-.3.07-.48.07h-1.29v-2.24c.34-.07.72-.09,1.1-.09.5,0,.94.05,1.28.48h.03v-1.41h-.03c-.14.09-.33.06-.51.06h-3.46v.04c.55.23.49,1.11.49,1.66v4.55c0,.54.07,1.43-.49,1.65v.04h4.51l.49-1.58h-.03c-.54.53-1.29.79-2,.71l-1.37-.14v-2.86"/>
          <g id="Group-19">
            <g class="st6">
              <path id="Fill-15" class="st2" d="M51.28,49.72v-5.27c0-.54-.09-1.44.55-1.67v-.04h-2.38v.04c.64.23.56,1.11.56,1.67v4.56c0,.54.07,1.44-.56,1.66v.04h5.13l.65-1.61h-.04c-.62.51-1.36.79-2.21.74l-1.7-.11"/>
            </g>
            <g class="st12">
              <path id="Fill-17" class="st2" d="M63.38,42.82c-.6-.18-1.23-.27-1.86-.27-1.52,0-3.13.58-3.13,2.1,0,2.56,4.29,2.22,4.29,4.11,0,.85-1.07,1.26-1.78,1.26-.97,0-2-.39-2.73-1l.36,1.51c.71.25,1.47.36,2.23.36,1.95,0,3.34-1.21,3.34-2.5,0-2.24-4.29-2.21-4.29-3.87,0-.84.9-1.1,1.61-1.1s1.47.28,1.96.76v-1.37"/>
            </g>
            <g class="st7">
              <path id="Fill-18" class="st2" d="M77.44,49.02c-.44.56-1.07,1.04-1.83,1.04-.96,0-1.75-.59-1.75-1.58,0-.75.51-1.37,1.12-1.79l2.46,2.33ZM75.19,45.3c-.34-.29-.87-.77-.87-1.26s.37-.69.82-.69.86.28.86.74c0,.49-.41.93-.81,1.21ZM81.95,50.7v-.04c-2.36-1.05-4.19-2.93-6.05-4.65.57-.5,1.08-.99,1.08-1.79,0-1-.8-1.67-1.79-1.67s-1.95.68-1.95,1.68c0,.68.54,1.25,1,1.7-.91.7-1.72,1.41-1.72,2.61,0,1.5,1.41,2.31,2.82,2.31,1.2,0,1.96-.42,2.6-1.42.39.36,1.03.84,1.48,1.06.33.17.74.2,1.17.2h1.36Z"/>
            </g>
          </g>
          <path id="Fill-20" class="st2" d="M89,42.89v.04c.6.23.52,1.12.52,1.68v4.59c0,.54.08,1.44-.52,1.67v.04h2.26v-.04c-.6-.22-.53-1.11-.53-1.67v-5.45c.27-.05.53-.09.8-.1.79-.04,1.53.47,1.53,1.35,0,1.14-1.1,1.59-2.04,1.74l1.09,1.72,1.44,1.84c.36.45.75.61,1.37.61h1.09c-.68-.44-1.42-1.07-1.92-1.7l-1.7-2.2c.97-.23,1.88-1.07,1.88-2.14s-.86-1.96-2.45-1.96h-2.81"/>
          <g id="Group-25">
            <g class="st13">
              <path id="Fill-21" class="st2" d="M101.38,46.82h.94c.4,0,.93-.01,1.14.34h.04v-1.28h-.04c-.15.07-.36.07-.56.07h-1.52v-2.25c.41-.07.86-.09,1.3-.09.59,0,1.11.05,1.5.48h.04v-1.41h-.04c-.17.09-.38.06-.6.06h-4.08v.04c.65.23.57,1.11.57,1.67v4.56c0,.54.08,1.44-.57,1.66v.04h5.32l.57-1.58h-.04c-.64.53-1.52.79-2.36.71l-1.62-.14v-2.87"/>
            </g>
            <g class="st8">
              <path id="Fill-23" class="st2" d="M114,42.82c-.61-.18-1.26-.27-1.9-.27-1.56,0-3.2.58-3.2,2.1,0,2.56,4.38,2.22,4.38,4.11,0,.85-1.1,1.26-1.82,1.26-.99,0-2.04-.39-2.79-1l.37,1.51c.73.25,1.5.36,2.28.36,1.99,0,3.42-1.21,3.42-2.5,0-2.24-4.38-2.21-4.38-3.87,0-.84.92-1.1,1.64-1.1s1.51.28,2,.76v-1.37"/>
            </g>
            <g class="st11">
              <path id="Fill-24" class="st2" d="M122.86,43.41c2.01,0,3.2,1.7,3.2,3.47s-1.24,3.14-3.17,3.14-3.26-1.74-3.26-3.43c0-1.82,1.26-3.18,3.24-3.18ZM122.95,42.54c-2.68-.06-4.78,1.86-4.78,4.16,0,2.48,2.13,4.19,4.65,4.19s4.69-1.79,4.69-4.25c0-2.18-1.89-4.11-4.56-4.1Z"/>
            </g>
          </g>
          <path id="Fill-26" class="st2" d="M130,42.89v.04c.61.23.52,1.12.52,1.68v4.59c0,.54.08,1.44-.52,1.67v.04h2.26v-.04c-.6-.22-.53-1.11-.53-1.67v-5.45c.27-.05.53-.09.8-.1.79-.04,1.53.47,1.53,1.35,0,1.14-1.1,1.59-2.04,1.74l1.09,1.72,1.44,1.84c.36.45.75.61,1.37.61h1.09c-.67-.44-1.42-1.07-1.91-1.7l-1.7-2.2c.97-.23,1.88-1.07,1.88-2.14s-.86-1.96-2.45-1.96h-2.82"/>
          <g id="Group-30">
            <g class="st10">
              <path id="Fill-27" class="st2" d="M142.88,43.62h1.2c.44,0,.97.06,1.14.48h.04l.42-1.44h-.04c-.17.07-.38.09-.61.09h-5.29c-.17-.02-.34-.02-.5-.09h-.04l-.47,1.44h.04c.41-.35,1.01-.48,1.58-.48h1.17v5.39c0,.54.08,1.42-.59,1.66v.04h2.63v-.04c-.7-.38-.69-.85-.69-1.54v-5.51"/>
            </g>
            <g class="st3">
              <path id="Fill-29" class="st2" d="M153.83,42.82c-.64-.18-1.31-.27-1.98-.27-1.62,0-3.33.58-3.33,2.1,0,2.56,4.57,2.22,4.57,4.11,0,.85-1.14,1.26-1.9,1.26-1.04,0-2.12-.39-2.91-1l.38,1.51c.76.25,1.57.36,2.38.36,2.07,0,3.56-1.21,3.56-2.5,0-2.24-4.57-2.21-4.57-3.87,0-.84.96-1.1,1.71-1.1s1.57.28,2.09.76v-1.37"/>
            </g>
          </g>
        </g>
      </g>
    </g>
  </g>
</svg>