<?xml version="1.0" encoding="UTF-8"?>
<svg id="svg2" xmlns="http://www.w3.org/2000/svg" xmlns:svg="http://www.w3.org/2000/svg" xmlns:sodipodi="http://sodipodi.sourceforge.net/DTD/sodipodi-0.dtd" xmlns:rdf="http://www.w3.org/1999/02/22-rdf-syntax-ns#" xmlns:inkscape="http://www.inkscape.org/namespaces/inkscape" xmlns:dc="http://purl.org/dc/elements/1.1/" xmlns:cc="http://creativecommons.org/ns#" version="1.1" viewBox="0 0 507.89 113.39">
  <!-- Generator: Adobe Illustrator 30.3.0, SVG Export Plug-In . SVG Version: 2.1.3 Build 182)  -->
  <defs>
    <style>
      .st0 {
        fill: gray;
      }
    </style>
  </defs>
  <sodipodi:namedview id="namedview4" bordercolor="#666666" borderopacity="1" gridtolerance="10" guidetolerance="10" inkscape:pageopacity="0" inkscape:pageshadow="2" inkscape:window-height="480" inkscape:window-width="640" objecttolerance="10" pagecolor="#ffffff"/>
  <g id="g10" inkscape:groupmode="layer" inkscape:label="ink_ext_XXXXXX">
    <g id="g12">
      <path id="path14" class="st0" d="M253.07,92.03c.89-2.32,1.33-6.1,1.33-11.35v-22.13c0-5.1-.45-8.82-1.33-11.18-.89-2.35-2.45-3.53-4.69-3.53s-3.69,1.18-4.58,3.53c-.89,2.36-1.33,6.08-1.33,11.18v22.13c0,5.25.42,9.03,1.27,11.35.85,2.32,2.39,3.47,4.63,3.47s3.8-1.16,4.69-3.47h0ZM235.11,103.15c-3.21-2.16-5.49-5.52-6.83-10.08-1.35-4.55-2.03-10.62-2.03-18.19v-10.31c0-7.64.77-13.78,2.32-18.42,1.54-4.63,3.96-8.01,7.24-10.14,3.28-2.12,7.59-3.19,12.92-3.19s9.46,1.08,12.63,3.24c3.17,2.16,5.48,5.54,6.95,10.14,1.47,4.6,2.2,10.72,2.2,18.36v10.31c0,7.57-.71,13.65-2.14,18.24-1.43,4.59-3.75,7.95-6.95,10.08-3.21,2.12-7.55,3.19-13.03,3.19s-10.06-1.08-13.26-3.24"/>
      <path id="path16" class="st0" d="M483.17,45.17c-.81,1-1.35,2.65-1.62,4.92-.27,2.28-.4,5.73-.4,10.37v5.1h11.7v-5.1c0-4.56-.15-8.01-.46-10.37-.31-2.35-.87-4.01-1.68-4.98-.81-.97-2.07-1.45-3.77-1.45s-2.95.5-3.77,1.51ZM481.14,75.06v3.59c0,4.56.13,7.97.4,10.25.27,2.28.83,3.94,1.68,4.98.85,1.04,2.16,1.56,3.94,1.56,2.39,0,4.03-.93,4.92-2.78.89-1.85,1.37-4.94,1.45-9.27l13.79.81c.08.62.12,1.47.12,2.55,0,6.57-1.79,11.47-5.39,14.71-3.59,3.24-8.67,4.86-15.23,4.86-7.88,0-13.4-2.47-16.56-7.41-3.17-4.94-4.75-12.59-4.75-22.93v-12.4c0-10.66,1.64-18.44,4.92-23.34,3.28-4.9,8.9-7.36,16.85-7.36,5.48,0,9.69,1,12.63,3.01,2.93,2.01,5,5.14,6.2,9.38,1.2,4.25,1.8,10.12,1.8,17.61v12.16h-26.76"/>
      <path id="path18" class="st0" d="M196.19,73.73l-18.19-65.68h15.87l6.37,29.77c1.62,7.34,2.82,13.59,3.59,18.77h.46c.54-3.71,1.74-9.92,3.59-18.65l6.6-29.89h15.87l-18.42,65.68v31.51h-15.75v-31.51"/>
      <path id="path20" class="st0" d="M322.11,34.23v71.01h-12.51l-1.39-8.69h-.35c-3.4,6.56-8.5,9.84-15.29,9.84-4.71,0-8.19-1.54-10.43-4.63-2.24-3.09-3.36-7.92-3.36-14.48v-53.05h15.99v52.13c0,3.17.35,5.43,1.04,6.78.69,1.35,1.85,2.03,3.47,2.03,1.39,0,2.72-.42,4-1.28,1.27-.85,2.22-1.93,2.84-3.24v-56.41h15.99"/>
      <path id="path22" class="st0" d="M404.11,34.23v71.01h-12.51l-1.39-8.69h-.35c-3.4,6.56-8.5,9.84-15.29,9.84-4.71,0-8.19-1.54-10.43-4.63-2.24-3.09-3.36-7.92-3.36-14.48v-53.05h15.99v52.13c0,3.17.35,5.43,1.04,6.78.7,1.35,1.85,2.03,3.48,2.03,1.39,0,2.72-.42,4-1.28,1.27-.85,2.22-1.93,2.84-3.24v-56.41h15.99"/>
      <path id="path24" class="st0" d="M365.55,20.91h-15.87v84.33h-15.64V20.91h-15.87v-12.86h47.38v12.86"/>
      <path id="path26" class="st0" d="M442.36,74.54c0,5.17-.21,9.23-.64,12.16-.42,2.94-1.14,5.02-2.14,6.26-1,1.24-2.36,1.85-4.05,1.85-1.31,0-2.53-.31-3.65-.93-1.12-.62-2.03-1.54-2.72-2.78v-40.31c.54-1.93,1.47-3.51,2.78-4.75,1.31-1.23,2.74-1.85,4.29-1.85,1.62,0,2.88.64,3.77,1.91.89,1.27,1.51,3.42,1.85,6.43.35,3.01.52,7.3.52,12.86v9.15ZM457.01,45.58c-.97-4.48-2.53-7.72-4.69-9.73-2.16-2.01-5.14-3.01-8.92-3.01-2.93,0-5.68.83-8.22,2.49-2.55,1.66-4.52,3.84-5.91,6.55h-.12V4.46s-15.4,0-15.4,0v100.78h13.2l1.62-6.72h.35c1.23,2.39,3.09,4.29,5.56,5.68,2.47,1.39,5.21,2.08,8.23,2.08,5.4,0,9.38-2.49,11.93-7.47,2.55-4.98,3.82-12.76,3.82-23.34v-11.24c0-7.95-.48-14.17-1.45-18.65"/>
      <path class="st0" d="M158.59,17.71c-1.86-6.97-7.35-12.46-14.32-14.32C131.64,0,80.99,0,80.99,0,80.99,0,30.34,0,17.71,3.39c-6.97,1.86-12.46,7.35-14.32,14.32C0,30.34,0,56.69,0,56.69c0,0,0,26.36,3.38,38.99,1.86,6.97,7.35,12.46,14.32,14.32,12.63,3.39,63.28,3.39,63.28,3.39,0,0,50.65,0,63.29-3.39,6.97-1.86,12.46-7.35,14.32-14.32,3.38-12.63,3.38-38.99,3.38-38.99,0,0,0-26.36-3.38-38.99ZM64.79,80.99v-48.59l42.08,24.3-42.08,24.3Z"/>
    </g>
  </g>
</svg>