<?xml version="1.0" encoding="UTF-8"?>
<svg id="Layer_1" xmlns="http://www.w3.org/2000/svg" version="1.1" viewBox="0 0 51 51">
  <!-- Generator: Adobe Illustrator 30.3.0, SVG Export Plug-In . SVG Version: 2.1.3 Build 182)  -->
  <defs>
    <style>
      .st0 {
        fill: gray;
        fill-rule: evenodd;
      }
    </style>
  </defs>
  <path class="st0" d="M0,0v51h51V0H0ZM11.29,23.42l-3.41,3.41v2.38h3.41v2.28h-5.68v-5.59l3.41-3.43v-.09h-3.41v-2.28h5.68v3.32ZM18.14,31.48h-2.27v-5.7h-1.14v5.7h-2.27v-11.39h2.27v3.41h1.14v-3.41h2.27v11.39ZM24.98,22.37h-1.71v6.83h1.71v2.28h-5.68v-2.28h1.71v-6.83h-1.71v-2.28h5.68v2.28ZM31.83,26.26l-1.71,1.71v3.51h-2.27v-3.51l-1.71-1.71v-6.17h2.27v5.24l.56.56.58-.56v-5.24h2.27v6.17ZM38.67,31.48h-5.68v-11.38h2.27v9.1h1.14v-9.1h2.27v11.38ZM45.51,31.48h-2.27v-9.1h-1.14v9.1h-2.27v-11.38h5.68v11.38Z"/>
</svg>