<svg width="16" height="16" viewBox="0 0 16 16" fill="none" xmlns="http://www.w3.org/2000/svg">
<path d="M8.49364 2.62152L13.9236 12.1351C13.9737 12.2227 14 12.3221 14 12.4233C14 12.5245 13.9737 12.624 13.9236 12.7116C13.8736 12.7993 13.8017 12.8721 13.715 12.9227C13.6283 12.9733 13.5301 12.9999 13.43 12.9999H2.57C2.46995 12.9999 2.37165 12.9733 2.285 12.9227C2.19835 12.8721 2.12639 12.7993 2.07636 12.7116C2.02634 12.624 2 12.5245 2 12.4233C2 12.3221 2.02634 12.2227 2.07637 12.1351L7.50636 2.62152C7.5564 2.53387 7.62835 2.46109 7.715 2.41049C7.80165 2.35989 7.89995 2.33325 8 2.33325C8.10005 2.33325 8.19835 2.35989 8.285 2.41049C8.37165 2.46109 8.4436 2.53387 8.49364 2.62152ZM7.42998 10.117V11.2702H8.57002V10.117H7.42998ZM7.42998 6.08098V8.96387H8.57002V6.08098H7.42998Z" fill="#FF8447"/>
</svg>
