<svg width="21" height="20" viewBox="0 0 21 20" fill="none" xmlns="http://www.w3.org/2000/svg">
<path d="M12.1667 1.6665H8.83333C6.10064 1.6665 4.73429 1.6665 3.76575 2.34468C3.40742 2.59559 3.09575 2.90726 2.84484 3.26559C2.16666 4.23413 2.16666 5.60048 2.16666 8.33317C2.16666 11.0659 2.16666 12.4322 2.84484 13.4007C3.09575 13.7591 3.40742 14.0707 3.76575 14.3217C4.73429 14.9998 6.10064 14.9998 8.83333 14.9998H12.1667C14.8994 14.9998 16.2657 14.9998 17.2342 14.3217C17.5926 14.0707 17.9042 13.7591 18.1552 13.4007C18.8333 12.4322 18.8333 11.0659 18.8333 8.33317C18.8333 5.60048 18.8333 4.23413 18.1552 3.26559C17.9042 2.90726 17.5926 2.59559 17.2342 2.34468C16.2657 1.6665 14.8994 1.6665 12.1667 1.6665Z" stroke="#0E121B" stroke-width="1.5" stroke-linecap="round"/>
<path d="M9.66666 12.5H11.3333" stroke="#0E121B" stroke-width="1.5" stroke-linecap="round" stroke-linejoin="round"/>
<path d="M12.5833 18.3333L12.3204 17.9843C11.7277 17.1974 11.5808 15.9953 11.9556 15M8.41666 18.3333L8.67958 17.9843C9.27227 17.1974 9.41921 15.9953 9.04436 15" stroke="#0E121B" stroke-width="1.5" stroke-linecap="round"/>
<path d="M6.33333 18.333H14.6667" stroke="#0E121B" stroke-width="1.5" stroke-linecap="round"/>
</svg>
