<svg width="20" height="20" viewBox="0 0 20 20" fill="none" xmlns="http://www.w3.org/2000/svg">
<path d="M4 13H16V4.75H4V13ZM10.75 14.5V16H13.75V17.5H6.25V16H9.25V14.5H3.244C3.14551 14.4994 3.04811 14.4794 2.95738 14.4411C2.86664 14.4028 2.78436 14.347 2.71524 14.2768C2.64613 14.2066 2.59154 14.1235 2.5546 14.0322C2.51766 13.9409 2.49911 13.8432 2.5 13.7448V4.00525C2.5 3.58825 2.84125 3.25 3.244 3.25H16.756C17.167 3.25 17.5 3.58675 17.5 4.00525V13.7448C17.5 14.1617 17.1587 14.5 16.756 14.5H10.75Z" fill="#525866"/>
</svg>
