<svg width="16" height="16" viewBox="0 0 16 16" fill="none" xmlns="http://www.w3.org/2000/svg">
<g clip-path="url(#clip0_962_23915)">
<path d="M11.3332 6.00004C11.3317 4.02865 11.3018 3.00751 10.728 2.30833C10.6172 2.1733 10.4934 2.04949 10.3584 1.93868C9.6208 1.33337 8.52497 1.33337 6.33331 1.33337C4.14166 1.33337 3.04583 1.33337 2.30826 1.93868C2.17324 2.04949 2.04943 2.1733 1.93862 2.30833C1.33331 3.04589 1.33331 4.14172 1.33331 6.33337C1.33331 8.52503 1.33331 9.62085 1.93862 10.3584C2.04943 10.4934 2.17324 10.6173 2.30826 10.7281C3.00745 11.3019 4.02858 11.3317 5.99998 11.3333" stroke="#565865" stroke-width="1.5" stroke-linecap="round" stroke-linejoin="round"/>
<path d="M9.33333 5.25C8.91912 5.25 8.58333 5.58579 8.58333 6C8.58333 6.41421 8.91912 6.75 9.33333 6.75V5.25ZM11.3333 6.75C11.7475 6.75 12.0833 6.41421 12.0833 6C12.0833 5.58579 11.7475 5.25 11.3333 5.25V6.75ZM6.75 9.33333C6.75 8.91912 6.41421 8.58333 6 8.58333C5.58579 8.58333 5.25 8.91912 5.25 9.33333H6.75ZM5.25 11.3333C5.25 11.7475 5.58579 12.0833 6 12.0833C6.41421 12.0833 6.75 11.7475 6.75 11.3333H5.25ZM7.73781 6.74363C8.14851 6.68978 8.43778 6.31318 8.38393 5.90249C8.33007 5.49179 7.95348 5.20251 7.54278 5.25637L7.73781 6.74363ZM6.50388 6.41762L6.02741 5.83841L6.02741 5.83841L6.50388 6.41762ZM5.26469 7.18564C5.18312 7.59174 5.4462 7.98708 5.85231 8.06865C6.25841 8.15022 6.65374 7.88713 6.73531 7.48103L5.26469 7.18564ZM13.9314 7.48103C14.0129 7.88713 14.4083 8.15022 14.8144 8.06865C15.2205 7.98708 15.4836 7.59174 15.402 7.18564L13.9314 7.48103ZM14.1628 6.41762L13.6863 6.99682L13.6863 6.99682L14.1628 6.41762ZM13.1239 5.25637C12.7132 5.20251 12.3366 5.49179 12.2827 5.90249C12.2289 6.31318 12.5182 6.68978 12.9289 6.74363L13.1239 5.25637ZM12.9289 13.923C12.5182 13.9769 12.2289 14.3535 12.2827 14.7642C12.3366 15.1749 12.7132 15.4642 13.1239 15.4103L12.9289 13.923ZM14.1628 14.2491L14.6393 14.8283H14.6393L14.1628 14.2491ZM15.402 13.481C15.4836 13.0749 15.2205 12.6796 14.8144 12.598C14.4083 12.5165 14.0129 12.7795 13.9314 13.1856L15.402 13.481ZM6.73531 13.1856C6.65374 12.7795 6.25841 12.5164 5.85231 12.598C5.4462 12.6796 5.18312 13.0749 5.26469 13.481L6.73531 13.1856ZM6.50388 14.2491L6.98035 13.6698H6.98035L6.50388 14.2491ZM7.54278 15.4103C7.95348 15.4642 8.33007 15.1749 8.38393 14.7642C8.43778 14.3535 8.14851 13.9769 7.73781 13.923L7.54278 15.4103ZM9.33333 13.9167C8.91912 13.9167 8.58333 14.2525 8.58333 14.6667C8.58333 15.0809 8.91912 15.4167 9.33333 15.4167V13.9167ZM11.3333 15.4167C11.7475 15.4167 12.0833 15.0809 12.0833 14.6667C12.0833 14.2525 11.7475 13.9167 11.3333 13.9167V15.4167ZM15.4167 9.33333C15.4167 8.91912 15.0809 8.58333 14.6667 8.58333C14.2525 8.58333 13.9167 8.91912 13.9167 9.33333H15.4167ZM13.9167 11.3333C13.9167 11.7475 14.2525 12.0833 14.6667 12.0833C15.0809 12.0833 15.4167 11.7475 15.4167 11.3333H13.9167ZM9.33333 6.75H11.3333V5.25H9.33333V6.75ZM5.25 9.33333V11.3333H6.75V9.33333H5.25ZM7.54278 5.25637C6.97655 5.33062 6.45984 5.48268 6.02741 5.83841L6.98035 6.99682C7.1063 6.8932 7.30671 6.80016 7.73781 6.74363L7.54278 5.25637ZM6.73531 7.48103C6.79147 7.20146 6.87277 7.08532 6.98035 6.99682L6.02741 5.83841C5.58533 6.20209 5.36933 6.66465 5.26469 7.18564L6.73531 7.48103ZM15.402 7.18564C15.2973 6.66465 15.0813 6.20209 14.6393 5.83842L13.6863 6.99682C13.7939 7.08532 13.8752 7.20146 13.9314 7.48103L15.402 7.18564ZM12.9289 6.74363C13.36 6.80016 13.5604 6.8932 13.6863 6.99682L14.6393 5.83842C14.2068 5.48268 13.6901 5.33062 13.1239 5.25637L12.9289 6.74363ZM13.1239 15.4103C13.6901 15.3361 14.2068 15.184 14.6393 14.8283L13.6863 13.6698C13.5604 13.7735 13.36 13.8665 12.9289 13.923L13.1239 15.4103ZM13.9314 13.1856C13.8752 13.4652 13.7939 13.5813 13.6863 13.6698L14.6393 14.8283C15.0813 14.4646 15.2973 14.002 15.402 13.481L13.9314 13.1856ZM5.26469 13.481C5.36933 14.002 5.58532 14.4646 6.02741 14.8283L6.98035 13.6698C6.87277 13.5813 6.79147 13.4652 6.73531 13.1856L5.26469 13.481ZM7.73781 13.923C7.30671 13.8665 7.1063 13.7735 6.98035 13.6698L6.0274 14.8282C6.45984 15.184 6.97655 15.336 7.54278 15.4103L7.73781 13.923ZM9.33333 15.4167H11.3333V13.9167H9.33333V15.4167ZM13.9167 9.33333V11.3333H15.4167V9.33333H13.9167Z" fill="#565865"/>
</g>
<defs>
<clipPath id="clip0_962_23915">
<rect width="16" height="16" fill="white"/>
</clipPath>
</defs>
</svg>
