<svg width="20" height="20" viewBox="0 0 20 20" fill="none" xmlns="http://www.w3.org/2000/svg">
<path d="M1.66666 9.99992C1.66666 7.05201 1.66666 5.57806 2.54399 4.594C2.68431 4.43661 2.83897 4.29105 3.0062 4.15898C4.05177 3.33325 5.61784 3.33325 8.74999 3.33325H11.25C14.3821 3.33325 15.9482 3.33325 16.9938 4.15898C17.161 4.29105 17.3157 4.43661 17.456 4.594C18.3333 5.57806 18.3333 7.05201 18.3333 9.99992C18.3333 12.9478 18.3333 14.4218 17.456 15.4058C17.3157 15.5632 17.161 15.7088 16.9938 15.8409C15.9482 16.6666 14.3821 16.6666 11.25 16.6666H8.74999C5.61784 16.6666 4.05177 16.6666 3.0062 15.8409C2.83897 15.7088 2.68431 15.5632 2.54399 15.4058C1.66666 14.4218 1.66666 12.9478 1.66666 9.99992Z" stroke="#335CFF" stroke-width="1.5" stroke-linecap="round" stroke-linejoin="round"/>
<path d="M8.33331 13.3333H9.58331" stroke="#335CFF" stroke-width="1.5" stroke-miterlimit="10" stroke-linecap="round" stroke-linejoin="round"/>
<path d="M12.0833 13.3333L15 13.3333" stroke="#335CFF" stroke-width="1.5" stroke-miterlimit="10" stroke-linecap="round" stroke-linejoin="round"/>
<path d="M1.66666 7.5H18.3333" stroke="#335CFF" stroke-width="1.5" stroke-linejoin="round"/>
</svg>
