<?xml version="1.0" encoding="UTF-8"?>
<svg version="1.1" xmlns="http://www.w3.org/2000/svg" width="512" height="512">
<path d="M0 0 C1.13785991 -0.00384115 2.27571982 -0.00768229 3.44806033 -0.01163983 C5.33148719 -0.01034011 5.33148719 -0.01034011 7.25296307 -0.00901413 C8.59596186 -0.01159725 9.93895989 -0.01461026 11.28195685 -0.01801753 C14.98051204 -0.026097 18.67904783 -0.02787763 22.3776108 -0.028615 C26.36340045 -0.0304639 30.34917998 -0.03801039 34.3349638 -0.04475021 C43.05391782 -0.05834059 51.77286726 -0.0643593 60.49183011 -0.06876087 C65.9341172 -0.071522 71.37640251 -0.0757591 76.81868839 -0.08026505 C91.88153789 -0.09245843 106.94438597 -0.10275774 122.0072403 -0.10614014 C122.97156683 -0.1063597 123.93589336 -0.10657927 124.92944191 -0.10680549 C125.8960979 -0.10702377 126.86275389 -0.10724204 127.85870248 -0.10746694 C129.8175712 -0.10791041 131.77643993 -0.10835697 133.73530865 -0.10880661 C134.7069787 -0.10902804 135.67864874 -0.10924947 136.67976334 -0.10947761 C152.42799904 -0.11342651 168.17618849 -0.13088301 183.92440633 -0.15416613 C200.08596948 -0.17786787 216.24750941 -0.19034144 232.40909022 -0.19150805 C241.48601848 -0.19242546 250.56288648 -0.1981942 259.63979816 -0.21632767 C267.36829988 -0.23171274 275.09672272 -0.23685854 282.82523683 -0.22858956 C286.76925441 -0.22467744 290.71311305 -0.22563993 294.65711117 -0.23964691 C298.26757368 -0.25235223 301.87775729 -0.25121822 305.48821922 -0.2390562 C307.41329608 -0.23616334 309.33837761 -0.24806047 311.26341659 -0.26047826 C321.888446 -0.19936425 321.888446 -0.19936425 326.55635357 3.13142776 C328.17794753 6.37461569 327.6891598 9.93328184 327.67660809 13.49620438 C327.67788972 14.80958796 327.67788972 14.80958796 327.67919725 16.14950454 C327.68085207 19.10069339 327.67533063 22.05182613 327.66987896 25.0030098 C327.66959706 27.11165236 327.66975487 29.22029502 327.67032146 31.32893753 C327.67060934 37.06831402 327.6647142 42.80766977 327.65774751 48.54704142 C327.65151233 54.53951444 327.65091004 60.53198789 327.6497221 66.52446365 C327.64660927 77.87876077 327.63839653 89.2330483 327.62837261 100.58734119 C327.61720998 113.51096145 327.61170064 126.43458216 327.60667717 139.35820603 C327.59621388 165.94928527 327.57861536 192.54035598 327.55635357 219.13142776 C328.35331646 219.1104805 329.15027935 219.08953323 329.97139263 219.0679512 C333.58291791 218.98479454 337.19424181 218.93276742 340.80635357 218.88142776 C342.06061138 218.84791214 343.31486919 218.81439651 344.60713482 218.77986526 C345.81240826 218.76697464 347.01768169 218.75408401 348.25947857 218.74080276 C349.36968365 218.7198555 350.47988873 218.69890823 351.62373638 218.6773262 C354.55635357 219.13142776 354.55635357 219.13142776 356.91816235 220.74307632 C359.08478774 223.90184241 359.05943054 225.91633644 359.06428814 229.73567581 C359.07364808 230.72887219 359.07364808 230.72887219 359.08319712 231.74213314 C359.09914456 233.95950048 359.0865173 236.17577114 359.07393169 238.39314651 C359.07935208 239.98329179 359.08647428 241.57343205 359.09517193 243.16356277 C359.11341828 247.48176367 359.10633246 251.79958259 359.09365559 256.11779022 C359.08353467 260.63496054 359.09291873 265.15209797 359.09920025 269.66926956 C359.10647931 277.25534823 359.09688219 284.84127117 359.07783794 292.4273262 C359.05606866 301.20022403 359.06311986 309.97275003 359.08514357 318.74563885 C359.10329022 326.27526376 359.1058595 333.80477668 359.09538889 341.33441639 C359.0891499 345.83268263 359.08832941 350.33077405 359.10153484 354.82902908 C359.1130821 359.05790885 359.10508853 363.28630883 359.08195782 367.51513672 C359.07666466 369.06795708 359.07819491 370.62081776 359.08700848 372.17362213 C359.09792456 374.29202136 359.08425114 376.408879 359.06428814 378.52717972 C359.06202599 380.30582161 359.06202599 380.30582161 359.05971813 382.12039566 C358.45210876 385.75500061 357.47228585 386.94182378 354.55635357 389.13142776 C351.62373638 389.58552933 351.62373638 389.58552933 348.25947857 389.52205276 C347.05420513 389.50916214 345.84893169 389.49627151 344.60713482 389.48299026 C342.7257481 389.43271683 342.7257481 389.43271683 340.80635357 389.38142776 C339.53662701 389.36338089 338.26690044 389.34533401 336.95869732 389.32674026 C333.8238228 389.27959929 330.69046797 389.21380441 327.55635357 389.13142776 C327.56523602 389.79906143 327.57411846 390.4666951 327.58327007 391.15456009 C327.6716983 398.09728314 327.73206933 405.03984648 327.77608013 411.98299026 C327.79620732 414.57485323 327.82351172 417.16667072 327.85811138 419.75838089 C327.90657858 423.48180225 327.92931173 427.20462376 327.94697857 430.92830276 C327.96762371 432.08884171 327.98826885 433.24938065 328.0095396 434.44508743 C328.00984173 435.52590591 328.01014385 436.6067244 328.01045513 437.72029495 C328.01933758 438.67071671 328.02822002 439.62113846 328.03737164 440.60036087 C327.40995325 443.90177099 326.14959017 445.06043053 323.55635357 447.13142776 C320.46590168 448.16157839 318.35160488 448.25876059 315.11270714 448.26285553 C313.97484723 448.26669667 312.83698732 448.27053782 311.6646468 448.27449536 C310.4090289 448.27362888 309.153411 448.2727624 307.85974407 448.27186966 C306.51674527 448.27445278 305.17374725 448.27746579 303.83075029 448.28087306 C300.1321951 448.28895253 296.4336593 448.29073316 292.73509634 448.29147053 C288.74930669 448.29331943 284.76352715 448.30086592 280.77774334 448.30760574 C272.05878931 448.32119612 263.33983988 448.32721483 254.62087703 448.3316164 C249.17858994 448.33437753 243.73630463 448.33861463 238.29401875 448.34312057 C223.23116924 448.35531396 208.16832117 448.36561327 193.10546684 448.36899567 C192.14114031 448.36921523 191.17681378 448.3694348 190.18326523 448.36966102 C189.21660924 448.3698793 188.24995325 448.37009757 187.25400466 448.37032247 C185.29513593 448.37076593 183.33626721 448.3712125 181.37739849 448.37166214 C180.40572844 448.37188357 179.43405839 448.372105 178.4329438 448.37233314 C162.6847081 448.37628204 146.93651864 448.39373854 131.18830081 448.41702166 C115.02673766 448.4407234 98.86519773 448.45319697 82.70361692 448.45436358 C73.62668866 448.45528099 64.54982066 448.46104973 55.47290897 448.4791832 C47.74440726 448.49456827 40.01598442 448.49971407 32.2874703 448.49144509 C28.34345273 448.48753297 24.39959408 448.48849546 20.45559597 448.50250244 C16.84513346 448.51520776 13.23494985 448.51407375 9.62448791 448.50191173 C7.69941106 448.49901886 5.77432953 448.510916 3.84929055 448.52333379 C-6.77573886 448.46221978 -6.77573886 448.46221978 -11.44364643 445.13142776 C-12.71834051 442.58203962 -12.56380827 440.80101779 -12.55717182 437.94734573 C-12.55709629 436.86637619 -12.55702076 435.78540665 -12.55694294 434.67168045 C-12.55178165 433.50081894 -12.54662037 432.32995743 -12.54130268 431.12361526 C-12.53988773 429.92785873 -12.53847279 428.7321022 -12.53701496 427.50011063 C-12.53140306 423.6688579 -12.51884851 419.83766293 -12.50614643 416.00642776 C-12.50113297 413.41398069 -12.49656979 410.8215327 -12.49247456 408.22908401 C-12.48142977 401.86317878 -12.46468002 395.4973074 -12.44364643 389.13142776 C-13.24060932 389.15237503 -14.03757221 389.1733223 -14.85868549 389.19490433 C-18.47021078 389.27806099 -22.08153467 389.33008811 -25.69364643 389.38142776 C-26.94790424 389.41494339 -28.20216206 389.44845901 -29.49442768 389.48299026 C-31.30233784 389.5023262 -31.30233784 389.5023262 -33.14677143 389.52205276 C-34.25697651 389.54300003 -35.36718159 389.5639473 -36.51102924 389.58552933 C-40.22438231 389.0105346 -41.15964799 388.0776303 -43.44364643 385.13142776 C-43.94701099 382.12039566 -43.94701099 382.12039566 -43.951581 378.52717972 C-43.95782096 377.8650488 -43.96406093 377.20291788 -43.97048998 376.52072239 C-43.98643742 374.30335505 -43.97381016 372.08708439 -43.96122456 369.86970901 C-43.96664495 368.27956374 -43.97376714 366.68942348 -43.98246479 365.09929276 C-44.00071114 360.78109186 -43.99362532 356.46327294 -43.98094845 352.14506531 C-43.97082753 347.62789499 -43.9802116 343.11075756 -43.98649311 338.59358597 C-43.99377217 331.0075073 -43.98417506 323.42158436 -43.96513081 315.83552933 C-43.94336153 307.0626315 -43.95041272 298.2901055 -43.97243643 289.51721668 C-43.99058308 281.98759177 -43.99315236 274.45807885 -43.98268175 266.92843914 C-43.97644276 262.4301729 -43.97562227 257.93208148 -43.98882771 253.43382645 C-44.00037496 249.20494668 -43.9923814 244.9765467 -43.96925068 240.74771881 C-43.96395752 239.19489845 -43.96548777 237.64203777 -43.97430134 236.0892334 C-43.98521742 233.97083417 -43.971544 231.85397653 -43.951581 229.73567581 C-43.9500729 228.54991455 -43.9485648 227.36415329 -43.94701099 226.14245987 C-43.44364643 223.13142776 -43.44364643 223.13142776 -41.80545521 220.74307632 C-38.73173828 218.64563664 -36.84891289 218.67095104 -33.14677143 218.74080276 C-31.94149799 218.75369339 -30.73622456 218.76658401 -29.49442768 218.77986526 C-27.61304096 218.8301387 -27.61304096 218.8301387 -25.69364643 218.88142776 C-24.42391987 218.89947464 -23.15419331 218.91752151 -21.84599018 218.93611526 C-18.71111566 218.98325624 -15.57776083 219.04905112 -12.44364643 219.13142776 C-12.4473336 218.03221622 -12.45102077 216.93300468 -12.45481968 215.8004837 C-12.54354274 189.07777841 -12.60931369 162.35509218 -12.65089512 135.63227081 C-12.67153708 122.70941057 -12.69968896 109.78664751 -12.74540424 96.86384964 C-12.7852219 85.60284383 -12.81106735 74.34190839 -12.82000041 63.08083415 C-12.82522373 57.11589268 -12.8375345 51.15115255 -12.86656666 45.18627548 C-12.89365552 39.57536422 -12.9021046 33.96473783 -12.89607716 28.3537674 C-12.89718032 26.29135848 -12.90517283 24.22894032 -12.92046833 22.16658783 C-12.94029396 19.35627644 -12.93561275 16.54704851 -12.9246645 13.73671341 C-12.93631586 12.91570184 -12.94796723 12.09469027 -12.95997167 11.24879956 C-12.92214998 7.67087742 -12.76857088 5.56793662 -10.6010828 2.65609741 C-7.06194315 0.15497206 -4.21280068 0.00532624 0 0 Z M3.55635357 17.13142776 C3.55635357 83.79142776 3.55635357 150.45142776 3.55635357 219.13142776 C105.19635357 219.13142776 206.83635357 219.13142776 311.55635357 219.13142776 C311.55635357 152.47142776 311.55635357 85.81142776 311.55635357 17.13142776 C209.91635357 17.13142776 108.27635357 17.13142776 3.55635357 17.13142776 Z M50.86885357 268.44392776 C45.44288436 274.74978388 41.61031641 281.0337901 39.55635357 289.13142776 C39.37201763 289.85588089 39.18768169 290.58033401 38.99775982 291.32674026 C36.56860465 306.76154924 38.54354576 322.13484057 47.55635357 335.13142776 C54.79325626 343.41225014 64.46142606 348.46051665 75.43135357 349.36970901 C86.63220846 349.63572932 96.91017947 347.6219145 105.61885357 340.19392776 C110.47256983 335.02706852 115.35950575 327.56050361 115.68135357 320.31892776 C115.64010357 319.59705276 115.59885357 318.87517776 115.55635357 318.13142776 C112.95377032 317.29285089 110.3494971 316.46039432 107.74385357 315.63142776 C107.00586529 315.3929512 106.26787701 315.15447464 105.50752544 314.90877151 C102.42380161 313.93202641 99.81139548 313.13142776 96.55635357 313.13142776 C96.25342388 313.95127151 95.95049419 314.77111526 95.63838482 315.61580276 C95.21943951 316.69345901 94.80049419 317.77111526 94.36885357 318.88142776 C93.96279888 319.94877151 93.55674419 321.01611526 93.13838482 322.11580276 C90.85439466 326.46948277 88.19372828 328.5856362 83.55635357 330.13142776 C77.58746076 330.66564881 72.62041659 330.66449499 67.55635357 327.13142776 C61.21055772 320.78563191 60.29936656 314.68548024 60.23408794 306.08650589 C60.2373106 305.13195511 60.24053326 304.17740433 60.24385357 303.19392776 C60.22774029 302.24324417 60.21162701 301.29256058 60.19502544 300.31306839 C60.18990541 292.88390129 61.302094 286.80005771 65.93135357 280.75642776 C69.91415233 276.773629 72.86506971 276.02572606 78.36885357 275.75642776 C83.48137539 275.90097823 87.58676957 276.77796545 91.55635357 280.13142776 C93.57787859 282.98910668 95.13638622 285.93650122 96.55635357 289.13142776 C103.13170218 288.51111186 109.22327949 286.98245493 115.55635357 285.13142776 C115.23385707 277.71400819 111.98783062 271.51244192 106.69697857 266.29939651 C89.45828838 252.68083127 67.14419721 254.43956231 50.86885357 268.44392776 Z M131.24385357 268.50642776 C127.64399068 274.10621448 125.84900747 279.41163987 126.55635357 286.13142776 C128.26428544 293.67810345 131.46381972 299.13704245 137.86885357 303.69392776 C145.24973406 308.03889892 154.14588444 309.89340134 162.34150982 312.19392776 C164.05660748 312.68892776 164.05660748 312.68892776 165.80635357 313.19392776 C166.82213482 313.47365433 167.83791607 313.75338089 168.88447857 314.04158401 C171.92108956 315.28020165 173.52346978 316.57096223 175.55635357 319.13142776 C175.55635357 322.86785262 175.02392649 324.57335686 172.61885357 327.44392776 C167.46011344 331.66471514 160.91277314 330.60069364 154.55635357 330.13142776 C151.08613758 329.3668039 150.34416552 328.68197912 147.55635357 326.13142776 C145.56125065 322.57605205 143.98387641 318.9469266 142.55635357 315.13142776 C139.76432347 315.27192607 136.97285561 315.41858159 134.18135357 315.56892776 C133.38729107 315.60824417 132.59322857 315.64756058 131.77510357 315.68806839 C127.53034136 315.82036181 127.53034136 315.82036181 123.55635357 317.13142776 C125.08151799 328.04839417 127.73732827 336.07261526 136.55635357 343.13142776 C147.91429736 350.4378405 162.1481258 350.77481672 175.05635357 348.00642776 C183.01060499 345.70757356 188.88219295 340.94234752 193.55635357 334.13142776 C197.04276929 326.70873623 197.67451913 319.46537511 195.49385357 311.56892776 C193.25920436 305.66821811 189.74792503 300.93376579 184.19673443 297.79890823 C177.31067933 294.70169537 170.40320049 292.46707441 163.11885357 290.50642776 C161.01380516 289.93894659 158.91082464 289.36372409 156.81025982 288.77986526 C155.89575054 288.53413773 154.98124126 288.28841019 154.03901958 288.03523636 C151.37329772 287.06478672 149.59924702 286.10189915 147.55635357 284.13142776 C147.30635357 280.44392776 147.30635357 280.44392776 147.55635357 277.13142776 C163.67955179 273.93628177 163.67955179 273.93628177 170.36885357 278.31892776 C172.19065124 281.09956632 173.33218581 284.04186151 174.55635357 287.13142776 C180.98890757 287.25228995 187.17408412 286.9549464 193.55635357 286.13142776 C194.21787764 278.98696782 192.5546548 274.09006116 188.55635357 268.13142776 C182.52444882 261.12917312 175.45062561 258.64931252 166.55635357 257.13142776 C152.47383706 256.14848702 141.23728536 258.24290322 131.24385357 268.50642776 Z M199.55635357 259.13142776 C200.96889274 266.26283676 203.10410874 272.90094428 205.59150982 279.72517776 C205.98905972 280.82954178 206.38660961 281.93390579 206.79620647 283.07173538 C208.06529866 286.59350686 209.34190472 290.11249842 210.61885357 293.63142776 C211.44943633 295.93202689 212.27951844 298.23280683 213.10908794 300.53377151 C214.75885345 305.10840328 216.41415024 309.68098347 218.07246685 314.25252151 C219.77258347 318.94631629 221.45090233 323.64721066 223.11445904 328.35408401 C223.52433559 329.50872147 223.93421215 330.66335892 224.35650921 331.85298538 C225.13763613 334.05553267 225.91433475 336.25965684 226.6860075 338.46553421 C227.0343716 339.44518143 227.38273571 340.42482864 227.7416563 341.43416214 C228.04498379 342.29602127 228.34831127 343.1578804 228.6608305 344.04585648 C229.47486083 346.29710092 229.47486083 346.29710092 231.55635357 348.13142776 C234.51487466 348.57502849 237.50583808 348.45555428 240.49385357 348.44392776 C241.31820904 348.46004105 242.14256451 348.47615433 242.99190044 348.49275589 C243.78531841 348.49340042 244.57873638 348.49404495 245.39619732 348.49470901 C246.12185894 348.49768997 246.84752056 348.50067093 247.59517193 348.50374222 C250.16561777 348.01576389 250.87474656 347.11526391 252.55635357 345.13142776 C253.57499784 343.02913475 253.57499784 343.02913475 254.3588438 340.63289261 C254.84154736 339.25979179 254.84154736 339.25979179 255.33400249 337.85895157 C255.67421429 336.86347809 256.01442608 335.86800461 256.36494732 334.84236526 C256.72828167 333.80262054 257.09161602 332.76287582 257.4659605 331.69162369 C258.6498176 328.29924829 259.82190261 324.90293265 260.99385357 321.50642776 C262.61020353 316.8580907 264.23181121 312.21159299 265.85322857 307.56502151 C266.45465931 305.83733284 266.45465931 305.83733284 267.06824017 304.07474136 C269.47040758 297.18771977 271.92080058 290.32157805 274.44697857 283.47908401 C274.8783588 282.30889725 274.8783588 282.30889725 275.31845379 281.11507034 C276.38288216 278.23301174 277.44948077 275.35190485 278.53068829 272.47609329 C279.24711986 270.57050099 279.95475749 268.66160914 280.66182232 266.75252151 C281.25193096 265.18135574 281.25193096 265.18135574 281.85396099 263.57844925 C282.84893024 261.15272513 282.84893024 261.15272513 281.55635357 259.13142776 C274.95635357 259.13142776 268.35635357 259.13142776 261.55635357 259.13142776 C258.65058441 266.21494675 256.06385948 273.33843137 253.66572857 280.60799026 C253.31625164 281.65925095 252.96677471 282.71051163 252.60670757 283.79362869 C251.50373985 287.11362396 250.40497824 290.43499313 249.30635357 293.75642776 C248.55402833 296.02344743 247.80142679 298.29037542 247.04854107 300.55720901 C245.21461786 306.08089333 243.38413514 311.60570835 241.55635357 317.13142776 C238.67209426 310.13798723 236.104381 303.0803773 233.70088482 295.90877151 C233.35377956 294.88207855 233.00667431 293.85538559 232.64905071 292.79758072 C231.17784927 288.44583357 229.71310111 284.09192257 228.24800396 279.73811722 C227.17217814 276.54419287 226.09289702 273.3514514 225.01338482 270.15877151 C224.68111385 269.16723572 224.34884289 268.17569992 224.00650311 267.15411758 C223.69915737 266.24549469 223.39181164 265.3368718 223.0751524 264.40071487 C222.80519955 263.59814758 222.5352467 262.79558029 222.25711346 261.96869278 C221.70409457 260.1429396 221.70409457 260.1429396 220.55635357 259.13142776 C218.99462612 259.04457174 217.42906013 259.02440557 215.86494732 259.03377151 C214.92070904 259.03699417 213.97647076 259.04021683 213.00361919 259.04353714 C211.51378521 259.0561055 211.51378521 259.0561055 209.99385357 259.06892776 C208.99676373 259.07343948 207.99967388 259.0779512 206.97236919 259.08259964 C204.50030219 259.09442771 202.02836691 259.11174819 199.55635357 259.13142776 Z M3.55635357 389.13142776 C3.55635357 402.99142776 3.55635357 416.85142776 3.55635357 431.13142776 C105.19635357 431.13142776 206.83635357 431.13142776 311.55635357 431.13142776 C311.55635357 417.27142776 311.55635357 403.41142776 311.55635357 389.13142776 C209.91635357 389.13142776 108.27635357 389.13142776 3.55635357 389.13142776 Z " fill="#00A650" transform="translate(98.44364643096924,31.868572235107422)"/>
<path d="M0 0 C0.99698221 -0.00623996 1.99396442 -0.01247993 3.02115822 -0.01890898 C6.3716031 -0.03490081 9.72132669 -0.02221015 13.07177734 -0.00964355 C15.46979193 -0.0150619 17.86780318 -0.02218293 20.26580811 -0.03088379 C26.10874186 -0.04725537 31.95148737 -0.0448238 37.79441595 -0.03323323 C42.5425876 -0.02420383 47.29070163 -0.02297275 52.03887939 -0.02732849 C52.71437069 -0.02794142 53.38986198 -0.02855436 54.0858227 -0.02918586 C55.45802166 -0.03046475 56.8302206 -0.0317616 58.20241952 -0.03307623 C71.07299099 -0.04448552 83.94344854 -0.03136289 96.81400132 -0.00987476 C107.86027018 0.00799658 118.9063709 0.00489257 129.95263672 -0.0135498 C142.77678636 -0.0349504 155.60083614 -0.04338686 168.42500114 -0.03110075 C169.79218418 -0.02982654 171.15936723 -0.02856906 172.52655029 -0.02732849 C173.1992504 -0.02671139 173.8719505 -0.02609429 174.56503546 -0.02545848 C179.3081315 -0.02200313 184.05116425 -0.02783788 188.79425049 -0.0372467 C195.1767593 -0.04962919 201.55902493 -0.04082769 207.94150543 -0.01766968 C210.28770671 -0.0123684 212.63393466 -0.01392043 214.98012543 -0.02272034 C218.17559186 -0.03360305 221.37002935 -0.01999953 224.56542969 0 C225.967947 -0.01338433 225.967947 -0.01338433 227.39879799 -0.02703905 C233.66362337 0.0493519 233.66362337 0.0493519 236.85684204 2.41468048 C238.39750619 4.67645413 238.82507102 5.79713947 238.78271484 8.50793457 C238.79818359 9.49793457 238.79818359 9.49793457 238.81396484 10.50793457 C237.99426345 13.59386922 236.8645019 14.59551473 234.28271484 16.50793457 C231.04989228 17.11678584 227.8468131 17.04718363 224.56542969 17.01586914 C223.56844748 17.0221091 222.57146526 17.02834907 221.54427147 17.03477812 C218.19382659 17.05076996 214.84410299 17.0380793 211.49365234 17.0255127 C209.09563776 17.03093104 206.6976265 17.03805207 204.29962158 17.04675293 C198.45668782 17.06312451 192.61394231 17.06069294 186.77101374 17.04910237 C182.02284209 17.04007297 177.27472806 17.03884189 172.52655029 17.04319763 C171.851059 17.04381056 171.17556771 17.0444235 170.47960699 17.045055 C169.10740803 17.04633389 167.73520909 17.04763074 166.36301017 17.04894537 C153.4924387 17.06035466 140.62198115 17.04723203 127.75142837 17.0257439 C116.70515951 17.00787256 105.65905879 17.01097657 94.61279297 17.02941895 C81.78864332 17.05081954 68.96459355 17.059256 56.14042854 17.04696989 C54.77324551 17.04569568 53.40606246 17.0444382 52.03887939 17.04319763 C51.36617929 17.04258053 50.69347918 17.04196343 50.00039423 17.04132763 C45.25729819 17.03787228 40.51426544 17.04370702 35.7711792 17.05311584 C29.38867039 17.06549833 23.00640475 17.05669684 16.62392426 17.03353882 C14.27772298 17.02823755 11.93149503 17.02978957 9.58530426 17.03858948 C6.38983783 17.04947219 3.19540034 17.03586867 0 17.01586914 C-1.40251731 17.02925347 -1.40251731 17.02925347 -2.8333683 17.04290819 C-9.09819369 16.96651724 -9.09819369 16.96651724 -12.29141235 14.60118866 C-13.8320765 12.33941501 -14.25964133 11.21872967 -14.21728516 8.50793457 C-14.23275391 7.51793457 -14.23275391 7.51793457 -14.24853516 6.50793457 C-12.33263197 -0.70487743 -6.13678272 -0.05856379 0 0 Z " fill="#00A650" transform="translate(143.71728515625,202.4920654296875)"/>
<path d="M0 0 C0.99698221 -0.00623996 1.99396442 -0.01247993 3.02115822 -0.01890898 C6.3716031 -0.03490081 9.72132669 -0.02221015 13.07177734 -0.00964355 C15.46979193 -0.0150619 17.86780318 -0.02218293 20.26580811 -0.03088379 C26.10874186 -0.04725537 31.95148737 -0.0448238 37.79441595 -0.03323323 C42.5425876 -0.02420383 47.29070163 -0.02297275 52.03887939 -0.02732849 C52.71437069 -0.02794142 53.38986198 -0.02855436 54.0858227 -0.02918586 C55.45802166 -0.03046475 56.8302206 -0.0317616 58.20241952 -0.03307623 C71.07299099 -0.04448552 83.94344854 -0.03136289 96.81400132 -0.00987476 C107.86027018 0.00799658 118.9063709 0.00489257 129.95263672 -0.0135498 C142.77678636 -0.0349504 155.60083614 -0.04338686 168.42500114 -0.03110075 C169.79218418 -0.02982654 171.15936723 -0.02856906 172.52655029 -0.02732849 C173.1992504 -0.02671139 173.8719505 -0.02609429 174.56503546 -0.02545848 C179.3081315 -0.02200313 184.05116425 -0.02783788 188.79425049 -0.0372467 C195.1767593 -0.04962919 201.55902493 -0.04082769 207.94150543 -0.01766968 C210.28770671 -0.0123684 212.63393466 -0.01392043 214.98012543 -0.02272034 C218.17559186 -0.03360305 221.37002935 -0.01999953 224.56542969 0 C225.967947 -0.01338433 225.967947 -0.01338433 227.39879799 -0.02703905 C233.66362337 0.0493519 233.66362337 0.0493519 236.85684204 2.41468048 C238.39750619 4.67645413 238.82507102 5.79713947 238.78271484 8.50793457 C238.79818359 9.49793457 238.79818359 9.49793457 238.81396484 10.50793457 C237.99426345 13.59386922 236.8645019 14.59551473 234.28271484 16.50793457 C231.04989228 17.11678584 227.8468131 17.04718363 224.56542969 17.01586914 C223.56844748 17.0221091 222.57146526 17.02834907 221.54427147 17.03477812 C218.19382659 17.05076996 214.84410299 17.0380793 211.49365234 17.0255127 C209.09563776 17.03093104 206.6976265 17.03805207 204.29962158 17.04675293 C198.45668782 17.06312451 192.61394231 17.06069294 186.77101374 17.04910237 C182.02284209 17.04007297 177.27472806 17.03884189 172.52655029 17.04319763 C171.851059 17.04381056 171.17556771 17.0444235 170.47960699 17.045055 C169.10740803 17.04633389 167.73520909 17.04763074 166.36301017 17.04894537 C153.4924387 17.06035466 140.62198115 17.04723203 127.75142837 17.0257439 C116.70515951 17.00787256 105.65905879 17.01097657 94.61279297 17.02941895 C81.78864332 17.05081954 68.96459355 17.059256 56.14042854 17.04696989 C54.77324551 17.04569568 53.40606246 17.0444382 52.03887939 17.04319763 C51.36617929 17.04258053 50.69347918 17.04196343 50.00039423 17.04132763 C45.25729819 17.03787228 40.51426544 17.04370702 35.7711792 17.05311584 C29.38867039 17.06549833 23.00640475 17.05669684 16.62392426 17.03353882 C14.27772298 17.02823755 11.93149503 17.02978957 9.58530426 17.03858948 C6.38983783 17.04947219 3.19540034 17.03586867 0 17.01586914 C-1.40251731 17.02925347 -1.40251731 17.02925347 -2.8333683 17.04290819 C-9.09819369 16.96651724 -9.09819369 16.96651724 -12.29141235 14.60118866 C-13.8320765 12.33941501 -14.25964133 11.21872967 -14.21728516 8.50793457 C-14.23275391 7.51793457 -14.23275391 7.51793457 -14.24853516 6.50793457 C-12.33263197 -0.70487743 -6.13678272 -0.05856379 0 0 Z " fill="#00A650" transform="translate(143.71728515625,146.4920654296875)"/>
<path d="M0 0 C0.99698221 -0.00623996 1.99396442 -0.01247993 3.02115822 -0.01890898 C6.3716031 -0.03490081 9.72132669 -0.02221015 13.07177734 -0.00964355 C15.46979193 -0.0150619 17.86780318 -0.02218293 20.26580811 -0.03088379 C26.10874186 -0.04725537 31.95148737 -0.0448238 37.79441595 -0.03323323 C42.5425876 -0.02420383 47.29070163 -0.02297275 52.03887939 -0.02732849 C52.71437069 -0.02794142 53.38986198 -0.02855436 54.0858227 -0.02918586 C55.45802166 -0.03046475 56.8302206 -0.0317616 58.20241952 -0.03307623 C71.07299099 -0.04448552 83.94344854 -0.03136289 96.81400132 -0.00987476 C107.86027018 0.00799658 118.9063709 0.00489257 129.95263672 -0.0135498 C142.77678636 -0.0349504 155.60083614 -0.04338686 168.42500114 -0.03110075 C169.79218418 -0.02982654 171.15936723 -0.02856906 172.52655029 -0.02732849 C173.1992504 -0.02671139 173.8719505 -0.02609429 174.56503546 -0.02545848 C179.3081315 -0.02200313 184.05116425 -0.02783788 188.79425049 -0.0372467 C195.1767593 -0.04962919 201.55902493 -0.04082769 207.94150543 -0.01766968 C210.28770671 -0.0123684 212.63393466 -0.01392043 214.98012543 -0.02272034 C218.17559186 -0.03360305 221.37002935 -0.01999953 224.56542969 0 C225.967947 -0.01338433 225.967947 -0.01338433 227.39879799 -0.02703905 C233.66362337 0.0493519 233.66362337 0.0493519 236.85684204 2.41468048 C238.39750619 4.67645413 238.82507102 5.79713947 238.78271484 8.50793457 C238.79818359 9.49793457 238.79818359 9.49793457 238.81396484 10.50793457 C237.99426345 13.59386922 236.8645019 14.59551473 234.28271484 16.50793457 C231.04989228 17.11678584 227.8468131 17.04718363 224.56542969 17.01586914 C223.56844748 17.0221091 222.57146526 17.02834907 221.54427147 17.03477812 C218.19382659 17.05076996 214.84410299 17.0380793 211.49365234 17.0255127 C209.09563776 17.03093104 206.6976265 17.03805207 204.29962158 17.04675293 C198.45668782 17.06312451 192.61394231 17.06069294 186.77101374 17.04910237 C182.02284209 17.04007297 177.27472806 17.03884189 172.52655029 17.04319763 C171.851059 17.04381056 171.17556771 17.0444235 170.47960699 17.045055 C169.10740803 17.04633389 167.73520909 17.04763074 166.36301017 17.04894537 C153.4924387 17.06035466 140.62198115 17.04723203 127.75142837 17.0257439 C116.70515951 17.00787256 105.65905879 17.01097657 94.61279297 17.02941895 C81.78864332 17.05081954 68.96459355 17.059256 56.14042854 17.04696989 C54.77324551 17.04569568 53.40606246 17.0444382 52.03887939 17.04319763 C51.36617929 17.04258053 50.69347918 17.04196343 50.00039423 17.04132763 C45.25729819 17.03787228 40.51426544 17.04370702 35.7711792 17.05311584 C29.38867039 17.06549833 23.00640475 17.05669684 16.62392426 17.03353882 C14.27772298 17.02823755 11.93149503 17.02978957 9.58530426 17.03858948 C6.38983783 17.04947219 3.19540034 17.03586867 0 17.01586914 C-1.40251731 17.02925347 -1.40251731 17.02925347 -2.8333683 17.04290819 C-9.09819369 16.96651724 -9.09819369 16.96651724 -12.29141235 14.60118866 C-13.8320765 12.33941501 -14.25964133 11.21872967 -14.21728516 8.50793457 C-14.23275391 7.51793457 -14.23275391 7.51793457 -14.24853516 6.50793457 C-12.33263197 -0.70487743 -6.13678272 -0.05856379 0 0 Z " fill="#00A650" transform="translate(143.71728515625,90.4920654296875)"/>
</svg>
