<svg width="20" height="20" viewBox="0 0 20 20" fill="none" xmlns="http://www.w3.org/2000/svg">
<path d="M17.5001 14.5834C17.5001 16.1942 16.1942 17.5001 14.5834 17.5001C12.9726 17.5001 11.6667 16.1942 11.6667 14.5834C11.6667 12.9726 12.9726 11.6667 14.5834 11.6667C16.1942 11.6667 17.5001 12.9726 17.5001 14.5834Z" stroke="#335CFF" stroke-width="1.5"/>
<path d="M14.5833 11.6667L5.41667 11.6667C3.80584 11.6667 2.5 12.9726 2.5 14.5834C2.5 16.1942 3.80584 17.5001 5.41667 17.5001L14.5833 17.5001C16.1942 17.5001 17.5 16.1942 17.5 14.5834C17.5 12.9726 16.1942 11.6667 14.5833 11.6667Z" stroke="#335CFF" stroke-width="1.5"/>
<path d="M2.49992 5.41667C2.49992 7.0275 3.80575 8.33333 5.41659 8.33333C7.02742 8.33333 8.33325 7.0275 8.33325 5.41667C8.33325 3.80584 7.02742 2.5 5.41659 2.5C3.80575 2.5 2.49992 3.80584 2.49992 5.41667Z" stroke="#335CFF" stroke-width="1.5"/>
<path d="M5.41667 2.5L14.5833 2.5C16.1942 2.5 17.5 3.80584 17.5 5.41667C17.5 7.0275 16.1942 8.33333 14.5833 8.33333L5.41667 8.33333C3.80584 8.33333 2.5 7.0275 2.5 5.41667C2.5 3.80584 3.80584 2.5 5.41667 2.5Z" stroke="#335CFF" stroke-width="1.5"/>
</svg>
