<svg width="18" height="18" viewBox="0 0 18 18" fill="none" xmlns="http://www.w3.org/2000/svg">
<path d="M2.24271 15.7576C1.08334 14.5983 1.08334 12.7323 1.08334 9.00033C1.08334 5.26837 1.08334 3.4024 2.24271 2.24303C3.40208 1.08366 5.26806 1.08366 9.00001 1.08366C12.732 1.08366 14.5979 1.08366 15.7573 2.24303C16.9167 3.4024 16.9167 5.26837 16.9167 9.00032C16.9167 12.7323 16.9167 14.5983 15.7573 15.7576C14.5979 16.917 12.732 16.917 9.00001 16.917C5.26806 16.917 3.40208 16.917 2.24271 15.7576Z" stroke="#335CFF" stroke-width="1.5" stroke-linecap="round" stroke-linejoin="round"/>
<path d="M1.08334 6.5L16.9167 6.5" stroke="#335CFF" stroke-width="1.5"/>
<path d="M12.3333 16.917L12.3333 1.08366" stroke="#335CFF" stroke-width="1.5"/>
<path d="M5.66669 16.916L5.66669 1.08268" stroke="#335CFF" stroke-width="1.5"/>
</svg>
