<svg width="20" height="20" viewBox="0 0 20 20" fill="none" xmlns="http://www.w3.org/2000/svg">
<path d="M12.25 16.75H7.75V8.5H12.25V16.75ZM13.75 16.75V8.5H17.5V16C17.5 16.1989 17.421 16.3897 17.2803 16.5303C17.1397 16.671 16.9489 16.75 16.75 16.75H13.75ZM6.25 16.75H3.25C3.05109 16.75 2.86032 16.671 2.71967 16.5303C2.57902 16.3897 2.5 16.1989 2.5 16V8.5H6.25V16.75ZM17.5 7H2.5V4C2.5 3.80109 2.57902 3.61032 2.71967 3.46967C2.86032 3.32902 3.05109 3.25 3.25 3.25H16.75C16.9489 3.25 17.1397 3.32902 17.2803 3.46967C17.421 3.61032 17.5 3.80109 17.5 4V7Z" fill="#335CFF"/>
</svg>
