<svg width="20" height="20" viewBox="0 0 20 20" fill="none" xmlns="http://www.w3.org/2000/svg">
<path d="M11.5 5.5H13V7H16.75C16.9489 7 17.1397 7.07902 17.2803 7.21967C17.421 7.36032 17.5 7.55109 17.5 7.75V13.375L13 10.75L13.027 16.7965L14.6943 15.184L16.0308 17.5H7.75C7.55109 17.5 7.36032 17.421 7.21967 17.2803C7.07902 17.1397 7 16.9489 7 16.75V13H5.5V11.5H7V7.75C7 7.55109 7.07902 7.36032 7.21967 7.21967C7.36032 7.07902 7.55109 7 7.75 7H11.5V5.5ZM17.5 14.0035V16.75C17.5001 16.8282 17.4879 16.9058 17.464 16.9802L15.994 14.4347L17.5 14.0035ZM4 11.5V13H2.5V11.5H4ZM4 8.5V10H2.5V8.5H4ZM4 5.5V7H2.5V5.5H4ZM4 2.5V4H2.5V2.5H4ZM7 2.5V4H5.5V2.5H7ZM10 2.5V4H8.5V2.5H10ZM13 2.5V4H11.5V2.5H13Z" fill="#7D52F4"/>
</svg>
