<svg width="14" height="14" viewBox="0 0 14 14" fill="none" xmlns="http://www.w3.org/2000/svg">
<path d="M12.4045 12.4055C11.477 13.333 9.98426 13.333 6.9987 13.333C4.01314 13.333 2.52036 13.333 1.59286 12.4055C0.665365 11.478 0.665364 9.98524 0.665364 6.99968C0.665364 4.01411 0.665364 2.52133 1.59286 1.59384C2.52035 0.666342 4.01313 0.666342 6.9987 0.666342C9.98426 0.666342 11.477 0.666341 12.4045 1.59384C13.332 2.52133 13.332 4.01411 13.332 6.99967C13.332 9.98524 13.332 11.478 12.4045 12.4055Z" stroke="#0E121B" stroke-width="1.25" stroke-linecap="round" stroke-linejoin="round"/>
<path d="M4.99878 13.333L4.99878 0.666341" stroke="#0E121B" stroke-width="1.25"/>
<path d="M13.332 4.33301L0.665365 4.33301" stroke="#0E121B" stroke-width="1.25"/>
<path d="M13.332 9.6665L0.665364 9.6665" stroke="#0E121B" stroke-width="1.25"/>
</svg>
