<svg width="20" height="20" viewBox="0 0 20 20" fill="none" xmlns="http://www.w3.org/2000/svg">
<path d="M5.625 6.875C5.625 6.35723 6.04473 5.9375 6.5625 5.9375C7.08027 5.9375 7.5 6.35723 7.5 6.875C7.5 7.39277 7.08027 7.8125 6.5625 7.8125C6.04473 7.8125 5.625 7.39277 5.625 6.875ZM6.5625 4.6875C5.35438 4.6875 4.375 5.66688 4.375 6.875C4.375 8.08312 5.35438 9.0625 6.5625 9.0625C7.77062 9.0625 8.75 8.08312 8.75 6.875C8.75 5.66688 7.77062 4.6875 6.5625 4.6875ZM10 7.5H15V6.25H10V7.5ZM12.5 13.125C12.5 12.6072 12.9197 12.1875 13.4375 12.1875C13.9553 12.1875 14.375 12.6072 14.375 13.125C14.375 13.6428 13.9553 14.0625 13.4375 14.0625C12.9197 14.0625 12.5 13.6428 12.5 13.125ZM13.4375 10.9375C12.2294 10.9375 11.25 11.9169 11.25 13.125C11.25 14.3331 12.2294 15.3125 13.4375 15.3125C14.6456 15.3125 15.625 14.3331 15.625 13.125C15.625 11.9169 14.6456 10.9375 13.4375 10.9375ZM5 12.5V13.75H10V12.5H5Z" fill="#525866"/>
</svg>
