<svg width="16" height="16" viewBox="0 0 16 16" fill="none" xmlns="http://www.w3.org/2000/svg">
<path d="M10.6665 11.3335L5.99984 11.3335" stroke="#335CFF" stroke-linecap="round" stroke-linejoin="round"/>
<path d="M10.6665 8.66699L8.6665 8.66699" stroke="#335CFF" stroke-linecap="round" stroke-linejoin="round"/>
<path d="M13.6665 9.33366C13.6665 11.8478 13.6665 13.1049 12.8366 13.8859C12.0068 14.667 10.6711 14.667 7.99984 14.667H7.48469C5.31055 14.667 4.22348 14.667 3.46855 14.1351C3.25225 13.9827 3.06022 13.802 2.8983 13.5984C2.33317 12.8879 2.33317 11.8648 2.33317 9.81851V8.12154C2.33317 6.14609 2.33317 5.15837 2.64579 4.36949C3.14838 3.10127 4.21126 2.10091 5.55874 1.62789C6.39692 1.33366 7.44638 1.33366 9.54529 1.33366C10.7447 1.33366 11.3444 1.33366 11.8233 1.50179C12.5933 1.77209 13.2007 2.34372 13.4879 3.06842C13.6665 3.5192 13.6665 4.08362 13.6665 5.21245V9.33366Z" stroke="#335CFF" stroke-linejoin="round"/>
<path d="M2.33333 8C2.33333 6.7727 3.32826 5.77778 4.55556 5.77778C4.99941 5.77778 5.52269 5.85555 5.95424 5.73992C6.33768 5.63718 6.63718 5.33768 6.73992 4.95424C6.85555 4.52269 6.77778 3.99941 6.77778 3.55556C6.77778 2.32826 7.7727 1.33333 9 1.33333" stroke="#335CFF" stroke-linecap="round" stroke-linejoin="round"/>
</svg>
