<svg xmlns="http://www.w3.org/2000/svg" width="20" height="20" viewBox="0 0 20 20" fill="none">
    <path d="M3.10089 4.90037L6.25089 7.00037L9.39039 2.60537C9.45977 2.50814 9.55136 2.4289 9.65755 2.37422C9.76374 2.31954 9.88145 2.29102 10.0009 2.29102C10.1203 2.29102 10.238 2.31954 10.3442 2.37422C10.4504 2.4289 10.542 2.50814 10.6114 2.60537L13.7509 7.00037L16.9009 4.90037C17.0201 4.82105 17.1595 4.77752 17.3027 4.77492C17.4459 4.77232 17.5868 4.81075 17.7088 4.88568C17.8308 4.96061 17.9288 5.06891 17.9913 5.19777C18.0537 5.32663 18.078 5.47067 18.0611 5.61287L16.8289 16.0881C16.8074 16.2706 16.7197 16.4388 16.5824 16.5608C16.4451 16.6829 16.2678 16.7503 16.0841 16.7504H3.91764C3.73394 16.7503 3.55664 16.6829 3.41936 16.5608C3.28209 16.4388 3.19438 16.2706 3.17289 16.0881L1.94064 5.61212C1.92399 5.46998 1.94835 5.32604 2.01086 5.1973C2.07336 5.06856 2.17139 4.96039 2.29337 4.88556C2.41536 4.81073 2.55621 4.77236 2.6993 4.77498C2.84238 4.77761 2.98173 4.82111 3.10089 4.90037V4.90037ZM10.0009 12.2504C10.3987 12.2504 10.7802 12.0923 11.0616 11.811C11.3429 11.5297 11.5009 11.1482 11.5009 10.7504C11.5009 10.3525 11.3429 9.97101 11.0616 9.68971C10.7802 9.4084 10.3987 9.25037 10.0009 9.25037C9.60307 9.25037 9.22154 9.4084 8.94023 9.68971C8.65893 9.97101 8.50089 10.3525 8.50089 10.7504C8.50089 11.1482 8.65893 11.5297 8.94023 11.811C9.22154 12.0923 9.60307 12.2504 10.0009 12.2504Z" fill="#F6B51E"/>
</svg>
