<svg xmlns="http://www.w3.org/2000/svg" width="18" height="18" viewBox="0 0 18 18" fill="none">
<path d="M1.08398 8.9987C1.08398 5.26675 1.08398 3.40077 2.24335 2.2414C3.40272 1.08203 5.2687 1.08203 9.00065 1.08203C12.7326 1.08203 14.5986 1.08203 15.7579 2.2414C16.9173 3.40077 16.9173 5.26675 16.9173 8.9987C16.9173 12.7306 16.9173 14.5966 15.7579 15.756C14.5986 16.9154 12.7326 16.9154 9.00065 16.9154C5.2687 16.9154 3.40272 16.9154 2.24335 15.756C1.08398 14.5966 1.08398 12.7306 1.08398 8.9987Z" stroke="#335CFF" stroke-width="1.5" stroke-linejoin="round"/>
<path d="M6.08398 7.33203C5.39363 7.33203 4.83398 6.77239 4.83398 6.08203C4.83398 5.39168 5.39363 4.83203 6.08398 4.83203C6.77434 4.83203 7.33398 5.39168 7.33398 6.08203C7.33398 6.77239 6.77434 7.33203 6.08398 7.33203Z" stroke="#335CFF" stroke-width="1.5"/>
<path d="M11.916 13.168C12.6064 13.168 13.166 12.6083 13.166 11.918C13.166 11.2276 12.6064 10.668 11.916 10.668C11.2257 10.668 10.666 11.2276 10.666 11.918C10.666 12.6083 11.2257 13.168 11.916 13.168Z" stroke="#335CFF" stroke-width="1.5"/>
<path d="M7.33268 6.08203L13.166 6.08203" stroke="#335CFF" stroke-width="1.5" stroke-linecap="round"/>
<path d="M10.6673 11.918L4.83398 11.918" stroke="#335CFF" stroke-width="1.5" stroke-linecap="round"/>
</svg>