<svg width="20" height="20" viewBox="0 0 20 20" fill="none" xmlns="http://www.w3.org/2000/svg">
<g clip-path="url(#clip0_2268_163525)">
<path d="M8.39792 18.334C4.55704 17.5524 1.66667 14.1563 1.66667 10.0853C1.66667 5.43616 5.43609 1.66732 10.0859 1.66732C14.1532 1.66732 17.5469 4.55101 18.3333 8.38511" stroke="#335CFF" stroke-width="1.5" stroke-linecap="round"/>
<path d="M15.361 11.541C15.6404 11.2383 15.7802 11.0869 15.9286 10.9986C16.2869 10.7855 16.728 10.7789 17.0922 10.9811C17.2432 11.0649 17.3872 11.212 17.6752 11.5063C17.9633 11.8005 18.1073 11.9476 18.1893 12.1018C18.3873 12.4739 18.3808 12.9245 18.1722 13.2905C18.0858 13.4422 17.9376 13.5849 17.6412 13.8704L14.1148 17.2668C13.5532 17.8078 13.2723 18.0783 12.9214 18.2154C12.5704 18.3525 12.1845 18.3424 11.4129 18.3222L11.3079 18.3195C11.0729 18.3133 10.9555 18.3102 10.8872 18.2328C10.8189 18.1553 10.8282 18.0356 10.8469 17.7963L10.857 17.6664C10.9095 16.9928 10.9357 16.656 11.0672 16.3533C11.1988 16.0506 11.4256 15.8048 11.8794 15.3132L15.361 11.541Z" stroke="#335CFF" stroke-width="1.5" stroke-linejoin="round"/>
<path d="M16.6667 4.74948C15.8877 4.80562 14.8901 5.10719 14.1983 6.00264C12.9487 7.62 11.6992 7.75496 10.8662 7.21584C9.61663 6.40716 10.6667 5.0973 9.20012 4.38545C8.24429 3.92151 8.11102 2.65904 8.643 1.66699" stroke="#335CFF" stroke-width="1.5" stroke-linejoin="round"/>
<path d="M1.66667 9.16699C2.30209 9.71876 3.19205 10.2238 4.24062 10.2238C6.40703 10.2238 6.84031 10.6378 6.84031 12.2935C6.84031 13.9492 6.84031 13.9492 7.2736 15.191C7.55543 15.9988 7.65394 16.8065 7.09217 17.5003" stroke="#335CFF" stroke-width="1.5" stroke-linejoin="round"/>
</g>
<defs>
<clipPath id="clip0_2268_163525">
<rect width="20" height="20" fill="white"/>
</clipPath>
</defs>
</svg>
