<svg width="18" height="18" viewBox="0 0 18 18" fill="none" xmlns="http://www.w3.org/2000/svg">
<path d="M1.08333 8.99967C1.08333 5.26772 1.08333 3.40175 2.2427 2.24238C3.40207 1.08301 5.26804 1.08301 8.99999 1.08301C12.7319 1.08301 14.5979 1.08301 15.7573 2.24238C16.9167 3.40175 16.9167 5.26772 16.9167 8.99967C16.9167 12.7316 16.9167 14.5976 15.7573 15.757C14.5979 16.9163 12.7319 16.9163 8.99999 16.9163C5.26804 16.9163 3.40207 16.9163 2.2427 15.757C1.08333 14.5976 1.08333 12.7316 1.08333 8.99967Z" stroke="#335CFF" stroke-width="1.5" stroke-linejoin="round"/>
<path d="M6.08331 7.33301C5.39296 7.33301 4.83331 6.77336 4.83331 6.08301C4.83331 5.39265 5.39296 4.83301 6.08331 4.83301C6.77367 4.83301 7.33331 5.39265 7.33331 6.08301C7.33331 6.77336 6.77367 7.33301 6.08331 7.33301Z" stroke="#335CFF" stroke-width="1.5"/>
<path d="M11.9167 13.166C12.607 13.166 13.1667 12.6064 13.1667 11.916C13.1667 11.2257 12.607 10.666 11.9167 10.666C11.2263 10.666 10.6667 11.2257 10.6667 11.916C10.6667 12.6064 11.2263 13.166 11.9167 13.166Z" stroke="#335CFF" stroke-width="1.5"/>
<path d="M7.33332 6.08301L13.1667 6.08301" stroke="#335CFF" stroke-width="1.5" stroke-linecap="round"/>
<path d="M10.6667 11.916L4.83333 11.916" stroke="#335CFF" stroke-width="1.5" stroke-linecap="round"/>
</svg>
