<svg xmlns="http://www.w3.org/2000/svg" width="20" height="20" viewBox="0 0 20 20" fill="none">
<path d="M8.39727 18.332C4.55638 17.5505 1.66602 14.1544 1.66602 10.0833C1.66602 5.43421 5.43543 1.66537 10.0852 1.66537C14.1525 1.66537 17.5462 4.54906 18.3327 8.38315" stroke="#335CFF" stroke-width="1.5" stroke-linecap="round"/>
<path d="M15.3616 11.5391C15.6411 11.2363 15.7808 11.0849 15.9293 10.9966C16.2875 10.7836 16.7286 10.7769 17.0929 10.9792C17.2438 11.063 17.3878 11.2101 17.6759 11.5043C17.9639 11.7986 18.1079 11.9457 18.19 12.0999C18.3879 12.472 18.3814 12.9226 18.1729 13.2885C18.0864 13.4402 17.9382 13.5829 17.6418 13.8684L14.1155 17.2649C13.5538 17.8059 13.273 18.0763 12.922 18.2134C12.571 18.3505 12.1852 18.3404 11.4135 18.3202L11.3085 18.3175C11.0736 18.3114 10.9561 18.3083 10.8878 18.2308C10.8195 18.1533 10.8289 18.0337 10.8475 17.7943L10.8576 17.6644C10.9101 16.9909 10.9363 16.6541 11.0679 16.3514C11.1994 16.0486 11.4263 15.8028 11.88 15.3112L15.3616 11.5391Z" stroke="#335CFF" stroke-width="1.5" stroke-linejoin="round"/>
<path d="M16.6673 4.74655C15.8884 4.80269 14.8907 5.10426 14.1989 5.99971C12.9494 7.61707 11.6998 7.75203 10.8668 7.21291C9.61728 6.40423 10.6673 5.09437 9.20076 4.38252C8.24493 3.91858 8.11166 2.65611 8.64364 1.66406" stroke="#335CFF" stroke-width="1.5" stroke-linejoin="round"/>
<path d="M1.66602 9.16406C2.30143 9.71583 3.1914 10.2209 4.23997 10.2209C6.40638 10.2209 6.83966 10.6348 6.83966 12.2906C6.83966 13.9463 6.83966 13.9463 7.27294 15.1881C7.55477 15.9958 7.65328 16.8036 7.09152 17.4974" stroke="#335CFF" stroke-width="1.5" stroke-linejoin="round"/>
</svg>