<?xml version="1.0" encoding="UTF-8"?>
<svg version="1.1" xmlns="http://www.w3.org/2000/svg" width="96" height="96">
<path d="M0 0 C5.47538181 -1.008748 10.95636704 -1.19894382 16.5144043 -1.37988281 C18.34822456 -1.4586054 20.18081582 -1.58020304 22.00854492 -1.74902344 C33.08448674 -2.75804549 41.05991435 -1.06627625 49.92593384 5.93521118 C58.46119392 13.71464335 63.24352414 21.08372788 64.01689148 32.76043701 C64.24757935 39.16970462 63.95775811 45.5388243 63.55853271 51.93505859 C63.35460109 55.62495602 63.2869094 59.3175473 63.20117188 63.01171875 C63.05181174 68.38399173 62.85942571 73.75127913 62.56030273 79.11767578 C62.50140366 80.18462677 62.44250458 81.25157776 62.38182068 82.3508606 C62 85 62 85 60 88 C57.49511719 88.3742218 57.49511719 88.3742218 54.296875 88.37231445 C53.10223633 88.37854324 51.90759766 88.38477203 50.67675781 88.39118958 C49.38092773 88.38197983 48.08509766 88.37277008 46.75 88.36328125 C45.4124349 88.36276276 44.07486903 88.36328002 42.73730469 88.36479187 C39.93282712 88.3647021 37.12863674 88.35426333 34.32421875 88.33618164 C30.72593122 88.31349395 27.12806348 88.31294971 23.52972412 88.31969929 C20.76737728 88.32303774 18.00512649 88.31641159 15.24279785 88.30657005 C13.2696207 88.30083825 11.29642718 88.30215527 9.32324219 88.30354309 C7.53128418 88.28924507 7.53128418 88.28924507 5.703125 88.2746582 C4.64770508 88.27005081 3.59228516 88.26544342 2.50488281 88.26069641 C0 88 0 88 -2 86 C-2.19843897 83.36579539 -2.27274987 80.83672642 -2.25878906 78.20141602 C-2.2622937 77.39639648 -2.26579834 76.59137695 -2.26940918 75.76196289 C-2.27823414 73.09252375 -2.27237415 70.42334823 -2.265625 67.75390625 C-2.26697156 65.90307057 -2.26891202 64.05223523 -2.27142334 62.20140076 C-2.27437575 58.3183964 -2.27007372 54.43548393 -2.26074219 50.55249023 C-2.24935553 45.57103173 -2.2559014 40.58978891 -2.26788712 35.60833836 C-2.27510935 31.78482942 -2.27281597 27.96137172 -2.26763153 24.13786125 C-2.26629563 22.30101432 -2.26794067 20.46416277 -2.27259064 18.62732124 C-2.27766095 16.06074811 -2.26993821 13.4945255 -2.25878906 10.92797852 C-2.26283752 10.16579514 -2.26688599 9.40361176 -2.27105713 8.61833191 C-2.24080895 4.86599086 -2.13575321 3.20362982 0 0 Z " fill="#34A852" transform="translate(18,4)"/>
<path d="M0 0 C13.2 0 26.4 0 40 0 C40 9.57 40 19.14 40 29 C26.8 29 13.6 29 0 29 C0 19.43 0 9.86 0 0 Z " fill="#FFFFFF" transform="translate(28,38)"/>
<path d="M0 0 C7.88864358 6.76169449 7.88864358 6.76169449 10.96484375 9.83203125 C11.61904297 10.48494141 12.27324219 11.13785156 12.94726562 11.81054688 C13.60404297 12.47119141 14.26082031 13.13183594 14.9375 13.8125 C15.62134766 14.49248047 16.30519531 15.17246094 17.00976562 15.87304688 C17.65494141 16.51951172 18.30011719 17.16597656 18.96484375 17.83203125 C19.5487085 18.41702393 20.13257324 19.0020166 20.73413086 19.60473633 C22 21 22 21 22 22 C14.74 22 7.48 22 0 22 C0 14.74 0 7.48 0 0 Z " fill="#178037" transform="translate(58,4)"/>
<path d="M0 0 C4.29 0 8.58 0 13 0 C13 2.31 13 4.62 13 7 C8.71 7 4.42 7 0 7 C0 4.69 0 2.38 0 0 Z " fill="#3BAB59" transform="translate(50,55)"/>
<path d="M0 0 C4.29 0 8.58 0 13 0 C13 2.31 13 4.62 13 7 C8.71 7 4.42 7 0 7 C0 4.69 0 2.38 0 0 Z " fill="#3BAB59" transform="translate(33,55)"/>
<path d="M0 0 C4.29 0 8.58 0 13 0 C13 2.31 13 4.62 13 7 C8.71 7 4.42 7 0 7 C0 4.69 0 2.38 0 0 Z " fill="#3BAB59" transform="translate(50,43)"/>
<path d="M0 0 C4.29 0 8.58 0 13 0 C13 2.31 13 4.62 13 7 C8.71 7 4.42 7 0 7 C0 4.69 0 2.38 0 0 Z " fill="#3BAB59" transform="translate(33,43)"/>
</svg>
