<svg width="40" height="40" viewBox="0 0 40 40" fill="none" xmlns="http://www.w3.org/2000/svg">
<path d="M30 39.25H10C7.10051 39.25 4.75 36.8995 4.75 34V6C4.75 3.10051 7.10051 0.75 10 0.75H20.5147C21.9071 0.75 23.2425 1.30312 24.227 2.28769L33.7123 11.773C34.6969 12.7575 35.25 14.0929 35.25 15.4853V34C35.25 36.8995 32.8995 39.25 30 39.25Z" fill="white" stroke="#CACFD8" stroke-width="1.5"/>
<path d="M23 1V9C23 11.2091 24.7909 13 27 13H35" stroke="#CACFD8" stroke-width="1.5"/>
<path d="M0 22C0 19.7909 1.79086 18 4 18H33C35.2091 18 37 19.7909 37 22V30C37 32.2091 35.2091 34 33 34H4C1.79086 34 0 32.2091 0 30V22Z" fill="#47C2FF"/>
<path d="M6.94531 22H8.38281V27.625C8.38021 28.1406 8.27083 28.5846 8.05469 28.957C7.83854 29.3268 7.53646 29.612 7.14844 29.8125C6.76302 30.0104 6.3138 30.1094 5.80078 30.1094C5.33203 30.1094 4.91016 30.026 4.53516 29.8594C4.16276 29.6901 3.86719 29.4401 3.64844 29.1094C3.42969 28.7786 3.32031 28.3672 3.32031 27.875H4.76172C4.76432 28.0911 4.8112 28.2773 4.90234 28.4336C4.99609 28.5898 5.125 28.7096 5.28906 28.793C5.45313 28.8763 5.64193 28.918 5.85547 28.918C6.08724 28.918 6.28385 28.8698 6.44531 28.7734C6.60677 28.6745 6.72917 28.5286 6.8125 28.3359C6.89844 28.1432 6.94271 27.9062 6.94531 27.625V22ZM14.5227 24.1992C14.4863 23.8581 14.3326 23.5924 14.0618 23.4023C13.7936 23.2122 13.4446 23.1172 13.0149 23.1172C12.7128 23.1172 12.4537 23.1628 12.2376 23.2539C12.0214 23.3451 11.8561 23.4687 11.7415 23.625C11.6269 23.7812 11.5683 23.9596 11.5657 24.1602C11.5657 24.3268 11.6035 24.4714 11.679 24.5937C11.7571 24.7161 11.8626 24.8203 11.9954 24.9062C12.1282 24.9896 12.2753 25.0599 12.4368 25.1172C12.5983 25.1745 12.761 25.2227 12.9251 25.2617L13.6751 25.4492C13.9772 25.5195 14.2675 25.6146 14.5462 25.7344C14.8274 25.8542 15.0787 26.0052 15.3001 26.1875C15.524 26.3698 15.7011 26.5898 15.8313 26.8477C15.9615 27.1055 16.0266 27.4076 16.0266 27.7539C16.0266 28.2227 15.9068 28.6354 15.6673 28.9922C15.4277 29.3464 15.0813 29.6237 14.6282 29.8242C14.1777 30.0221 13.6321 30.1211 12.9915 30.1211C12.3691 30.1211 11.8287 30.0247 11.3704 29.832C10.9147 29.6393 10.5579 29.3581 10.3001 28.9883C10.0449 28.6185 9.90685 28.168 9.88602 27.6367H11.3118C11.3326 27.9154 11.4186 28.1471 11.5696 28.332C11.7207 28.5169 11.9173 28.6549 12.1595 28.7461C12.4042 28.8372 12.6777 28.8828 12.9798 28.8828C13.2949 28.8828 13.5709 28.8359 13.8079 28.7422C14.0475 28.6458 14.235 28.513 14.3704 28.3437C14.5058 28.1719 14.5748 27.9714 14.5774 27.7422C14.5748 27.5339 14.5136 27.362 14.3938 27.2266C14.274 27.0885 14.1061 26.974 13.8899 26.8828C13.6764 26.7891 13.4264 26.7057 13.1399 26.6328L12.2298 26.3984C11.5709 26.2292 11.0501 25.9727 10.6673 25.6289C10.2871 25.2826 10.097 24.8229 10.097 24.25C10.097 23.7786 10.2246 23.3659 10.4798 23.0117C10.7376 22.6576 11.0878 22.3828 11.5305 22.1875C11.9733 21.9896 12.4746 21.8906 13.0345 21.8906C13.6022 21.8906 14.0996 21.9896 14.5266 22.1875C14.9563 22.3828 15.2936 22.6549 15.5384 23.0039C15.7832 23.3503 15.9095 23.7487 15.9173 24.1992H14.5227ZM24.6871 26C24.6871 26.862 24.5256 27.6003 24.2027 28.2148C23.8824 28.8268 23.4449 29.2956 22.8902 29.6211C22.3381 29.9466 21.7118 30.1094 21.0113 30.1094C20.3108 30.1094 19.6832 29.9466 19.1285 29.6211C18.5764 29.293 18.1389 28.8229 17.816 28.2109C17.4957 27.5964 17.3355 26.8594 17.3355 26C17.3355 25.138 17.4957 24.401 17.816 23.7891C18.1389 23.1745 18.5764 22.7044 19.1285 22.3789C19.6832 22.0534 20.3108 21.8906 21.0113 21.8906C21.7118 21.8906 22.3381 22.0534 22.8902 22.3789C23.4449 22.7044 23.8824 23.1745 24.2027 23.7891C24.5256 24.401 24.6871 25.138 24.6871 26ZM23.23 26C23.23 25.3932 23.135 24.8815 22.9449 24.4648C22.7574 24.0456 22.497 23.7292 22.1636 23.5156C21.8303 23.2995 21.4462 23.1914 21.0113 23.1914C20.5764 23.1914 20.1923 23.2995 19.8589 23.5156C19.5256 23.7292 19.2639 24.0456 19.0738 24.4648C18.8863 24.8815 18.7925 25.3932 18.7925 26C18.7925 26.6068 18.8863 27.1198 19.0738 27.5391C19.2639 27.9557 19.5256 28.2721 19.8589 28.4883C20.1923 28.7018 20.5764 28.8086 21.0113 28.8086C21.4462 28.8086 21.8303 28.7018 22.1636 28.4883C22.497 28.2721 22.7574 27.9557 22.9449 27.5391C23.135 27.1198 23.23 26.6068 23.23 26ZM32.8514 22V30H31.5623L27.7928 24.5508H27.7264V30H26.2772V22H27.5741L31.3397 27.4531H31.41V22H32.8514Z" fill="white"/>
</svg>
