<svg width="20" height="20" viewBox="0 0 20 20" fill="none" xmlns="http://www.w3.org/2000/svg">
<path d="M5.83325 6.98268H9.58325M14.1666 6.98268H12.0833M9.58325 6.98268H12.0833M9.58325 6.98268V5.83325M12.0833 6.98268C11.6437 8.55459 10.7232 10.0405 9.67254 11.3464M6.99397 14.1666C7.84329 13.3856 8.80254 12.4277 9.67254 11.3464M9.67254 11.3464C9.13682 10.7183 8.38682 9.70211 8.17254 9.24234M9.67254 11.3464L11.2797 13.0172" stroke="#335CFF" stroke-width="1.5" stroke-linecap="round" stroke-linejoin="round"/>
<path d="M2.08325 9.99992C2.08325 6.26797 2.08325 4.40199 3.24262 3.24262C4.40199 2.08325 6.26797 2.08325 9.99992 2.08325C13.7319 2.08325 15.5978 2.08325 16.7572 3.24262C17.9166 4.40199 17.9166 6.26797 17.9166 9.99992C17.9166 13.7319 17.9166 15.5978 16.7572 16.7572C15.5978 17.9166 13.7319 17.9166 9.99992 17.9166C6.26797 17.9166 4.40199 17.9166 3.24262 16.7572C2.08325 15.5978 2.08325 13.7319 2.08325 9.99992Z" stroke="#335CFF" stroke-width="1.5"/>
</svg>
