<svg width="16" height="16" viewBox="0 0 16 16" fill="none" xmlns="http://www.w3.org/2000/svg">
<path d="M5.76199 2.09723L4.62544 2.62257C2.87515 3.43162 2 3.83614 2 4.50016C2 5.16418 2.87515 5.56871 4.62544 6.37775L5.76199 6.9031C6.86349 7.41225 7.41425 7.66683 8 7.66683C8.58575 7.66683 9.13651 7.41225 10.238 6.9031L11.3746 6.37775C13.1249 5.56871 14 5.16418 14 4.50016C14 3.83614 13.1249 3.43162 11.3746 2.62257L10.238 2.09722C9.13651 1.58807 8.58575 1.3335 8 1.3335C7.41425 1.3335 6.86349 1.58807 5.76199 2.09723Z" stroke="#0E121B" stroke-width="1.25" stroke-linecap="round" stroke-linejoin="round"/>
<path d="M13.8587 7.39844C13.9529 7.53094 14 7.66904 14 7.82091C14 8.47548 13.1249 8.87424 11.3746 9.67177L10.238 10.1896C9.13651 10.6915 8.58575 10.9425 8 10.9425C7.41425 10.9425 6.86349 10.6915 5.76199 10.1896L4.62544 9.67177C2.87515 8.87424 2 8.47548 2 7.82091C2 7.66904 2.04711 7.53094 2.14133 7.39844" stroke="#0E121B" stroke-width="1.25" stroke-linecap="round" stroke-linejoin="round"/>
<path d="M13.5844 10.8442C13.8615 11.0649 14 11.2848 14 11.5452C14 12.1998 13.1249 12.5986 11.3746 13.3961L10.238 13.914C9.13651 14.4159 8.58575 14.6668 8 14.6668C7.41425 14.6668 6.86349 14.4159 5.76199 13.914L4.62544 13.3961C2.87515 12.5986 2 12.1998 2 11.5452C2 11.2848 2.13852 11.0649 2.41556 10.8442" stroke="#0E121B" stroke-width="1.25" stroke-linecap="round" stroke-linejoin="round"/>
</svg>
