<svg xmlns="http://www.w3.org/2000/svg" width="20" height="20" viewBox="0 0 20 20" fill="none">
<path d="M5.83268 1.66797C3.5315 1.66797 1.66602 3.53345 1.66602 5.83464C1.66602 7.37689 2.50393 8.72344 3.74935 9.44388V14.8706C3.74935 15.5518 3.74935 15.8925 3.87622 16.1988C4.00308 16.505 4.24394 16.7459 4.72566 17.2276L5.83268 18.3346L7.58951 16.5778C7.67053 16.4968 7.71107 16.4562 7.74468 16.4123C7.83294 16.2969 7.88948 16.1603 7.9087 16.0163C7.91602 15.9615 7.91602 15.9042 7.91602 15.7896C7.91602 15.6968 7.91602 15.6504 7.9111 15.6054C7.89821 15.4872 7.86021 15.3732 7.79964 15.271C7.77654 15.232 7.74871 15.1949 7.69306 15.1207L6.66602 13.7513L7.24935 12.9735C7.57976 12.533 7.74496 12.3127 7.83049 12.0561C7.91602 11.7995 7.91602 11.5242 7.91602 10.9735V9.44388C9.16143 8.72344 9.99935 7.37689 9.99935 5.83464C9.99935 3.53345 8.13387 1.66797 5.83268 1.66797Z" stroke="#335CFF" stroke-width="1.5" stroke-linejoin="round"/>
<path d="M5.83398 5.83203H5.84147" stroke="#335CFF" stroke-width="2" stroke-linecap="round" stroke-linejoin="round"/>
<path d="M10.834 11.668H15.834C16.6106 11.668 16.9988 11.668 17.3051 11.7948C17.7135 11.964 18.038 12.2884 18.2071 12.6968C18.334 13.0031 18.334 13.3914 18.334 14.168C18.334 14.9445 18.334 15.3328 18.2071 15.6391C18.038 16.0475 17.7135 16.3719 17.3051 16.5411C16.9988 16.668 16.6106 16.668 15.834 16.668H10.834" stroke="#335CFF" stroke-width="1.5" stroke-linecap="round"/>
<path d="M12.5 4.16797H15.8333C16.6099 4.16797 16.9982 4.16797 17.3045 4.29484C17.7129 4.46399 18.0373 4.78845 18.2065 5.19683C18.3333 5.50311 18.3333 5.8914 18.3333 6.66797C18.3333 7.44454 18.3333 7.83282 18.2065 8.13911C18.0373 8.54749 17.7129 8.87195 17.3045 9.0411C16.9982 9.16797 16.6099 9.16797 15.8333 9.16797H12.5" stroke="#335CFF" stroke-width="1.5" stroke-linecap="round"/>
</svg>