<svg width="20" height="20" viewBox="0 0 20 20" fill="none" xmlns="http://www.w3.org/2000/svg">
<g clip-path="url(#clip0_1166_24548)">
<path d="M11.25 12.9167C11.25 12.131 11.25 11.7382 11.4941 11.4941C11.7382 11.25 12.131 11.25 12.9167 11.25L16.6667 11.25C17.4523 11.25 17.8452 11.25 18.0893 11.4941C18.3333 11.7382 18.3333 12.131 18.3333 12.9167V16.6667C18.3333 17.4523 18.3333 17.8452 18.0893 18.0893C17.8452 18.3333 17.4523 18.3333 16.6667 18.3333H12.9167C12.131 18.3333 11.7382 18.3333 11.4941 18.0893C11.25 17.8452 11.25 17.4523 11.25 16.6667L11.25 12.9167Z" stroke="#335CFF" stroke-width="1.5" stroke-linecap="round" stroke-linejoin="round"/>
<path d="M1.66675 3.33317C1.66675 2.5475 1.66675 2.15466 1.91083 1.91058C2.1549 1.6665 2.54774 1.6665 3.33341 1.6665L7.08341 1.6665C7.86909 1.6665 8.26193 1.6665 8.506 1.91058C8.75008 2.15466 8.75008 2.5475 8.75008 3.33317V7.08317C8.75008 7.86885 8.75008 8.26168 8.506 8.50576C8.26193 8.74984 7.86909 8.74984 7.08341 8.74984H3.33341C2.54774 8.74984 2.1549 8.74984 1.91083 8.50576C1.66675 8.26168 1.66675 7.86885 1.66675 7.08317L1.66675 3.33317Z" stroke="#335CFF" stroke-width="1.5" stroke-linecap="round" stroke-linejoin="round"/>
<path d="M1.66675 12.9167C1.66675 12.131 1.66675 11.7382 1.91083 11.4941C2.1549 11.25 2.54774 11.25 3.33341 11.25L7.08341 11.25C7.86909 11.25 8.26193 11.25 8.506 11.4941C8.75008 11.7382 8.75008 12.131 8.75008 12.9167V16.6667C8.75008 17.4523 8.75008 17.8452 8.506 18.0893C8.26193 18.3333 7.86909 18.3333 7.08341 18.3333H3.33341C2.54774 18.3333 2.1549 18.3333 1.91083 18.0893C1.66675 17.8452 1.66675 17.4523 1.66675 16.6667L1.66675 12.9167Z" stroke="#335CFF" stroke-width="1.5" stroke-linecap="round" stroke-linejoin="round"/>
<path d="M11.25 3.33317C11.25 2.5475 11.25 2.15466 11.4941 1.91058C11.7382 1.6665 12.131 1.6665 12.9167 1.6665L16.6667 1.6665C17.4523 1.6665 17.8452 1.6665 18.0893 1.91058C18.3333 2.15466 18.3333 2.5475 18.3333 3.33317V7.08317C18.3333 7.86885 18.3333 8.26168 18.0893 8.50576C17.8452 8.74984 17.4523 8.74984 16.6667 8.74984H12.9167C12.131 8.74984 11.7382 8.74984 11.4941 8.50576C11.25 8.26168 11.25 7.86885 11.25 7.08317L11.25 3.33317Z" stroke="#335CFF" stroke-width="1.5" stroke-linecap="round" stroke-linejoin="round"/>
</g>
<defs>
<clipPath id="clip0_1166_24548">
<rect width="20" height="20" fill="white"/>
</clipPath>
</defs>
</svg>
