<svg width="18" height="18" viewBox="0 0 18 18" fill="none" xmlns="http://www.w3.org/2000/svg">
<path d="M1.08334 8.99967C1.08334 5.26772 1.08334 3.40175 2.24271 2.24238C3.40208 1.08301 5.26806 1.08301 9.00001 1.08301C12.732 1.08301 14.5979 1.08301 15.7573 2.24238C16.9167 3.40175 16.9167 5.26772 16.9167 8.99967C16.9167 12.7316 16.9167 14.5976 15.7573 15.757C14.5979 16.9163 12.732 16.9163 9.00001 16.9163C5.26806 16.9163 3.40208 16.9163 2.24271 15.757C1.08334 14.5976 1.08334 12.7316 1.08334 8.99967Z" stroke="#335CFF" stroke-width="1.5"/>
<path d="M5.25 13.1663C7.19308 11.1312 10.786 11.0354 12.75 13.1663M11.0792 6.91634C11.0792 8.06693 10.1452 8.99967 8.99294 8.99967C7.84071 8.99967 6.90664 8.06693 6.90664 6.91634C6.90664 5.76575 7.84071 4.83301 8.99294 4.83301C10.1452 4.83301 11.0792 5.76575 11.0792 6.91634Z" stroke="#335CFF" stroke-width="1.5" stroke-linecap="round"/>
</svg>
