<svg xmlns="http://www.w3.org/2000/svg" width="20" height="20" viewBox="0 0 20 20" fill="none">
<path d="M9.5 12.5244C8.35753 12.6392 7.28394 13.1457 6.46484 13.9648C5.64577 14.7839 5.14018 15.8576 5.02539 17H4.52441C4.64082 15.7247 5.19843 14.5242 6.11133 13.6113C7.02424 12.6984 8.22469 12.1398 9.5 12.0234V12.5244ZM14.5 12.875C14.069 12.875 13.6553 13.0458 13.3506 13.3506C13.0458 13.6553 12.875 14.069 12.875 14.5C12.875 14.931 13.0458 15.3447 13.3506 15.6494C13.6553 15.9542 14.069 16.125 14.5 16.125C14.931 16.125 15.3447 15.9542 15.6494 15.6494C15.9542 15.3447 16.125 14.931 16.125 14.5C16.125 14.069 15.9542 13.6553 15.6494 13.3506C15.3447 13.0458 14.931 12.875 14.5 12.875ZM10 2.25C12.2101 2.25 14 4.03989 14 6.25C14 8.46011 12.2101 10.25 10 10.25C7.78989 10.25 6 8.46011 6 6.25C6 4.03989 7.78989 2.25 10 2.25ZM10 2.75C8.06636 2.75 6.5 4.31636 6.5 6.25C6.5 8.18364 8.06636 9.75 10 9.75C11.9336 9.75 13.5 8.18364 13.5 6.25C13.5 4.31636 11.9336 2.75 10 2.75ZM14.25 16.6436L13.8926 16.5371C13.5737 16.442 13.2816 16.2728 13.04 16.0439L12.7695 15.7881L12.4463 15.9746L12.1348 16.1533L11.8848 15.7207L12.1963 15.542L11.9463 15.1094L12.4326 14.9932C12.3557 14.6692 12.3557 14.3318 12.4326 14.0078L12.5186 13.6455L12.1963 13.459L11.8848 13.2793L12.1348 12.8457L12.4463 13.0254L12.7695 13.2119L13.04 12.9561C13.2816 12.7272 13.5737 12.558 13.8926 12.4629L14.25 12.3564V11.625H14.75V12.3564L15.1074 12.4629C15.4294 12.5585 15.721 12.7299 15.96 12.9561L16.2305 13.2119L16.5537 13.0254L16.8643 12.8457L17.1143 13.2793L16.8037 13.459L16.4814 13.6445L16.5674 14.0068C16.6443 14.3308 16.6443 14.6692 16.5674 14.9932L16.4814 15.3555L16.8037 15.541L17.1143 15.7197L16.8643 16.1533L16.5537 15.9746L16.2305 15.7881L15.96 16.0439C15.7184 16.2728 15.4263 16.442 15.1074 16.5371L14.75 16.6436V17.375H14.25V16.6436Z" stroke="#335CFF"/>
</svg>