<svg width="20" height="20" viewBox="0 0 20 20" fill="none" xmlns="http://www.w3.org/2000/svg">
<path d="M16.75 8.125V10.375C16.75 12.2387 13.7275 13.75 10 13.75C6.2725 13.75 3.25 12.2387 3.25 10.375L3.25 8.125C3.25 9.98875 6.2725 11.5 10 11.5C13.7275 11.5 16.75 9.98875 16.75 8.125ZM3.25 11.875C3.25 13.7387 6.2725 15.25 10 15.25C13.7275 15.25 16.75 13.7387 16.75 11.875V14.125C16.75 15.9887 13.7275 17.5 10 17.5C6.2725 17.5 3.25 15.9887 3.25 14.125L3.25 11.875ZM10 10C6.2725 10 3.25 8.48875 3.25 6.625C3.25 4.76125 6.2725 3.25 10 3.25C13.7275 3.25 16.75 4.76125 16.75 6.625C16.75 8.48875 13.7275 10 10 10Z" fill="#335CFF"/>
</svg>
