<svg width="20" height="20" viewBox="0 0 20 20" fill="none" xmlns="http://www.w3.org/2000/svg">
<g clip-path="url(#clip0_1166_22162)">
<path d="M16.1667 16.1667L18.3333 18.3333M17.25 12.375C17.25 9.68261 15.0674 7.5 12.375 7.5C9.68261 7.5 7.5 9.68261 7.5 12.375C7.5 15.0674 9.68261 17.25 12.375 17.25C15.0674 17.25 17.25 15.0674 17.25 12.375Z" stroke="#335CFF" stroke-width="1.5" stroke-linecap="round" stroke-linejoin="round"/>
<path d="M1.6665 5.00008C1.77525 3.88717 2.02167 3.13866 2.58005 2.58029C3.13842 2.02192 3.88692 1.7755 4.99984 1.66675M4.99984 18.3334C3.88692 18.2247 3.13842 17.9782 2.58005 17.4199C2.02167 16.8615 1.77525 16.113 1.6665 15.0001M18.3332 5.00008C18.2244 3.88717 17.978 3.13866 17.4196 2.58029C16.8613 2.02192 16.1128 1.7755 14.9998 1.66675M1.6665 8.33342L1.6665 11.6667M11.6665 1.66675L8.33317 1.66675" stroke="#335CFF" stroke-width="1.5" stroke-linecap="round"/>
</g>
<defs>
<clipPath id="clip0_1166_22162">
<rect width="20" height="20" fill="white"/>
</clipPath>
</defs>
</svg>
