<svg width="20" height="20" viewBox="0 0 20 20" fill="none" xmlns="http://www.w3.org/2000/svg">
<path d="M4.75 9.25H15.25V4.75H4.75V9.25ZM16.75 4V16C16.75 16.1989 16.671 16.3897 16.5303 16.5303C16.3897 16.671 16.1989 16.75 16 16.75H4C3.80109 16.75 3.61032 16.671 3.46967 16.5303C3.32902 16.3897 3.25 16.1989 3.25 16V4C3.25 3.80109 3.32902 3.61032 3.46967 3.46967C3.61032 3.32902 3.80109 3.25 4 3.25H16C16.1989 3.25 16.3897 3.32902 16.5303 3.46967C16.671 3.61032 16.75 3.80109 16.75 4ZM15.25 10.75H4.75V15.25H15.25V10.75ZM6.25 12.25H8.5V13.75H6.25V12.25ZM6.25 6.25H8.5V7.75H6.25V6.25Z" fill="#525866"/>
</svg>
