<svg width="18" height="20" viewBox="0 0 18 20" fill="none" xmlns="http://www.w3.org/2000/svg">
<path d="M0.878466 13.0272C0.906763 12.7578 1.10194 12.5408 1.4923 12.1067L2.35152 11.1461C2.56155 10.8802 2.71059 10.417 2.71059 10.0002C2.71059 9.58366 2.5615 9.12036 2.3515 8.8545L1.4923 7.89391C1.10194 7.4598 0.906762 7.24274 0.878465 6.97339C0.850169 6.70404 0.995964 6.45102 1.28755 5.94498L1.69888 5.23114C2.00996 4.69128 2.1655 4.42135 2.43014 4.31372C2.69479 4.20608 2.99409 4.29101 3.5927 4.46088L4.60957 4.7473C4.99174 4.83543 5.3927 4.78544 5.74165 4.60614L6.02239 4.44416C6.32163 4.25251 6.55179 3.96993 6.67919 3.63777L6.95749 2.80661C7.14047 2.2566 7.23196 1.98159 7.44977 1.82429C7.66758 1.66699 7.9569 1.66699 8.53553 1.66699H9.46451C10.0431 1.66699 10.3325 1.66699 10.5503 1.82429C10.7681 1.98159 10.8596 2.2566 11.0426 2.80661L11.3208 3.63777C11.4483 3.96993 11.6784 4.25251 11.9776 4.44416L12.2584 4.60614C12.6073 4.78544 13.0083 4.83543 13.3905 4.7473L14.4073 4.46088C15.0059 4.29101 15.3053 4.20608 15.5699 4.31372C15.8345 4.42135 15.9901 4.69128 16.3012 5.23114L16.7125 5.94498C17.0041 6.45102 17.1499 6.70404 17.1216 6.97339C17.0933 7.24274 16.8981 7.4598 16.5077 7.89391L15.6485 8.8545C15.4385 9.12036 15.2895 9.58366 15.2895 10.0002C15.2895 10.417 15.4385 10.8802 15.6485 11.1461L16.5077 12.1067C16.8981 12.5408 17.0933 12.7578 17.1216 13.0272C17.1499 13.2965 17.0041 13.5496 16.7125 14.0556L16.3012 14.7694C15.9901 15.3093 15.8345 15.5792 15.5699 15.6869C15.3052 15.7945 15.0059 15.7096 14.4073 15.5397L13.3905 15.2532C13.0083 15.1651 12.6072 15.2151 12.2582 15.3945L11.9775 15.5565C11.6784 15.7481 11.4483 16.0307 11.3209 16.3628L11.0426 17.194C10.8596 17.7441 10.7681 18.0191 10.5503 18.1764C10.3325 18.3337 10.0431 18.3337 9.46451 18.3337H8.53553C7.9569 18.3337 7.66758 18.3337 7.44977 18.1764C7.23196 18.0191 7.14047 17.7441 6.95749 17.194" stroke="#335CFF" stroke-width="1.5" stroke-linecap="round"/>
<path d="M11.8908 12.8572L12.421 13.3876L12.421 13.3876L11.8908 12.8572ZM12.5415 8.87582L11.7915 8.87261V8.87582H12.5415ZM11.9862 8.64467L12.5165 9.17512L12.5165 9.17512L11.9862 8.64467ZM10.439 10.1913L9.90874 9.66085V9.66085L10.439 10.1913ZM9.01688 10.1912L9.54717 9.66083L9.01688 10.1912ZM6.35153 7.31778L6.88182 7.84815V7.84815L6.35153 7.31778ZM10.3336 6.66715V7.41715L10.3368 7.41714L10.3336 6.66715ZM10.5648 7.22231L11.0951 7.75262L11.0951 7.75261L10.5648 7.22231ZM9.01791 8.76931L8.48756 8.239L8.48755 8.239L9.01791 8.76931ZM1.34735 15.5806L1.87768 16.1109L1.87769 16.1109L1.34735 15.5806ZM3.62805 17.8613L4.15838 18.3916L4.15842 18.3916L3.62805 17.8613ZM5.70036 10.3993L4.95037 10.3957L5.70036 10.3993ZM5.11395 11.8138L4.58361 11.2835L5.11395 11.8138ZM5.62134 11.2L4.92911 10.9114L5.62134 11.2ZM8.80865 13.5083L8.80508 12.7583L8.80865 13.5083ZM7.39398 14.0948L7.92435 14.6251L7.39398 14.0948ZM8.0078 13.5873L8.29648 14.2796L8.0078 13.5873ZM8.81221 14.2583C9.55591 14.2548 10.2413 14.2373 10.8233 14.1353C11.4119 14.032 11.9799 13.8287 12.421 13.3876L11.3605 12.3269C11.2244 12.4629 10.9985 12.5816 10.5641 12.6578C10.1229 12.7352 9.55586 12.7547 8.80508 12.7583L8.81221 14.2583ZM12.421 13.3876C12.6086 13.2001 12.7933 12.9944 12.9372 12.7302C13.0842 12.4604 13.165 12.174 13.2126 11.8467C13.3007 11.242 13.2915 10.338 13.2915 8.87582H11.7915C11.7915 10.4174 11.7961 11.1651 11.7283 11.6306C11.698 11.8384 11.6585 11.9419 11.6199 12.0127C11.5782 12.0893 11.512 12.1753 11.3605 12.3269L12.421 13.3876ZM13.2915 8.87904C13.2956 7.91761 12.1339 7.43664 11.456 8.11423L12.5165 9.17512C12.2492 9.44223 11.7899 9.25346 11.7915 8.87261L13.2915 8.87904ZM11.456 8.11423L9.90874 9.66085L10.9692 10.7217L12.5165 9.17512L11.456 8.11423ZM9.90874 9.66085C9.8089 9.76065 9.64699 9.76064 9.54717 9.66083L8.48659 10.7216C9.17213 11.407 10.2835 11.4071 10.9692 10.7217L9.90874 9.66085ZM6.45035 10.4028C6.45392 9.65252 6.47348 9.08558 6.55088 8.64445C6.62711 8.21001 6.74579 7.98416 6.88182 7.84815L5.82125 6.78741C5.38008 7.22851 5.17673 7.7966 5.07345 8.38522C4.97134 8.96715 4.95391 9.65241 4.95037 10.3957L6.45035 10.4028ZM6.88182 7.84815C7.03335 7.69665 7.11941 7.63045 7.19602 7.58873C7.26692 7.55013 7.37041 7.51062 7.57829 7.48036C8.04393 7.41259 8.79174 7.41715 10.3336 7.41715V5.91715C8.87112 5.91715 7.967 5.90798 7.36224 5.996C7.03492 6.04364 6.7486 6.1244 6.4787 6.27137C6.21453 6.41521 6.00882 6.59987 5.82125 6.78741L6.88182 7.84815ZM10.3368 7.41714C9.95649 7.41877 9.76684 6.95963 10.0344 6.69201L11.0951 7.75261C11.7733 7.07441 11.2914 5.91304 10.3304 5.91715L10.3368 7.41714ZM10.0344 6.692L8.48756 8.239L9.54826 9.29962L11.0951 7.75262L10.0344 6.692ZM8.48755 8.239C7.80313 8.9235 7.79989 10.035 8.48659 10.7216L9.54717 9.66083C9.4485 9.56218 9.44742 9.40046 9.54827 9.29961L8.48755 8.239ZM1.87768 17.331C1.54077 16.9941 1.54077 16.4478 1.87768 16.1109L0.817019 15.0503C-0.105673 15.973 -0.105673 17.4689 0.817019 18.3916L1.87768 17.331ZM3.09772 17.331C2.76081 17.6679 2.21459 17.6679 1.87768 17.331L0.817019 18.3916C1.73971 19.3143 3.23569 19.3143 4.15838 18.3916L3.09772 17.331ZM6.86361 13.5646L3.09768 17.331L4.15842 18.3916L7.92435 14.6251L6.86361 13.5646ZM1.87769 16.1109L5.6443 12.3441L4.58361 11.2835L0.817004 15.0503L1.87769 16.1109ZM4.95037 10.3957C4.94933 10.6126 4.94827 10.7348 4.941 10.8264C4.93465 10.9062 4.92619 10.9184 4.92911 10.9114L6.31357 11.4887C6.4601 11.1373 6.44868 10.7528 6.45035 10.4028L4.95037 10.3957ZM5.6443 12.3441C5.88878 12.0996 6.16715 11.8398 6.31357 11.4887L4.92911 10.9114C4.9291 10.9114 4.92901 10.9116 4.92854 10.9125C4.92803 10.9135 4.9266 10.916 4.92362 10.9206C4.91732 10.9301 4.90436 10.9482 4.87818 10.9786C4.81945 11.0469 4.73509 11.132 4.58361 11.2835L5.6443 12.3441ZM8.80508 12.7583C8.45508 12.76 8.07057 12.7485 7.71912 12.8951L8.29648 14.2796C8.28948 14.2825 8.30161 14.274 8.38146 14.2677C8.47304 14.2604 8.59524 14.2593 8.81221 14.2583L8.80508 12.7583ZM7.92435 14.6251C8.07585 14.4736 8.1609 14.3892 8.22924 14.3305C8.25969 14.3043 8.2777 14.2913 8.28728 14.285C8.29182 14.2821 8.29439 14.2806 8.29534 14.2801C8.29622 14.2797 8.29647 14.2796 8.29648 14.2796L7.71912 12.8951C7.36796 13.0416 7.10812 13.32 6.86361 13.5646L7.92435 14.6251Z" fill="#335CFF"/>
</svg>
