<svg width="20" height="18" viewBox="0 0 20 18" fill="none" xmlns="http://www.w3.org/2000/svg">
<path d="M12.9163 8.99967C12.9163 10.6105 11.6105 11.9163 9.99967 11.9163C8.38884 11.9163 7.08301 10.6105 7.08301 8.99967C7.08301 7.38884 8.38884 6.08301 9.99967 6.08301C11.6105 6.08301 12.9163 7.38884 12.9163 8.99967Z" stroke="#335CFF" stroke-width="1.5"/>
<path d="M17.3492 10.7946C17.8785 10.6206 18.1432 10.5336 18.2382 10.4024C18.3332 10.2711 18.3332 10.0603 18.3332 9.63873V8.36071C18.3332 7.93906 18.3332 7.72824 18.2382 7.59703C18.1432 7.46581 17.8785 7.37884 17.3492 7.20489C15.8716 6.71933 14.947 5.17548 15.2481 3.66538C15.3592 3.10785 15.4148 2.82909 15.3475 2.68203C15.2803 2.53497 15.0961 2.43036 14.7276 2.22115L13.5802 1.56972C13.2175 1.3638 13.0362 1.26084 12.8759 1.27813C12.7156 1.29541 12.5115 1.47858 12.1032 1.8449C10.9189 2.90743 9.08212 2.90738 7.89782 1.84482C7.48952 1.4785 7.28538 1.29534 7.12509 1.27805C6.9648 1.26076 6.78345 1.36372 6.42077 1.56964L5.27342 2.22107C4.90497 2.43027 4.72075 2.53486 4.65351 2.6819C4.58627 2.82894 4.6418 3.10773 4.75286 3.66532C5.05367 5.17548 4.12838 6.71938 2.65049 7.20492C2.12118 7.37882 1.85653 7.46576 1.76152 7.59699C1.6665 7.72821 1.6665 7.93904 1.6665 8.3607L1.6665 9.63872C1.6665 10.0604 1.6665 10.2712 1.7615 10.4024C1.85651 10.5336 2.12116 10.6206 2.65048 10.7945C4.12807 11.2801 5.05264 12.8239 4.75161 14.3341C4.64048 14.8916 4.58491 15.1703 4.65215 15.3174C4.71938 15.4645 4.90362 15.5691 5.2721 15.7783L6.41945 16.4297C6.78216 16.6356 6.96352 16.7386 7.12383 16.7213C7.28414 16.704 7.48824 16.5208 7.89645 16.1545C9.08142 15.091 10.9196 15.0909 12.1045 16.1544C12.5128 16.5208 12.7169 16.7039 12.8772 16.7212C13.0375 16.7385 13.2188 16.6356 13.5815 16.4296L14.7289 15.7782C15.0974 15.569 15.2817 15.4644 15.3489 15.3173C15.4161 15.1702 15.3605 14.8915 15.2493 14.334C14.9481 12.8239 15.8719 11.2802 17.3492 10.7946Z" stroke="#335CFF" stroke-width="1.5" stroke-linecap="round"/>
</svg>
