<svg width="16" height="16" viewBox="0 0 16 16" fill="none" xmlns="http://www.w3.org/2000/svg">
<path d="M10.3332 8.00008C10.3332 9.28875 9.2885 10.3334 7.99984 10.3334C6.71117 10.3334 5.6665 9.28875 5.6665 8.00008C5.6665 6.71142 6.71117 5.66675 7.99984 5.66675C9.2885 5.66675 10.3332 6.71142 10.3332 8.00008Z" stroke="#565865"/>
<path d="M13.6922 9.50605C14.2306 9.27923 14.4997 9.16581 14.5832 9.04014C14.6666 8.91446 14.6666 8.71341 14.6666 8.31132V7.68891C14.6666 7.28677 14.6666 7.08571 14.5831 6.96002C14.4997 6.83434 14.2305 6.72096 13.6922 6.49421C12.683 6.06912 12.048 5.0095 12.1675 3.93298C12.2334 3.33889 12.2664 3.04184 12.1982 2.90834C12.1301 2.77484 11.9553 2.67559 11.6056 2.47707L11.0357 2.15345C10.6895 1.95692 10.5165 1.85866 10.3665 1.8688C10.2166 1.87895 9.98799 2.05326 9.53081 2.40188C8.63575 3.08441 7.36513 3.08438 6.47007 2.40182C6.01291 2.0532 5.78433 1.87888 5.63439 1.86874C5.48445 1.85859 5.31138 1.95686 4.96524 2.15338L4.39524 2.47701C4.04565 2.6755 3.87085 2.77474 3.80272 2.90821C3.73458 3.04168 3.7675 3.33877 3.83333 3.93294C3.95262 5.00951 3.31707 6.06918 2.30762 6.49425C1.76931 6.72092 1.50016 6.83426 1.41671 6.95995C1.33325 7.08565 1.33325 7.28673 1.33325 7.68891V8.31132C1.33325 8.71345 1.33325 8.91452 1.41669 9.0402C1.50013 9.16589 1.76929 9.27926 2.30761 9.50601C3.31679 9.9311 3.95185 10.9907 3.83237 12.0672C3.76643 12.6613 3.73346 12.9584 3.8016 13.0919C3.86974 13.2254 4.04455 13.3246 4.39419 13.5232L4.96419 13.8468C5.31037 14.0433 5.48346 14.1416 5.63342 14.1314C5.78339 14.1213 6.01191 13.9469 6.46895 13.5983C7.36459 12.915 8.63629 12.915 9.53193 13.5982C9.98899 13.9469 10.2175 14.1212 10.3675 14.1314C10.5174 14.1415 10.6905 14.0433 11.0367 13.8467L11.6067 13.5231C11.9564 13.3246 12.1312 13.2253 12.1994 13.0918C12.2675 12.9582 12.2345 12.6612 12.1684 12.0672C12.0488 10.9907 12.6833 9.93116 13.6922 9.50605Z" stroke="#565865" stroke-linecap="round"/>
</svg>
