<svg width="21" height="20" viewBox="0 0 21 20" fill="none" xmlns="http://www.w3.org/2000/svg">
<path d="M4.66667 7.49984C4.66667 4.74998 4.66667 3.37505 5.52094 2.52078C6.37521 1.6665 7.75014 1.6665 10.5 1.6665C13.2499 1.6665 14.6248 1.6665 15.4791 2.52078C16.3333 3.37505 16.3333 4.74998 16.3333 7.49984V12.4998C16.3333 15.2497 16.3333 16.6246 15.4791 17.4789C14.6248 18.3332 13.2499 18.3332 10.5 18.3332C7.75014 18.3332 6.37521 18.3332 5.52094 17.4789C4.66667 16.6246 4.66667 15.2497 4.66667 12.4998V7.49984Z" stroke="#0E121B" stroke-width="1.5" stroke-linecap="round"/>
<path d="M9.66667 15.833H11.3333" stroke="#0E121B" stroke-width="1.5" stroke-linecap="round" stroke-linejoin="round"/>
<path d="M8 1.6665L8.07417 2.11152C8.2349 3.07591 8.31527 3.55811 8.64599 3.85154C8.99098 4.15762 9.48012 4.1665 10.5 4.1665C11.5199 4.1665 12.009 4.15762 12.354 3.85154C12.6847 3.55811 12.7651 3.07591 12.9258 2.11152L13 1.6665" stroke="#0E121B" stroke-width="1.5" stroke-linejoin="round"/>
</svg>
