<svg width="25" height="24" viewBox="0 0 25 24" fill="none" xmlns="http://www.w3.org/2000/svg">
<path d="M12.5 12.5274L16.3187 16.3452L15.0452 17.6187L13.4 15.9735V21H11.6V15.9717L9.9548 17.6187L8.6813 16.3452L12.5 12.5274ZM12.5 3C14.0453 3.00007 15.5367 3.568 16.6906 4.59581C17.8445 5.62361 18.5805 7.03962 18.7586 8.5746C19.8784 8.87998 20.8553 9.56919 21.5186 10.5218C22.1818 11.4744 22.4892 12.6297 22.3871 13.786C22.2849 14.9422 21.7796 16.0257 20.9596 16.8472C20.1396 17.6687 19.0569 18.1759 17.9009 18.2802V16.4676C18.3151 16.4085 18.7133 16.2674 19.0723 16.0527C19.4314 15.8379 19.744 15.5539 19.9921 15.217C20.2402 14.8801 20.4186 14.4972 20.5171 14.0906C20.6155 13.6839 20.632 13.2618 20.5655 12.8488C20.4991 12.4357 20.351 12.0401 20.1299 11.6849C19.9089 11.3297 19.6193 11.0221 19.2781 10.78C18.9369 10.538 18.5508 10.3663 18.1426 10.2751C17.7343 10.1838 17.3119 10.1748 16.9001 10.2486C17.041 9.5924 17.0334 8.91297 16.8778 8.2601C16.7222 7.60722 16.4225 6.99743 16.0006 6.47538C15.5788 5.95333 15.0456 5.53225 14.4399 5.24298C13.8343 4.9537 13.1716 4.80357 12.5004 4.80357C11.8293 4.80357 11.1666 4.9537 10.561 5.24298C9.95534 5.53225 9.42208 5.95333 9.00026 6.47538C8.57844 6.99743 8.27873 7.60722 8.1231 8.2601C7.96747 8.91297 7.95985 9.5924 8.1008 10.2486C7.27969 10.0944 6.43095 10.2727 5.74131 10.7443C5.05166 11.2159 4.57759 11.9421 4.4234 12.7632C4.2692 13.5843 4.4475 14.433 4.91908 15.1227C5.39066 15.8123 6.11689 16.2864 6.938 16.4406L7.1 16.4676V18.2802C5.9439 18.1761 4.86116 17.669 4.04102 16.8476C3.22087 16.0261 2.71549 14.9426 2.6132 13.7863C2.51092 12.6301 2.81823 11.4747 3.48143 10.522C4.14463 9.56934 5.12153 8.88005 6.2414 8.5746C6.41933 7.03954 7.15526 5.62342 8.30922 4.59558C9.46318 3.56774 10.9547 2.99988 12.5 3Z" fill="#525866"/>
</svg>
