<svg width="16" height="20" viewBox="0 0 16 20" fill="none" xmlns="http://www.w3.org/2000/svg">
<path d="M2.66667 18.3337C2.66667 17.5973 2.06971 17.0003 1.33333 17.0003M5.33333 18.3337C5.33333 16.1245 3.54247 14.3337 1.33333 14.3337M8 18.3337C8 14.6518 5.01523 11.667 1.33333 11.667" stroke="#335CFF" stroke-width="1.5" stroke-linecap="round"/>
<path d="M2.16699 9.16699V7.91702C2.16699 5.17742 2.16699 3.80763 2.92364 2.88567C3.06214 2.7169 3.2169 2.56214 3.38567 2.42364C4.30763 1.66699 5.67743 1.66699 8.41702 1.66699C11.1566 1.66699 12.5264 1.66699 13.4484 2.42364C13.6171 2.56214 13.7719 2.7169 13.9104 2.88567C14.667 3.80763 14.667 5.17742 14.667 7.91702V14.167C14.667 14.9414 14.667 15.3286 14.603 15.6506C14.34 16.9729 13.3063 18.0066 11.984 18.2696C11.662 18.3337 11.2748 18.3337 10.5004 18.3337" stroke="#335CFF" stroke-width="1.5" stroke-linecap="round"/>
</svg>
