<svg width="8" height="5" viewBox="0 0 8 5" fill="none" xmlns="http://www.w3.org/2000/svg">
<path d="M4.48837 0.837209L7.86047 4.2093C7.90698 4.25581 7.94186 4.3062 7.96512 4.36047C7.98837 4.41473 8 4.47287 8 4.53488C8 4.65891 7.95736 4.76744 7.87209 4.86047C7.78682 4.95349 7.67442 5 7.53488 5H0.465117C0.325582 5 0.213178 4.95349 0.127907 4.86047C0.0426359 4.76744 0 4.65891 0 4.53488C0 4.50388 0.0465117 4.39535 0.139535 4.2093L3.51163 0.837209C3.58915 0.75969 3.66667 0.705426 3.74419 0.674418C3.82171 0.643411 3.90698 0.627907 4 0.627907C4.09302 0.627907 4.17829 0.643411 4.25581 0.674418C4.33333 0.705426 4.41085 0.75969 4.48837 0.837209Z" fill="#9D9FAC"/>
</svg>
