<svg width="8" height="5" viewBox="0 0 8 5" fill="none" xmlns="http://www.w3.org/2000/svg">
<path d="M3.51163 4.16279L0.139535 0.790698C0.0930233 0.744186 0.0581395 0.693798 0.0348837 0.639535C0.0116279 0.585271 0 0.527132 0 0.465116C0 0.341085 0.0426357 0.232558 0.127907 0.139535C0.213178 0.0465116 0.325581 0 0.465116 0H7.53488C7.67442 0 7.78682 0.0465116 7.87209 0.139535C7.95736 0.232558 8 0.341085 8 0.465116C8 0.496124 7.95349 0.604651 7.86047 0.790698L4.48837 4.16279C4.41085 4.24031 4.33333 4.29457 4.25581 4.32558C4.17829 4.35659 4.09302 4.37209 4 4.37209C3.90698 4.37209 3.82171 4.35659 3.74419 4.32558C3.66667 4.29457 3.58915 4.24031 3.51163 4.16279Z" fill="#9D9FAC"/>
</svg>
