<svg width="96" height="96" viewBox="0 0 96 96" fill="none" xmlns="http://www.w3.org/2000/svg">
<path d="M0 48C0 21.4903 21.4903 0 48 0C74.5097 0 96 21.4903 96 48C96 74.5097 74.5097 96 48 96C21.4903 96 0 74.5097 0 48Z" fill="url(#paint0_linear_2061_113248)" fill-opacity="0.1"/>
<g filter="url(#filter0_d_2061_113248)">
<path d="M16 48C16 30.3269 30.3269 16 48 16C65.6731 16 80 30.3269 80 48C80 65.6731 65.6731 80 48 80C30.3269 80 16 65.6731 16 48Z" fill="white"/>
<path d="M16.5 48C16.5 30.603 30.603 16.5 48 16.5C65.397 16.5 79.5 30.603 79.5 48C79.5 65.397 65.397 79.5 48 79.5C30.603 79.5 16.5 65.397 16.5 48Z" stroke="#E1E4EA"/>
<path d="M38.4 43.2002H57.6V39.6002H38.4V43.2002ZM50.4 56.4002V45.6002H45.6V56.4002H50.4ZM52.8 56.4002H57.6V45.6002H52.8V56.4002ZM43.2 56.4002V45.6002H38.4V56.4002H43.2ZM37.2 37.2002H58.8C59.1183 37.2002 59.4235 37.3266 59.6485 37.5517C59.8736 37.7767 60 38.0819 60 38.4002V57.6002C60 57.9185 59.8736 58.2237 59.6485 58.4487C59.4235 58.6738 59.1183 58.8002 58.8 58.8002H37.2C36.8817 58.8002 36.5765 58.6738 36.3515 58.4487C36.1264 58.2237 36 57.9185 36 57.6002V38.4002C36 38.0819 36.1264 37.7767 36.3515 37.5517C36.5765 37.3266 36.8817 37.2002 37.2 37.2002Z" fill="#525866"/>
</g>
<defs>
<filter id="filter0_d_2061_113248" x="14" y="15" width="68" height="68" filterUnits="userSpaceOnUse" color-interpolation-filters="sRGB">
<feFlood flood-opacity="0" result="BackgroundImageFix"/>
<feColorMatrix in="SourceAlpha" type="matrix" values="0 0 0 0 0 0 0 0 0 0 0 0 0 0 0 0 0 0 127 0" result="hardAlpha"/>
<feOffset dy="1"/>
<feGaussianBlur stdDeviation="1"/>
<feComposite in2="hardAlpha" operator="out"/>
<feColorMatrix type="matrix" values="0 0 0 0 0.0392157 0 0 0 0 0.0509804 0 0 0 0 0.0784314 0 0 0 0.03 0"/>
<feBlend mode="normal" in2="BackgroundImageFix" result="effect1_dropShadow_2061_113248"/>
<feBlend mode="normal" in="SourceGraphic" in2="effect1_dropShadow_2061_113248" result="shape"/>
</filter>
<linearGradient id="paint0_linear_2061_113248" x1="48" y1="0" x2="48" y2="96" gradientUnits="userSpaceOnUse">
<stop stop-color="#717784"/>
<stop offset="1" stop-color="#717784" stop-opacity="0"/>
</linearGradient>
</defs>
</svg>
