<?xml version="1.0" encoding="UTF-8"?>
<svg version="1.1" xmlns="http://www.w3.org/2000/svg" width="180" height="180">
<path d="M0 0 C18.71078869 14.95590252 31.92462485 34.76562059 35.296875 58.8359375 C37.39332377 88.69066379 31.70617066 112.12517411 11.984375 134.9609375 C-2.34217835 150.39695458 -22.60302701 161.56491837 -43.85302734 163.05712891 C-73.93872536 164.08641105 -96.89175804 158.02687808 -119.328125 137.203125 C-135.48245374 121.1019355 -144.78886544 99.64615668 -145.08398438 76.86425781 C-145.0374507 48.34687367 -137.18699764 26.38741368 -116.703125 5.8359375 C-84.69729146 -23.67452597 -34.71694813 -25.74646153 0 0 Z " fill="#873EFF" transform="translate(144.703125,17.1640625)"/>
<path d="M0 0 C1.07185547 -0.00708984 2.14371094 -0.01417969 3.24804688 -0.02148438 C8.8515667 0.02362136 13.33390135 0.09028972 18.0625 3.4375 C21.1952436 6.7519956 21.46823837 9.24080697 21.57421875 13.734375 C21.60966797 14.93964844 21.64511719 16.14492187 21.68164062 17.38671875 C21.71547852 19.26810547 21.71547852 19.26810547 21.75 21.1875 C21.78416016 22.45722656 21.81832031 23.72695312 21.85351562 25.03515625 C21.93599001 28.16918274 22.00514484 31.30292955 22.0625 34.4375 C22.46976318 33.60726318 22.46976318 33.60726318 22.88525391 32.76025391 C37.28429888 3.48077397 37.28429888 3.48077397 44.0625 0.4375 C49.06860786 -0.17728518 52.06937326 0.33173475 56.0625 3.4375 C59.25180016 6.81218519 59.47030383 9.38086868 59.57421875 13.953125 C59.60966797 15.20351562 59.64511719 16.45390625 59.68164062 17.7421875 C59.70419922 19.04414062 59.72675781 20.34609375 59.75 21.6875 C59.78416016 23.00492188 59.81832031 24.32234375 59.85351562 25.6796875 C59.93600706 28.93220678 60.0051567 32.18445596 60.0625 35.4375 C60.65937622 34.25776611 60.65937622 34.25776611 61.26831055 33.05419922 C62.76250583 30.11008111 64.26357439 27.169679 65.76928711 24.23144531 C66.41689029 22.96429048 67.0618033 21.69575674 67.70385742 20.42578125 C68.63258985 18.58996517 69.57120876 16.75949229 70.51171875 14.9296875 C71.07205811 13.82995605 71.63239746 12.73022461 72.2097168 11.59716797 C77.88638353 1.91639042 77.88638353 1.91639042 83.0625 0.4375 C88.743918 -0.02067887 92.09811416 0.36430876 97.0625 3.4375 C99.0625 5.4375 99.0625 5.4375 99.15234375 9.24609375 C98.20231976 16.14996914 94.24321599 21.69467077 90.625 27.5 C89.89155572 28.70121326 89.15938539 29.90320527 88.4284668 31.10595703 C86.98451769 33.47550837 85.5311863 35.83883494 84.06835938 38.19677734 C82.34484722 40.98133191 80.6428753 43.77693235 78.953125 46.58203125 C78.09490335 47.99288973 77.23563773 49.40311406 76.375 50.8125 C76.0025415 51.42875244 75.63008301 52.04500488 75.24633789 52.67993164 C71.9489563 57.97303746 67.90077412 62.97245093 62.0625 65.4375 C57.11049684 66.12926194 52.62096887 66.09821304 48.125 63.75 C44.44260481 60.96941588 42.41197054 58.8552973 41.7331543 54.15893555 C41.54406738 51.47906512 41.44142964 48.81065548 41.375 46.125 C41.34083984 45.19365234 41.30667969 44.26230469 41.27148438 43.30273438 C41.18934059 41.01444328 41.12008338 38.72651896 41.0625 36.4375 C40.30066406 38.03078125 40.30066406 38.03078125 39.5234375 39.65625 C29.89688848 59.5295064 29.89688848 59.5295064 21.0625 64.4375 C16.99470306 65.79343231 13.31581741 65.96825585 9.0625 65.4375 C3.94487182 62.78391502 0.88544058 59.90632174 -0.9375 54.4375 C-1.02268867 51.63323548 -1.0533852 48.8545365 -1.03515625 46.05078125 C-1.0337413 45.23377243 -1.03232635 44.41676361 -1.03086853 43.57499695 C-1.02527294 40.96662732 -1.01272129 38.35834366 -1 35.75 C-0.99498443 33.98112103 -0.99042162 32.21224072 -0.98632812 30.44335938 C-0.97530496 26.10803981 -0.95804338 21.77278448 -0.9375 17.4375 C-1.75734375 17.48390625 -2.5771875 17.5303125 -3.421875 17.578125 C-5.03835937 17.63226563 -5.03835937 17.63226563 -6.6875 17.6875 C-8.28851563 17.75710937 -8.28851563 17.75710937 -9.921875 17.828125 C-13.60963152 17.35043633 -14.69353726 16.33396727 -16.9375 13.4375 C-17.50390625 11.21875 -17.50390625 11.21875 -17.5 8.9375 C-17.52191406 8.1846875 -17.54382813 7.431875 -17.56640625 6.65625 C-16.9375 4.4375 -16.9375 4.4375 -15.1484375 2.18359375 C-10.21655357 -0.49834313 -5.52030464 -0.10253412 0 0 Z " fill="#FCFBFF" transform="translate(48.9375,59.5625)"/>
</svg>
